<svg xmlns="http://www.w3.org/2000/svg" viewBox="0 0 420.8222 560.1416"><path d="M23.499,128.2695H242.7158a23.5,23.5,0,0,1,23.5,23.5v82.7119a23.4991,23.4991,0,0,1-23.4991,23.4991H23.4991A23.4991,23.4991,0,0,1,0,234.4814V151.7685a23.499,23.499,0,0,1,23.499-23.499Z" fill="#ee7c00"/><path d="M236.8789,432.2344a9.0104,9.0104,0,0,0-8.9844-8.9854H213.5722a9.00967,9.00967,0,0,0-8.9843,8.9854v29.9521a9.02221,9.02221,0,0,1-8.9844,8.9932l-27.5244.0234c-4.9424.0059-6.6885,3.336-3.8819,7.4043l51.1836,74.1407c2.8067,4.0683,5.2158,7.3935,5.3535,7.3935s2.5469-3.3291,5.3536-7.3955l51.1796-74.1387c2.8067-4.0683,1.0616-7.3984-3.8808-7.4043l-27.5235-.0234a9.02212,9.02212,0,0,1-8.9843-8.9932Z" fill="#ee7c00"/><path d="M150.7373,220.3819,126.9707,159.582a7.08032,7.08032,0,0,0-1.6133-2.5322,7.43852,7.43852,0,0,0-5.3672-2.2402,7.28731,7.28731,0,0,0-5.291,2.206,6.92856,6.92856,0,0,0-1.709,2.6211L89.2461,220.3799a8.91409,8.91409,0,0,0-.7373,3.4941,7.57685,7.57685,0,0,0,7.5654,7.5655,7.23369,7.23369,0,0,0,6.9199-4.4571l.0625-.1523,3.168-8.1543,27.5342.0059,3.1962,8.2236.0313.0742a7.23174,7.23174,0,0,0,6.9219,4.46,7.57531,7.57531,0,0,0,7.5634-7.5655A8.9087,8.9087,0,0,0,150.7373,220.3819Zm-38.7979-16.4092,8.0508-20.7139,8.0527,20.7139Z" fill="#fff"/><path d="M175.457,156.0371a7.66655,7.66655,0,0,0-13.084,5.418V224.793a7.6665,7.6665,0,0,0,15.333,0V161.4551A7.51719,7.51719,0,0,0,175.457,156.0371Z" fill="#fff"/><path d="M104.6211,484.4404H62.4589a17.64471,17.64471,0,0,1-17.6259-17.625V257.9727H23.3847a23.61818,23.61818,0,0,1-2.7324-.1651c-.0019.0547-.0098.1084-.0098.1651V466.8154a41.86426,41.86426,0,0,0,41.8164,41.8155h42.1622a12.09525,12.09525,0,1,0,0-24.1905Z" fill="#1d1d1b"/><path d="M104.6191,329.6231H336.8476a12.0962,12.0962,0,0,0,0-24.1924H104.6191a12.0962,12.0962,0,0,0,0,24.1924Z" fill="#1d1d1b"/><path d="M104.6191,383.9063H336.8476a12.09525,12.09525,0,1,0,0-24.1905H104.6191a12.09525,12.09525,0,1,0,0,24.1905Z" fill="#1d1d1b"/><path d="M417.2793,119.709,301.1191,3.5449A12.10035,12.10035,0,0,0,292.5664,0H62.4589A41.8651,41.8651,0,0,0,20.6425,41.8164v86.4463c0,.0547.0079.1084.0098.1631a23.61921,23.61921,0,0,1,2.7324-.1631H44.833V41.8164a17.64627,17.64627,0,0,1,17.6259-17.626H280.4687v80.5733a35.63388,35.63388,0,0,0,35.5938,35.5928h80.5703V466.8154a17.64394,17.64394,0,0,1-17.625,17.625H336.8486a12.09525,12.09525,0,0,0,0,24.1905h42.1592a41.86255,41.86255,0,0,0,41.8144-41.8155V128.2608A12.08882,12.08882,0,0,0,417.2793,119.709Zm-101.2168-3.543a11.41647,11.41647,0,0,1-11.4043-11.4023V41.294l74.8711,74.872Z" fill="#1d1d1b"/></svg>