<svg xmlns="http://www.w3.org/2000/svg" viewBox="0 0 420.8389 546.0967"><path d="M236.8965,418.1914a9.01238,9.01238,0,0,0-8.9853-8.9853H213.5889a9.01161,9.01161,0,0,0-8.9844,8.9853v29.9492a9.0247,9.0247,0,0,1-8.9853,8.9952l-27.5244.0253c-4.9414.004-6.6866,3.335-3.8789,7.4034l51.1796,74.1386c2.8067,4.0664,5.2168,7.3936,5.3536,7.3936.1377,0,2.5478-3.3272,5.3554-7.3955l51.1797-74.1387c2.8076-4.0664,1.0625-7.3974-3.8808-7.4014l-27.5235-.0253a9.02307,9.02307,0,0,1-8.9834-8.9952Z" fill="#d5126b"/><path d="M23.499,128.2525H242.7168a23.4991,23.4991,0,0,1,23.4991,23.4991v82.7123a23.499,23.499,0,0,1-23.499,23.499H23.5a23.5,23.5,0,0,1-23.5-23.5V151.7515A23.499,23.499,0,0,1,23.499,128.2525Z" fill="#d5126b"/><path d="M173.9961,157.0108a7.41611,7.41611,0,0,0-5.3457-2.2168,7.22843,7.22843,0,0,0-6.9209,4.458l-.0332.0752-16.9638,43.6464-16.9327-43.5712-.0644-.1524a7.23,7.23,0,0,0-6.9199-4.456,7.57189,7.57189,0,0,0-7.5645,7.5625,8.94753,8.94753,0,0,0,.7363,3.4951l23.7442,60.7441a6.96318,6.96318,0,0,0,1.7109,2.6221,7.29331,7.29331,0,0,0,5.2901,2.2041,7.44731,7.44731,0,0,0,5.3681-2.2393,7.10084,7.10084,0,0,0,1.6133-2.5312l23.7656-60.7998a8.94727,8.94727,0,0,0,.7344-3.4951A7.42121,7.42121,0,0,0,173.9961,157.0108Z" fill="#fff"/><path d="M117.8799,220.3662,94.1123,159.5645a7.11845,7.11845,0,0,0-1.6132-2.5313,7.44207,7.44207,0,0,0-5.3672-2.2392A7.28912,7.28912,0,0,0,81.8409,157a6.92676,6.92676,0,0,0-1.709,2.6211L56.3877,220.3643a8.9226,8.9226,0,0,0-.7382,3.4961,7.5736,7.5736,0,0,0,7.5664,7.5615,7.22968,7.22968,0,0,0,6.9189-4.4561l.0635-.1533,3.1679-8.1523,27.5333.0039,3.1972,8.2265.0313.0733a7.2306,7.2306,0,0,0,6.9218,4.458,7.57206,7.57206,0,0,0,7.5645-7.5615A8.94572,8.94572,0,0,0,117.8799,220.3662ZM79.0811,203.957l8.0508-20.7133,8.0517,20.7133Z" fill="#fff"/><path d="M200.0245,156.022a7.6651,7.6651,0,0,0-13.0831,5.4175v63.3388a7.66555,7.66555,0,0,0,15.3311,0V161.4395A7.51828,7.51828,0,0,0,200.0245,156.022Z" fill="#fff"/><path d="M104.6377,484.4365H62.4746a17.6448,17.6448,0,0,1-17.624-17.624V257.9707H23.4014a23.40155,23.40155,0,0,1-2.7334-.168c0,.0577-.0068.1124-.0068.168V466.8125A41.86213,41.86213,0,0,0,62.4746,508.627h42.1631a12.09525,12.09525,0,1,0,0-24.1905Z" fill="#1d1d1b"/><path d="M104.6358,329.6201H336.8633a12.0952,12.0952,0,1,0,0-24.1904H104.6358a12.0952,12.0952,0,1,0,0,24.1904Z" fill="#1d1d1b"/><path d="M104.6358,383.9033H336.8633a12.0952,12.0952,0,1,0,0-24.1904H104.6358a12.0952,12.0952,0,1,0,0,24.1904Z" fill="#1d1d1b"/><path d="M417.2979,119.7061,301.1358,3.542A12.09831,12.09831,0,0,0,292.5821,0H62.4746A41.86138,41.86138,0,0,0,20.6612,41.814v86.4438c0,.0572.0068.1104.0068.1675a23.20716,23.20716,0,0,1,2.7334-.1675H44.8506V41.814A17.64448,17.64448,0,0,1,62.4746,24.19H280.4844v80.5688a35.63662,35.63662,0,0,0,35.5947,35.5972h80.5704V466.8125a17.6463,17.6463,0,0,1-17.625,17.624H336.8653a12.09525,12.09525,0,1,0,0,24.1905h42.1592a41.86234,41.86234,0,0,0,41.8144-41.8145V128.2578A12.09544,12.09544,0,0,0,417.2979,119.7061Zm-101.2188-3.5406a11.41959,11.41959,0,0,1-11.4043-11.4067V41.2935l74.8702,74.872Z" fill="#1d1d1b"/></svg>