<svg xmlns="http://www.w3.org/2000/svg" viewBox="0 0 420.8232 560.1416"><path d="M23.499,128.2695H242.7158a23.5,23.5,0,0,1,23.5,23.5v82.7119a23.4991,23.4991,0,0,1-23.4991,23.4991H23.4991A23.4991,23.4991,0,0,1,0,234.4814V151.7685a23.499,23.499,0,0,1,23.499-23.499Z" fill="#1d9639"/><path d="M74.6269,169.9365a21.89769,21.89769,0,0,1,14.1328,4.7813,7.56232,7.56232,0,0,0,12.7364-5.5108,7.53217,7.53217,0,0,0-2.1358-5.3037l-.1718-.1796-.1915-.1563a37.49424,37.49424,0,0,0-24.3701-8.7578,37.07144,37.07144,0,0,0-27.084,11.2295,38.27871,38.27871,0,0,0,0,54.1699,37.06456,37.06456,0,0,0,27.084,11.2305,37.737,37.737,0,0,0,24.0703-8.5078l.1807-.1455.1631-.1622a7.5626,7.5626,0,0,0-5.3662-12.8877,7.53211,7.53211,0,0,0-4.3418,1.3457l-.1289.0899-.1192.0986a21.9358,21.9358,0,0,1-14.458,5.041,23.18462,23.18462,0,0,1-16.3935-39.582A22.1513,22.1513,0,0,1,74.6269,169.9365Z" fill="#fff"/><path d="M130.6611,154.8096h-13.667a7.57189,7.57189,0,0,0-7.5635,7.5644v61.5a7.57531,7.57531,0,0,0,7.5635,7.5655h13.667a38.30257,38.30257,0,0,0,27.084-65.4004A37.07305,37.07305,0,0,0,130.6611,154.8096Zm16.3936,54.7099a22.151,22.151,0,0,1-16.3936,6.792h-6.1025v-46.375h6.1025a23.1854,23.1854,0,0,1,16.3936,39.583Z" fill="#fff"/><path d="M228.6836,219.7442l-12.5713-20.1573a26.11542,26.11542,0,0,0,3.1797-2.7187,24.646,24.646,0,0,0-17.4532-42.0586h-17.083a7.5736,7.5736,0,0,0-7.5654,7.5644v61.5a7.56445,7.56445,0,0,0,15.1289,0V204.1055h8.7432l14.8232,23.7178a7.586,7.586,0,0,0,6.4541,3.6162,7.57489,7.57489,0,0,0,6.3438-11.6953ZM208.581,186.1983a8.982,8.982,0,0,1-6.7422,2.7773h-9.5195V169.9365h9.5195a9.53422,9.53422,0,0,1,6.7422,16.2618Z" fill="#fff"/><path d="M236.9931,432.2344a9.01032,9.01032,0,0,0-8.9843-8.9854H213.6865a9.0104,9.0104,0,0,0-8.9844,8.9854v29.9521a9.02214,9.02214,0,0,1-8.9844,8.9932l-27.5234.0234c-4.9433.0059-6.6885,3.336-3.8808,7.4043l51.1796,74.1407c2.8077,4.0664,5.2159,7.3935,5.3536,7.3935.1386,0,2.5488-3.3271,5.3554-7.3955l51.1797-74.1387c2.8086-4.0683,1.0625-7.3984-3.8789-7.4043l-27.5244-.0234a9.02306,9.02306,0,0,1-8.9854-8.9932Z" fill="#1d9639"/><path d="M104.622,484.4404H62.459a17.6444,17.6444,0,0,1-17.6241-17.625V257.9727H23.3867a23.622,23.622,0,0,1-2.7334-.1651c0,.0547-.0078.1084-.0078.1651V466.8154A41.863,41.863,0,0,0,62.459,508.6309h42.163a12.09525,12.09525,0,1,0,0-24.1905Z" fill="#1d1d1b"/><path d="M104.6201,329.6231H336.8496a12.0962,12.0962,0,0,0,0-24.1924H104.6201a12.0962,12.0962,0,0,0,0,24.1924Z" fill="#1d1d1b"/><path d="M104.6201,383.9063H336.8496a12.09525,12.09525,0,0,0,0-24.1905H104.6201a12.09525,12.09525,0,1,0,0,24.1905Z" fill="#1d1d1b"/><path d="M417.2822,119.709,301.1201,3.5449A12.09878,12.09878,0,0,0,292.5674,0H62.459A41.86384,41.86384,0,0,0,20.6455,41.8164v86.4463c0,.0547.0078.1084.0078.1631a23.62317,23.62317,0,0,1,2.7334-.1631H44.8349V41.8164A17.646,17.646,0,0,1,62.459,24.1904H280.4687v80.5733a35.63493,35.63493,0,0,0,35.5957,35.5928h80.5703V466.8154a17.64536,17.64536,0,0,1-17.6259,17.625H336.8506a12.09525,12.09525,0,1,0,0,24.1905h42.1582a41.8632,41.8632,0,0,0,41.8144-41.8155V128.2608A12.09919,12.09919,0,0,0,417.2822,119.709Zm-101.2178-3.543a11.41724,11.41724,0,0,1-11.4052-11.4023V41.294l74.8701,74.872Z" fill="#1d1d1b"/></svg>