<svg xmlns="http://www.w3.org/2000/svg" viewBox="0 0 420.8242 560.1416"><path d="M23.5,128.2695H242.7187a23.499,23.499,0,0,1,23.499,23.499v82.7129a23.4991,23.4991,0,0,1-23.4991,23.4991H23.5a23.5,23.5,0,0,1-23.5-23.5v-82.711a23.5,23.5,0,0,1,23.5-23.5Z" fill="#283b86"/><path d="M236.9941,432.2344a9.00976,9.00976,0,0,0-8.9844-8.9854H213.6884a9.012,9.012,0,0,0-8.9863,8.9854v29.9521a9.02156,9.02156,0,0,1-8.9844,8.9932l-27.5234.0234c-4.9414.0059-6.6885,3.336-3.8809,7.4043l51.1817,74.1407c2.8076,4.0664,5.2158,7.3935,5.3535,7.3935s2.5478-3.3271,5.3545-7.3955l51.1816-74.1387c2.8067-4.0683,1.0596-7.3984-3.8818-7.4043l-27.5235-.0234a9.02175,9.02175,0,0,1-8.9853-8.9932Z" fill="#283b86"/><path d="M95.6064,209.7344a7.53743,7.53743,0,0,0-4.3437,1.3476l-.127.0899-.1211.0976a21.93007,21.93007,0,0,1-14.456,5.0401A23.18193,23.18193,0,0,1,60.164,176.7315a22.14042,22.14042,0,0,1,16.3946-6.7969,21.88585,21.88585,0,0,1,14.1308,4.7822,7.56377,7.56377,0,0,0,12.7373-5.5098,7.53052,7.53052,0,0,0-2.1357-5.3037l-.1719-.1796-.1904-.1563a37.50409,37.50409,0,0,0-24.3701-8.7598,37.07392,37.07392,0,0,0-27.085,11.2315,38.316,38.316,0,0,0,27.085,65.4004,37.75279,37.75279,0,0,0,24.0703-8.5078l.1797-.1455.1621-.1641a7.56255,7.56255,0,0,0-5.3643-12.8877Z" fill="#fff"/><path d="M152.0634,190.834l-.0556-.0635c-3.669-4.1748-8.96-7.0517-15.7237-8.5537-3.2021-.8437-4.6709-1.7793-5.3066-2.3349a6.09309,6.09309,0,0,1,4.6953-9.8565c.1924,0,.3887.0088.582.0254a5.76852,5.76852,0,0,1,4.0782,2.0684q.7602,1.00335,1.4853,1.9648a6.911,6.911,0,0,0,5.709,2.6855,7.59272,7.59272,0,0,0,6.4473-11.5556,22.82715,22.82715,0,0,0-2.042-2.8291l-.0996-.1123c-4.502-4.9522-9.9024-7.4649-16.0518-7.4649a21.28983,21.28983,0,0,0-16.2295,35.0635l.1602.1895.1826.1689a25.66749,25.66749,0,0,0,13.0244,6.4326c3.5371.9434,6.1025,2.2735,7.6309,3.961a9.06137,9.06137,0,0,1,2.1611,6.9345,8.96456,8.96456,0,0,1-3.3291,6.4668,9.11486,9.11486,0,0,1-6.1055,2.2891c-.2822,0-.5654-.0107-.8261-.0313a8.87783,8.87783,0,0,1-6.4659-3.3476l-.081-.0957-.085-.0918a6.02894,6.02894,0,0,1-.7129-.9121l-.0693-.1065a7.57243,7.57243,0,1,0-12.4707,8.5869,20.85206,20.85206,0,0,0,1.957,2.5088c5.211,5.7159,11.5576,8.6153,18.8672,8.6153a24.67922,24.67922,0,0,0,24.377-22.625c.0664-.7774.1005-1.5567.1005-2.3233A23.72539,23.72539,0,0,0,152.0634,190.834Z" fill="#fff"/><path d="M225.7558,157.0283a7.40892,7.40892,0,0,0-5.3428-2.2207,7.22751,7.22751,0,0,0-6.9218,4.46l-.0332.0752-16.9649,43.6445L179.5595,159.418l-.0634-.1524a7.2327,7.2327,0,0,0-6.92-4.458,7.57514,7.57514,0,0,0-7.5634,7.5645,8.91177,8.91177,0,0,0,.7363,3.4961l23.7441,60.7431a6.94376,6.94376,0,0,0,1.709,2.6211,7.29271,7.29271,0,0,0,5.291,2.2071,7.4477,7.4477,0,0,0,5.3662-2.2393,7.08981,7.08981,0,0,0,1.6153-2.5332l23.7656-60.7998a8.91967,8.91967,0,0,0,.7353-3.4951A7.40456,7.40456,0,0,0,225.7558,157.0283Z" fill="#fff"/><path d="M104.624,484.4404H62.4599a17.6441,17.6441,0,0,1-17.623-17.625V257.9727H23.3877a23.62445,23.62445,0,0,1-2.7344-.1651c0,.0547-.0078.1084-.0078.1651V466.8154a41.8632,41.8632,0,0,0,41.8144,41.8155H104.624a12.09525,12.09525,0,0,0,0-24.1905Z" fill="#1d1d1b"/><path d="M104.622,329.6231H336.8496a12.0962,12.0962,0,0,0,0-24.1924H104.622a12.0962,12.0962,0,1,0,0,24.1924Z" fill="#1d1d1b"/><path d="M104.622,383.9063H336.8496a12.09525,12.09525,0,1,0,0-24.1905H104.622a12.09525,12.09525,0,1,0,0,24.1905Z" fill="#1d1d1b"/><path d="M417.2822,119.709,301.1211,3.5449A12.099,12.099,0,0,0,292.5683,0H62.4599A41.864,41.864,0,0,0,20.6455,41.8164v86.4463c0,.0547.0078.1084.0078.1631a23.62581,23.62581,0,0,1,2.7344-.1631H44.8369V41.8164a17.64566,17.64566,0,0,1,17.623-17.626H280.4707v80.5733a35.63465,35.63465,0,0,0,35.5947,35.5928h80.5683V466.8154a17.6441,17.6441,0,0,1-17.623,17.625H336.8505a12.09525,12.09525,0,0,0,0,24.1905h42.1602a41.863,41.863,0,0,0,41.8135-41.8155V128.2608A12.09216,12.09216,0,0,0,417.2822,119.709Zm-101.2168-3.543a11.41669,11.41669,0,0,1-11.4053-11.4023V41.294l74.8701,74.872Z" fill="#1d1d1b"/></svg>