<svg xmlns="http://www.w3.org/2000/svg" viewBox="0 0 420.93749 569.4448"><path d="M236.99409,441.5376a9.01365,9.01365,0,0,0-8.9863-8.9854h-14.3203a9.01223,9.01223,0,0,0-8.9854,8.9854v29.9497a9.02273,9.02273,0,0,1-8.98529,8.9951l-27.5235.0254c-4.9423.0039-6.6875,3.335-3.8818,7.4028l51.18159,74.1387c2.8067,4.0684,5.2168,7.3955,5.3536,7.3955.1396,0,2.5478-3.3271,5.3564-7.3955l51.1797-74.1401c2.80761-4.0664,1.0605-7.3975-3.8799-7.4014l-27.5254-.0254a9.02175,9.02175,0,0,1-8.9834-8.9951Z" fill="#334290"/><path d="M23.501,128.2597H242.71779a23.499,23.499,0,0,1,23.499,23.499v82.7129a23.4991,23.4991,0,0,1-23.4991,23.4991H23.499A23.499,23.499,0,0,1,0,234.4717v-82.711A23.501,23.501,0,0,1,23.501,128.2597Z" fill="#334290"/><path d="M130.5019,155.3545a37.7501,37.7501,0,0,0-26.6933,64.4531,37.722,37.722,0,0,0,53.3867,0,37.7607,37.7607,0,0,0-26.6934-64.4531Zm15.5254,53.2851a21.94834,21.94834,0,0,1-31.0508,0,21.9585,21.9585,0,0,1,15.5254-37.4829,21.95588,21.95588,0,0,1,15.5254,37.4829Z" fill="#fff"/><path d="M48.4775,155.3545H35.207a7.91212,7.91212,0,0,0-7.9014,7.9013v59.7188a7.91212,7.91212,0,0,0,7.9014,7.9014H48.4775a36.538,36.538,0,0,0,26.6934-11.0684,37.72212,37.72212,0,0,0,0-53.3848A36.53789,36.53789,0,0,0,48.4775,155.3545Zm15.5244,53.2851a20.97444,20.97444,0,0,1-15.5244,6.4341H43.1084v-43.917h5.3691a20.97444,20.97444,0,0,1,15.5244,6.4341,21.94473,21.94473,0,0,1,0,31.0488Z" fill="#fff"/><path d="M230.75969,208.6855a7.86089,7.86089,0,0,0-4.5351,1.4102l-.15819.1138-.11721.0957a20.75782,20.75782,0,0,1-13.6836,4.7685,21.95517,21.95517,0,0,1-15.52539-37.4829,20.97663,20.97663,0,0,1,15.52539-6.4341,20.69516,20.69516,0,0,1,13.3369,4.4893,7.90173,7.90173,0,0,0,13.3086-5.7559,7.87012,7.87012,0,0,0-2.2275-5.5351l-.1914-.1988-.2119-.1709a36.95409,36.95409,0,0,0-24.0147-8.6308,37.74946,37.74946,0,0,0-26.69339,64.4531c7.3428,7.3437,14.97759,11.0684,25.34669,11.0684a40.92022,40.92022,0,0,0,25.0664-8.3848l.1992-.1597.1807-.1821a7.90045,7.90045,0,0,0-5.6055-13.4639Z" fill="#fff"/><path d="M104.7353,484.4365H62.5722a17.64326,17.64326,0,0,1-17.624-17.624V257.9707H23.499a23.58744,23.58744,0,0,1-2.7324-.1655c-.001.0551-.0088.1084-.0088.1655V466.8125a41.863,41.863,0,0,0,41.8144,41.8159h42.1631a12.096,12.096,0,0,0,0-24.1919Z" fill="#1d1d1b"/><path d="M104.7334,329.6201H336.96289a12.0952,12.0952,0,0,0,0-24.1904H104.7334a12.0952,12.0952,0,1,0,0,24.1904Z" fill="#1d1d1b"/><path d="M104.7334,383.9033H336.96289a12.0952,12.0952,0,0,0,0-24.1904H104.7334a12.0952,12.0952,0,1,0,0,24.1904Z" fill="#1d1d1b"/><path d="M417.39549,119.7065,301.2334,3.542A12.09446,12.09446,0,0,0,292.68059,0H62.5722A41.86253,41.86253,0,0,0,20.7578,41.8154v86.4443c0,.0552.0078.1104.0088.1656a23.5652,23.5652,0,0,1,2.7324-.1656H44.9482V41.8154a17.64487,17.64487,0,0,1,17.624-17.6255H280.582v80.5694a35.6348,35.6348,0,0,0,35.5947,35.5947H396.748V466.8125a17.64426,17.64426,0,0,1-17.626,17.624h-42.1591a12.096,12.096,0,0,0,0,24.1919H379.122a41.86319,41.86319,0,0,0,41.8155-41.8159V128.2597A12.09919,12.09919,0,0,0,417.39549,119.7065Zm-101.2188-3.5425a11.417,11.417,0,0,1-11.40429-11.4047V41.2934l74.87019,74.8706Z" fill="#1d1d1b"/></svg>