<svg xmlns="http://www.w3.org/2000/svg" viewBox="0 0 420.8233 560.1416"><path d="M23.499,128.2695H242.7187a23.4981,23.4981,0,0,1,23.4981,23.4981v82.7138a23.4991,23.4991,0,0,1-23.4991,23.4991H23.5a23.5,23.5,0,0,1-23.5-23.5v-82.712A23.499,23.499,0,0,1,23.499,128.2695Z" fill="#59aea2"/><path d="M97.0264,216.3115H63.5879v-15.624H86.7745a7.56345,7.56345,0,0,0,0-15.1269H63.5879V169.9365H97.0264a7.56345,7.56345,0,0,0,0-15.1269H56.0235a7.57017,7.57017,0,0,0-7.5625,7.5644v61.5a7.5736,7.5736,0,0,0,7.5625,7.5655H97.0264a7.564,7.564,0,0,0,0-15.128Z" fill="#fff"/><path d="M155.5508,162.5371a25.49321,25.49321,0,0,0-18.6269-7.7275h-13.667a7.57188,7.57188,0,0,0-7.5655,7.5644v61.5a7.5645,7.5645,0,0,0,15.129,0V207.5205h6.1035a26.34383,26.34383,0,0,0,18.6269-44.9834Zm-10.6904,26.5655a10.71824,10.71824,0,0,1-7.9365,3.291h-6.1035V169.9365h6.1035a11.22469,11.22469,0,0,1,7.9365,19.1661Z" fill="#fff"/><path d="M211.9532,190.834l-.0567-.0635c-3.6699-4.1748-8.959-7.0517-15.7226-8.5537-3.2041-.8418-4.6729-1.7793-5.3076-2.3349a6.09131,6.09131,0,0,1,4.6943-9.8555c.1933,0,.3887.0098.583.0244a5.76947,5.76947,0,0,1,4.0762,2.0684c.5078.6689,1.0049,1.3271,1.4853,1.9668a6.91529,6.91529,0,0,0,5.71,2.6835,7.59,7.59,0,0,0,6.4472-11.5537,22.55529,22.55529,0,0,0-2.0419-2.831l-.0977-.1104c-4.502-4.9541-9.9033-7.4648-16.0527-7.4648a21.289,21.289,0,0,0-16.2305,35.0635l.1602.1875.1835.1689a25.649,25.649,0,0,0,13.0235,6.4346c3.5371.9424,6.1025,2.2734,7.6318,3.9609a9.58132,9.58132,0,0,1-7.2744,15.6885c-.2812,0-.5644-.0107-.8262-.0313a8.879,8.879,0,0,1-6.4658-3.3457l-.081-.0976-.084-.0899a6.04055,6.04055,0,0,1-.7119-.9121l-.0694-.1084a7.57352,7.57352,0,1,0-12.4736,8.5869,20.84,20.84,0,0,0,1.958,2.5108c5.2119,5.7139,11.5596,8.6133,18.8682,8.6133a24.67739,24.67739,0,0,0,24.3759-22.625c.0684-.7754.1016-1.5567.1016-2.3233A23.72954,23.72954,0,0,0,211.9532,190.834Z" fill="#fff"/><path d="M236.9922,432.2344a9.01053,9.01053,0,0,0-8.9853-8.9854H213.6856a9.01061,9.01061,0,0,0-8.9854,8.9854v29.9521a9.02212,9.02212,0,0,1-8.9843,8.9932l-27.5225.0234c-4.9434.0059-6.6895,3.336-3.8818,7.4043l51.1806,74.1407c2.8076,4.0683,5.2188,7.3935,5.3555,7.3935.1377,0,2.5479-3.3291,5.3545-7.3955l51.1787-74.1387c2.8076-4.0683,1.0625-7.3984-3.8809-7.4043l-27.5224-.0234a9.02306,9.02306,0,0,1-8.9854-8.9932Z" fill="#59aea2"/><path d="M104.6231,484.4404H62.459a17.64373,17.64373,0,0,1-17.624-17.625V257.9727H23.3858a23.595,23.595,0,0,1-2.7334-.1651c-.001.0547-.0078.1084-.0078.1651V466.8154A41.86255,41.86255,0,0,0,62.459,508.6309h42.1641a12.09525,12.09525,0,0,0,0-24.1905Z" fill="#1d1d1b"/><path d="M104.6192,329.6231H336.8477a12.0962,12.0962,0,0,0,0-24.1924H104.6192a12.0962,12.0962,0,0,0,0,24.1924Z" fill="#1d1d1b"/><path d="M104.6192,383.9063H336.8477a12.09525,12.09525,0,1,0,0-24.1905H104.6192a12.09525,12.09525,0,0,0,0,24.1905Z" fill="#1d1d1b"/><path d="M417.2813,119.709,301.1192,3.5449A12.09321,12.09321,0,0,0,292.5674,0H62.459A41.86339,41.86339,0,0,0,20.6446,41.8164v86.4463c0,.0547.0068.1084.0078.1631a23.59652,23.59652,0,0,1,2.7334-.1631H44.835V41.8164a17.64529,17.64529,0,0,1,17.624-17.626H280.4688v80.5733a35.63472,35.63472,0,0,0,35.5947,35.5928h80.5694V466.8154a17.64459,17.64459,0,0,1-17.625,17.625H336.8487a12.09525,12.09525,0,0,0,0,24.1905h42.1592a41.86283,41.86283,0,0,0,41.8154-41.8155V128.2608A12.09216,12.09216,0,0,0,417.2813,119.709Zm-101.2178-3.543a11.41647,11.41647,0,0,1-11.4043-11.4023V41.294l74.8701,74.872Z" fill="#1d1d1b"/></svg>