<svg xmlns="http://www.w3.org/2000/svg" viewBox="0 0 420.8672 560.1319"><path d="M23.501,128.2578H242.7187a23.4981,23.4981,0,0,1,23.4981,23.4981v82.7138a23.501,23.501,0,0,1-23.501,23.501H23.5a23.5,23.5,0,0,1-23.5-23.5V151.7588a23.501,23.501,0,0,1,23.501-23.501Z" fill="#23a5db"/><path d="M236.9922,432.2246a9.01174,9.01174,0,0,0-8.9853-8.9853H213.6856a9.01182,9.01182,0,0,0-8.9854,8.9853v29.9512a9.02024,9.02024,0,0,1-8.9843,8.9932l-27.5225.0283c-4.9434.0029-6.6895,3.332-3.8818,7.3984l51.1806,74.1426c2.8076,4.0664,5.2188,7.3936,5.3555,7.3936.1377,0,2.5479-3.3292,5.3545-7.3956l51.1787-74.1386c2.8076-4.0684,1.0625-7.3975-3.8809-7.4004l-27.5224-.0283a9.02119,9.02119,0,0,1-8.9854-8.9932Z" fill="#23a5db"/><path d="M91.4668,169.1104a22.66232,22.66232,0,0,1,14.6358,4.956,7.66682,7.66682,0,0,0,12.9121-5.5825,7.63317,7.63317,0,0,0-2.165-5.377l-.1709-.1801-.1924-.1563a38.51022,38.51022,0,0,0-25.0196-8.9892,39.32242,39.32242,0,0,0-27.8066,67.1386,38.05845,38.05845,0,0,0,27.8066,11.5313,38.74477,38.74477,0,0,0,24.712-8.7354l.1806-.1474.1641-.1641a7.475,7.475,0,0,0,2.2275-5.3945V196.6319a7.6366,7.6366,0,0,0-2.165-5.375l-.126-.125a7.58375,7.58375,0,0,0-5.3311-2.1641H93.6661a7.666,7.666,0,0,0,0,15.332h9.7529v9.71a24.20033,24.20033,0,0,1-28.9219-3.9238,24.00465,24.00465,0,0,1,16.9697-40.9756Z" fill="#fff"/><path d="M137.2422,153.7813a7.67689,7.67689,0,0,0-7.665,7.6655v63.3384a7.666,7.666,0,0,0,15.332,0V161.4468a7.67688,7.67688,0,0,0-7.667-7.6655Z" fill="#fff"/><path d="M211.835,156.0274a7.51307,7.51307,0,0,0-5.416-2.2461H164.1934a7.6738,7.6738,0,0,0-7.668,7.6655v63.3384a7.66605,7.66605,0,0,0,15.3321,0V200.7793h24.0039a7.66575,7.66575,0,0,0,0-15.3315H171.8575V169.1104H206.419a7.6608,7.6608,0,0,0,5.416-13.083Z" fill="#fff"/><path d="M104.6651,484.4365H62.502a17.64474,17.64474,0,0,1-17.624-17.624V257.9707H23.4288a23.37132,23.37132,0,0,1-2.7325-.168c-.0009.0577-.0088.1124-.0088.168V466.8125A41.86243,41.86243,0,0,0,62.502,508.627h42.1631a12.09525,12.09525,0,1,0,0-24.1905Z" fill="#1d1d1b"/><path d="M104.6622,329.6201H336.8907a12.0952,12.0952,0,1,0,0-24.1904H104.6622a12.0952,12.0952,0,0,0,0,24.1904Z" fill="#1d1d1b"/><path d="M104.6622,383.9033H336.8907a12.0952,12.0952,0,1,0,0-24.1904H104.6622a12.0952,12.0952,0,0,0,0,24.1904Z" fill="#1d1d1b"/><path d="M417.3233,119.7061,301.1622,3.542A12.08868,12.08868,0,0,0,292.6104,0H62.502A41.86168,41.86168,0,0,0,20.6875,41.814v86.4438c0,.0572.0079.1104.0088.1675a23.17734,23.17734,0,0,1,2.7325-.1675H44.878V41.814A17.64442,17.64442,0,0,1,62.502,24.19H280.5118v80.5688a35.63655,35.63655,0,0,0,35.5947,35.5972h80.5703V466.8125a17.645,17.645,0,0,1-17.625,17.624H336.8926a12.09525,12.09525,0,1,0,0,24.1905h42.1592a41.8632,41.8632,0,0,0,41.8154-41.8145V128.2578A12.09445,12.09445,0,0,0,417.3233,119.7061Zm-101.2168-3.5406a11.41745,11.41745,0,0,1-11.4033-11.4067V41.2935l74.8701,74.872Z" fill="#1d1d1b"/></svg>