<svg xmlns="http://www.w3.org/2000/svg" viewBox="0 0 420.9385 569.4448"><path d="M237.0644,441.5376a9.01193,9.01193,0,0,0-8.9843-8.9854H213.7578a9.012,9.012,0,0,0-8.9844,8.9854v29.9497a9.02254,9.02254,0,0,1-8.9844,8.9951l-27.5234.0254c-4.9433.0039-6.6885,3.335-3.8808,7.4014l51.1796,74.1401c2.8077,4.0684,5.2159,7.3955,5.3536,7.3955.1386,0,2.5488-3.3271,5.3554-7.3955l51.1797-74.1401c2.8086-4.0664,1.0625-7.3975-3.8789-7.4014l-27.5244-.0254a9.02346,9.02346,0,0,1-8.9854-8.9951Z" fill="#59aea2"/><path d="M317.9619,234.4697c0,12.9268-12.62944,23.501-28.06754,23.501H28.06754C12.63183,257.9707,0,247.3965,0,234.4697V151.7588c0-12.9248,12.63183-23.4991,28.06754-23.4991H289.89436c15.4381,0,28.06754,10.5743,28.06754,23.4991Z" fill="#59aea2"/><path d="M84.2285,156.0273a7.6655,7.6655,0,0,0-13.082,5.4175v24.0049H44.2519V161.4448a7.6655,7.6655,0,0,0-15.331,0v63.3408a7.6655,7.6655,0,0,0,15.331,0V200.7807H71.1465v24.0049a7.666,7.666,0,0,0,15.332,0V161.4448A7.51251,7.51251,0,0,0,84.2285,156.0273Z" fill="#fff"/><path d="M150.6055,156.0273a7.51176,7.51176,0,0,0-5.4161-2.248H99.4453a7.66575,7.66575,0,0,0,0,15.3315h15.2051v55.6748a7.666,7.666,0,0,0,15.332,0V169.1108h15.207a7.66186,7.66186,0,0,0,5.4161-13.0835Z" fill="#fff"/><path d="M235.0508,156.0273a7.68661,7.68661,0,0,0-12.1778,1.7539l-.0371.0699-24.8711,49.7812-24.8379-49.7114-.0722-.1397a7.68178,7.68178,0,0,0-14.4258,3.6636v63.3408a7.6655,7.6655,0,0,0,15.331,0V193.9223l17.0254,34.0489a7.586,7.586,0,0,0,6.9795,4.478,7.3451,7.3451,0,0,0,6.6856-3.897l17.3183-34.6299v30.8633a7.66505,7.66505,0,0,0,15.3301,0V161.4448A7.52228,7.52228,0,0,0,235.0508,156.0273Z" fill="#fff"/><path d="M104.7383,484.4365H62.5742a17.64347,17.64347,0,0,1-17.625-17.624V257.9707H23.5a23.62668,23.62668,0,0,1-2.7324-.1655c0,.0551-.0088.1084-.0088.1655V466.8125a41.86317,41.86317,0,0,0,41.8154,41.8159h42.1641a12.096,12.096,0,0,0,0-24.1919Z" fill="#1d1d1b"/><path d="M104.7344,329.6201H336.9629a12.0952,12.0952,0,1,0,0-24.1904H104.7344a12.0952,12.0952,0,0,0,0,24.1904Z" fill="#1d1d1b"/><path d="M104.7344,383.9033H336.9629a12.0952,12.0952,0,1,0,0-24.1904H104.7344a12.0952,12.0952,0,0,0,0,24.1904Z" fill="#1d1d1b"/><path d="M417.3965,119.7065,301.2344,3.542A12.096,12.096,0,0,0,292.6816,0H62.5742A41.86275,41.86275,0,0,0,20.7588,41.8154v86.4443c0,.0552.0088.1104.0088.1656a23.60439,23.60439,0,0,1,2.7324-.1656H44.9492V41.8154a17.64508,17.64508,0,0,1,17.625-17.6255H280.584v80.5694a35.63517,35.63517,0,0,0,35.5937,35.5947H396.748V466.8125a17.643,17.643,0,0,1-17.623,17.624H336.9648a12.096,12.096,0,0,0,0,24.1919H379.125a41.86277,41.86277,0,0,0,41.8135-41.8159V128.2597A12.09962,12.09962,0,0,0,417.3965,119.7065ZM316.1777,116.164a11.41613,11.41613,0,0,1-11.4033-11.4047V41.2934l74.8701,74.8706Z" fill="#1d1d1b"/><path d="M300.233,220.82615a7.5224,7.5224,0,0,0-5.418-2.2466H263.774v-55.6748a7.66555,7.66555,0,0,0-15.3311,0v63.3408a7.67192,7.67192,0,0,0,7.6651,7.6636h38.707a7.6615,7.6615,0,0,0,5.418-13.083Z" fill="#fff"/></svg>