<svg xmlns="http://www.w3.org/2000/svg" viewBox="0 0 420.8681 560.1319"><path d="M23.501,128.2578H242.7187a23.499,23.499,0,0,1,23.499,23.499v82.7129a23.501,23.501,0,0,1-23.501,23.501H23.501A23.501,23.501,0,0,1,0,234.4697V151.7588a23.501,23.501,0,0,1,23.501-23.501Z" fill="#ee7c00"/><path d="M236.9941,432.2246a9.011,9.011,0,0,0-8.9844-8.9853H213.6884a9.01324,9.01324,0,0,0-8.9863,8.9853v29.9512a9.01968,9.01968,0,0,1-8.9844,8.9932l-27.5234.0283c-4.9414.0029-6.6885,3.332-3.8809,7.3984l51.1817,74.1426c2.8076,4.0664,5.2158,7.3936,5.3535,7.3936s2.5478-3.3292,5.3545-7.3956l51.1816-74.1406c2.8067-4.0664,1.0596-7.3955-3.8818-7.3984l-27.5235-.0283a9.01987,9.01987,0,0,1-8.9853-8.9932Z" fill="#ee7c00"/><path d="M92.7919,155.5825a7.69962,7.69962,0,0,0-6.9345,4.105l-.0488.0918L63.1308,205.1631,40.4834,159.8325l-.0752-.1411a7.88421,7.88421,0,0,0-14.8067,3.7627v59.3203a7.87015,7.87015,0,0,0,15.7403,0V196.8008l14.6328,29.2637a7.78045,7.78045,0,0,0,7.1562,4.582,7.5628,7.5628,0,0,0,6.8809-4.0322l14.9111-29.8169v25.977a7.86965,7.86965,0,0,0,15.7393,0V163.4541a7.88294,7.88294,0,0,0-7.8702-7.8716Z" fill="#fff"/><path d="M143.6601,155.5825a37.51923,37.51923,0,0,0-26.5303,64.0611,37.48771,37.48771,0,0,0,53.0616,0,37.5318,37.5318,0,0,0-26.5313-64.0611Zm15.4063,52.939a21.78759,21.78759,0,1,1-30.8116-30.813,21.78759,21.78759,0,1,1,30.8116,30.813Z" fill="#fff"/><path d="M238.3095,157.8936a7.7136,7.7136,0,0,0-5.5634-2.3111,7.52743,7.52743,0,0,0-7.2032,4.6475l-.04.0952L209.6767,201.042,193.875,160.3843l-.0645-.1563a7.52811,7.52811,0,0,0-7.2021-4.6455,7.88294,7.88294,0,0,0-7.8702,7.8716,9.13176,9.13176,0,0,0,.7491,3.5791l22.8994,58.583a7.26785,7.26785,0,0,0,1.7754,2.7295,7.60525,7.60525,0,0,0,5.5146,2.3008,7.74761,7.74761,0,0,0,5.585-2.3301,7.44307,7.44307,0,0,0,1.6836-2.6396l22.916-58.627a9.16888,9.16888,0,0,0,.7558-3.5957A7.70806,7.70806,0,0,0,238.3095,157.8936Z" fill="#fff"/><path d="M104.666,484.4365H62.5029a17.64474,17.64474,0,0,1-17.624-17.624V257.9707H23.4306a23.37463,23.37463,0,0,1-2.7334-.168c0,.0577-.0088.1124-.0088.168V466.8125A41.86236,41.86236,0,0,0,62.5029,508.627H104.666a12.09525,12.09525,0,1,0,0-24.1905Z" fill="#1d1d1b"/><path d="M104.664,329.6201H336.8925a12.0952,12.0952,0,0,0,0-24.1904H104.664a12.0952,12.0952,0,0,0,0,24.1904Z" fill="#1d1d1b"/><path d="M104.664,383.9033H336.8925a12.0952,12.0952,0,0,0,0-24.1904H104.664a12.0952,12.0952,0,0,0,0,24.1904Z" fill="#1d1d1b"/><path d="M417.3261,119.7061,301.166,3.542A12.1022,12.1022,0,0,0,292.6113,0H62.5029A41.86161,41.86161,0,0,0,20.6884,41.814v86.4438c0,.0572.0088.1104.0088.1675a23.18076,23.18076,0,0,1,2.7334-.1675H44.8789V41.814A17.64442,17.64442,0,0,1,62.5029,24.19H280.5136v80.5688a35.63664,35.63664,0,0,0,35.5948,35.5972h80.5693V466.8125a17.64461,17.64461,0,0,1-17.6231,17.624H336.8935a12.09525,12.09525,0,0,0,0,24.1905h42.1611a41.86215,41.86215,0,0,0,41.8135-41.8145V128.2578A12.0922,12.0922,0,0,0,417.3261,119.7061Zm-101.2177-3.5406a11.419,11.419,0,0,1-11.4043-11.4067V41.2935l74.8691,74.872Z" fill="#1d1d1b"/></svg>