<svg xmlns="http://www.w3.org/2000/svg" viewBox="0 0 420.8672 560.1319"><path d="M23.501,128.2578H242.7158a23.5,23.5,0,0,1,23.5,23.5v82.7119a23.501,23.501,0,0,1-23.501,23.501H23.4981A23.4981,23.4981,0,0,1,0,234.4726V151.7588a23.501,23.501,0,0,1,23.501-23.501Z" fill="#fcce00"/><path d="M236.9931,432.2246a9.01152,9.01152,0,0,0-8.9843-8.9853H213.6865a9.01161,9.01161,0,0,0-8.9844,8.9853v29.9512a9.02026,9.02026,0,0,1-8.9844,8.9932l-27.5234.0283c-4.9433.0029-6.6885,3.332-3.8808,7.3984l51.1796,74.1426c2.8077,4.0664,5.2159,7.3936,5.3536,7.3936.1386,0,2.5488-3.3292,5.3554-7.3956l51.1797-74.1406c2.8086-4.0664,1.0625-7.3955-3.8789-7.3984l-27.5244-.0283a9.02119,9.02119,0,0,1-8.9854-8.9932Z" fill="#fcce00"/><path d="M111.7568,156.0274a7.68742,7.68742,0,0,0-12.1767,1.7558l-.0391.0659L74.6699,207.6319,49.833,157.919l-.0723-.1397a7.6818,7.6818,0,0,0-14.4258,3.6675v63.3384a7.66605,7.66605,0,0,0,15.3321,0V193.9224l17.0234,34.0483a7.59212,7.59212,0,0,0,6.9795,4.4805,7.35074,7.35074,0,0,0,6.6865-3.8975l17.3164-34.6313v30.8628a7.66606,7.66606,0,0,0,15.3321,0V161.4468A7.51616,7.51616,0,0,0,111.7568,156.0274Z" fill="#fff"/><path d="M166.9101,161.7002a26.14605,26.14605,0,0,0-19.0966-7.9189H133.7392a7.67209,7.67209,0,0,0-7.666,7.6655v63.3384a7.66505,7.66505,0,0,0,15.3301,0V207.8184h6.4102a27.00816,27.00816,0,0,0,19.0966-46.1182Zm-10.8349,27.3613a11.16768,11.16768,0,0,1-8.2617,3.4229h-6.4102v-23.374h6.4102a11.68515,11.68515,0,0,1,8.2617,19.9511Z" fill="#fff"/><path d="M223.4717,189.2637c-.2071-.1983-.4151-.397-.625-.5899a21.71207,21.71207,0,1,0-38.9659-13.1533,7.66555,7.66555,0,0,0,15.3311,0,6.3975,6.3975,0,1,1,6.4101,6.4087,7.6665,7.6665,0,0,0,0,15.333,9.94131,9.94131,0,1,1-9.9287,9.9292,7.6655,7.6655,0,0,0-15.331,0,25.25981,25.25981,0,1,0,43.1094-17.9277Z" fill="#fff"/><path d="M104.667,484.4365H62.5029a17.645,17.645,0,0,1-17.625-17.624V257.9707H23.4287a23.38307,23.38307,0,0,1-2.7324-.168c0,.0577-.0088.1124-.0088.168V466.8125A41.8632,41.8632,0,0,0,62.5029,508.627H104.667a12.09525,12.09525,0,0,0,0-24.1905Z" fill="#1d1d1b"/><path d="M104.6631,329.6201H336.8916a12.0952,12.0952,0,1,0,0-24.1904H104.6631a12.0952,12.0952,0,0,0,0,24.1904Z" fill="#1d1d1b"/><path d="M104.6631,383.9033H336.8916a12.0952,12.0952,0,1,0,0-24.1904H104.6631a12.0952,12.0952,0,0,0,0,24.1904Z" fill="#1d1d1b"/><path d="M417.3252,119.7061,301.1631,3.542A12.09431,12.09431,0,0,0,292.6103,0H62.5029A41.86245,41.86245,0,0,0,20.6875,41.814v86.4438c0,.0572.0088.1104.0088.1675a23.18885,23.18885,0,0,1,2.7324-.1675H44.8779V41.814A17.6447,17.6447,0,0,1,62.5029,24.19H280.5127v80.5688a35.637,35.637,0,0,0,35.5937,35.5972h80.5703V466.8125a17.64453,17.64453,0,0,1-17.623,17.624H336.8935a12.09525,12.09525,0,1,0,0,24.1905h42.1602a41.86279,41.86279,0,0,0,41.8135-41.8145V128.2578A12.09683,12.09683,0,0,0,417.3252,119.7061Zm-101.2188-3.5406a11.41874,11.41874,0,0,1-11.4033-11.4067V41.2935l74.8701,74.872Z" fill="#1d1d1b"/></svg>