<svg xmlns="http://www.w3.org/2000/svg" viewBox="0 0 420.82319 560.1416"><path d="M23.499,128.2695H242.71579a23.499,23.499,0,0,1,23.499,23.499v82.7129a23.4991,23.4991,0,0,1-23.4991,23.4991H23.4991A23.4991,23.4991,0,0,1,0,234.4814V151.7685a23.499,23.499,0,0,1,23.499-23.499Z" fill="#e21725"/><path d="M109.8174,157.0283a7.57984,7.57984,0,0,0-12.0127,1.7315l-.0391.0664-24.043,48.125L49.7129,158.8975l-.0723-.1397a7.5787,7.5787,0,0,0-14.2334,3.6162v61.5a7.56445,7.56445,0,0,0,15.1289,0V194.419l16.3018,32.6045a7.49073,7.49073,0,0,0,6.8847,4.416,7.25039,7.25039,0,0,0,6.5977-3.8467l.0313-.0566L96.9111,194.417v29.457a7.563,7.563,0,0,0,15.126,0v-61.5A7.405,7.405,0,0,0,109.8174,157.0283Z" fill="#fff"/><path d="M164.8769,162.5371a25.49221,25.49221,0,0,0-18.6279-7.7275H132.583a7.57188,7.57188,0,0,0-7.5654,7.5644v61.5a7.56445,7.56445,0,0,0,15.1289,0V207.5205h6.1025a26.34313,26.34313,0,0,0,18.6279-44.9834Zm-10.6904,26.5655a10.72186,10.72186,0,0,1-7.9375,3.291h-6.1025V169.9365h6.1025a11.22469,11.22469,0,0,1,7.9375,19.1661Z" fill="#fff"/><path d="M228.58789,201.4434a7.41814,7.41814,0,0,0-5.34379-2.2149h-2.68551V162.374a7.577,7.577,0,0,0-7.56449-7.5644,7.2396,7.2396,0,0,0-6.20311,3.2207L174.708,202.375a7.5617,7.5617,0,0,0-1.4121,4.416,7.57531,7.57531,0,0,0,7.5644,7.5645h25.2608v8.2871c0,11.7891,14.43749,11.6035,14.43749,0v-8.2871h2.68551a7.56067,7.56067,0,0,0,5.34379-12.9121ZM206.1211,183.1338v16.0947H193.9238Z" fill="#fff"/><path d="M236.99219,432.2344a9.00911,9.00911,0,0,0-8.9844-8.9854h-14.3213a9.00975,9.00975,0,0,0-8.98439,8.9854v29.9521a9.02213,9.02213,0,0,1-8.9843,8.9932l-27.5244.0234c-4.9415.0059-6.6885,3.336-3.8809,7.4043l51.17969,74.1407c2.8076,4.0664,5.2178,7.3935,5.3554,7.3935.1368,0,2.5479-3.3271,5.35451-7.3955l51.18069-74.1387c2.8066-4.0683,1.0606-7.3984-3.8809-7.4043l-27.5234-.0234a9.02319,9.02319,0,0,1-8.9863-8.9932Z" fill="#e21725"/><path d="M104.623,484.4404H62.46a17.64388,17.64388,0,0,1-17.625-17.625V257.9727H23.3867a23.61366,23.61366,0,0,1-2.7344-.1651c0,.0547-.0078.1084-.0078.1651V466.8154A41.86407,41.86407,0,0,0,62.46,508.6309h42.163a12.09525,12.09525,0,0,0,0-24.1905Z" fill="#1d1d1b"/><path d="M104.6191,329.6231H336.84759a12.0962,12.0962,0,1,0,0-24.1924H104.6191a12.0962,12.0962,0,0,0,0,24.1924Z" fill="#1d1d1b"/><path d="M104.6191,383.9063H336.84759a12.09525,12.09525,0,1,0,0-24.1905H104.6191a12.09525,12.09525,0,0,0,0,24.1905Z" fill="#1d1d1b"/><path d="M417.28219,119.709,301.1211,3.5449A12.10114,12.10114,0,0,0,292.56739,0H62.46A41.86491,41.86491,0,0,0,20.6445,41.8164v86.4463c0,.0547.0078.1084.0078.1631a23.61515,23.61515,0,0,1,2.7344-.1631H44.835V41.8164A17.64544,17.64544,0,0,1,62.46,24.1904H280.46869v80.5733a35.63429,35.63429,0,0,0,35.5957,35.5928h80.5684V466.8154a17.6441,17.6441,0,0,1-17.623,17.625h-42.1602a12.09525,12.09525,0,1,0,0,24.1905h42.1602a41.863,41.863,0,0,0,41.8134-41.8155V128.2608A12.095,12.095,0,0,0,417.28219,119.709Zm-101.2178-3.543a11.41589,11.41589,0,0,1-11.40429-11.4023V41.294l74.86919,74.872Z" fill="#1d1d1b"/></svg>