<svg xmlns="http://www.w3.org/2000/svg" viewBox="0 0 420.8692 560.1319"><path d="M23.501,128.2578H242.71778a23.5,23.5,0,0,1,23.5,23.5v82.7119a23.501,23.501,0,0,1-23.501,23.501H23.499A23.499,23.499,0,0,1,0,234.4717V151.7588a23.501,23.501,0,0,1,23.501-23.501Z" fill="#e21725"/><path d="M236.99318,432.2246a9.01182,9.01182,0,0,0-8.9854-8.9853h-14.3213a9.01152,9.01152,0,0,0-8.9843,8.9853v29.9512a9.02054,9.02054,0,0,1-8.9854,8.9932l-27.5244.0283c-4.94138.0029-6.6875,3.332-3.8799,7.3984l51.1817,74.1426c2.8066,4.0664,5.21682,7.3936,5.3545,7.3936.1367,0,2.5459-3.3292,5.3535-7.3956l51.1806-74.1386c2.8067-4.0684,1.0596-7.3975-3.88078-7.4004l-27.52352-.0283a9.01987,9.01987,0,0,1-8.9853-8.9932Z" fill="#e21725"/><path d="M99.74708,232.4512a7.682,7.682,0,0,1-7.667-7.666V193.9224l-17.3174,34.6313a7.34812,7.34812,0,0,1-6.6855,3.8975,7.58763,7.58763,0,0,1-6.9785-4.4805l-17.0264-34.0483v30.8628a7.66455,7.66455,0,0,1-15.3291,0V161.4468A7.68251,7.68251,0,0,1,43.167,157.7793l.07328.1397,24.8369,49.7129,24.872-49.7828.0372-.0659a7.68142,7.68142,0,0,1,14.4267,3.6636v63.3384a7.682,7.682,0,0,1-7.666,7.666Z" fill="#fff"/><path d="M124.18948,232.4512a7.68049,7.68049,0,0,1-7.667-7.666V161.4468a7.67363,7.67363,0,0,1,7.667-7.6655h14.0752a27.01856,27.01856,0,0,1,0,54.0371h-6.4102v16.9668a7.67534,7.67534,0,0,1-7.665,7.666Zm14.0752-39.9668a11.687,11.687,0,0,0,0-23.374h-6.4102v23.374Z" fill="#fff"/><path d="M209.92778,232.4512a39.327,39.327,0,0,1-27.8067-67.1441,38.06251,38.06251,0,0,1,27.8067-11.5258,38.51,38.51,0,0,1,25.0195,8.9892l.1914.1563.1709.1801a7.62458,7.62458,0,0,1,2.165,5.377,7.66081,7.66081,0,0,1-12.9121,5.5825,22.65186,22.65186,0,0,0-14.6347-4.956A24.00089,24.00089,0,0,0,192.958,210.086a24.19883,24.19883,0,0,0,28.92088,3.9238v-9.71H212.128a7.666,7.666,0,0,1,0-15.332h17.46188a7.58681,7.58681,0,0,1,5.333,2.1641l.125.125a7.63565,7.63565,0,0,1,2.164,5.375v21.3779a7.46607,7.46607,0,0,1-2.2265,5.3945l-.1641.1641-.1816.1474A38.7445,38.7445,0,0,1,209.92778,232.4512Z" fill="#fff"/><path d="M104.666,484.4365H62.503a17.64494,17.64494,0,0,1-17.625-17.624V257.9707H23.42968a23.41368,23.41368,0,0,1-2.7334-.168c-.0019.0577-.0078.1124-.0078.168V466.8125A41.86237,41.86237,0,0,0,62.503,508.627h42.163a12.09525,12.09525,0,1,0,0-24.1905Z" fill="#1d1d1b"/><path d="M104.66408,329.6201H336.8926a12.0952,12.0952,0,0,0,0-24.1904H104.66408a12.0952,12.0952,0,1,0,0,24.1904Z" fill="#1d1d1b"/><path d="M104.66408,383.9033H336.8926a12.0952,12.0952,0,0,0,0-24.1904H104.66408a12.0952,12.0952,0,1,0,0,24.1904Z" fill="#1d1d1b"/><path d="M417.3242,119.7061,301.16408,3.542A12.09814,12.09814,0,0,0,292.61038,0H62.503A41.86162,41.86162,0,0,0,20.68848,41.814v86.4438c0,.0572.0059.1104.0078.1675a23.21906,23.21906,0,0,1,2.7334-.1675H44.878V41.814A17.64462,17.64462,0,0,1,62.503,24.19H280.51268v80.5688a35.63662,35.63662,0,0,0,35.5947,35.5972H396.6768V466.8125a17.6448,17.6448,0,0,1-17.624,17.624H336.8936a12.09525,12.09525,0,0,0,0,24.1905h42.1592a41.86341,41.86341,0,0,0,41.8164-41.8145V128.2578A12.09089,12.09089,0,0,0,417.3242,119.7061Zm-101.21682-3.5406a11.419,11.419,0,0,1-11.4043-11.4067V41.2935l74.87022,74.872Z" fill="#1d1d1b"/></svg>