<svg xmlns="http://www.w3.org/2000/svg" viewBox="0 0 420.9365 569.4448"><path d="M236.9932,441.5376a9.01223,9.01223,0,0,0-8.9854-8.9854H213.6865a9.012,9.012,0,0,0-8.9844,8.9854v29.9497a9.02338,9.02338,0,0,1-8.9853,8.9951l-27.5225.0254c-4.9433.0039-6.6884,3.335-3.8818,7.4014l51.1816,74.1401c2.8086,4.0684,5.2178,7.3955,5.3545,7.3955.1377,0,2.5469-3.3271,5.3545-7.3955l51.1797-74.1387c2.80665-4.0678,1.0606-7.3989-3.8809-7.4028l-27.5234-.0254a9.02273,9.02273,0,0,1-8.9853-8.9951Z" fill="#e21725"/><path d="M23.501,128.2597H242.7178a23.499,23.499,0,0,1,23.499,23.499v82.7129a23.4991,23.4991,0,0,1-23.4991,23.4991H23.499A23.499,23.499,0,0,1,0,234.4717v-82.711a23.501,23.501,0,0,1,23.501-23.501Z" fill="#e21725"/><path d="M45.7207,232.4492a7.67192,7.67192,0,0,1-7.666-7.6636V161.4448a7.67689,7.67689,0,0,1,7.666-7.6655H59.7959a27.01931,27.01931,0,0,1,0,54.0386H53.3857v16.9677a7.67518,7.67518,0,0,1-7.665,7.6636Zm14.0752-39.9629a11.68775,11.68775,0,0,0,0-23.3755H53.3857v23.3755Z" fill="#fff"/><path d="M106.0508,232.4492a7.67346,7.67346,0,0,1-7.666-7.6636V161.4448a7.67689,7.67689,0,0,1,7.666-7.6655H120.126a39.3249,39.3249,0,0,1,27.8066,67.1421,38.05509,38.05509,0,0,1-27.8066,11.5278Zm14.0752-15.3296a24.003,24.003,0,0,0,16.9717-40.9775,22.939,22.939,0,0,0-16.9717-7.0313h-6.4092v48.0088Z" fill="#fff"/><path d="M176.8896,232.4492c-2.0761,0-2.5664-.7754-4.0361-2.248a7.51076,7.51076,0,0,1-2.249-5.4156V161.4448a7.6786,7.6786,0,0,1,7.666-7.6655h42.2256a7.66575,7.66575,0,0,1,0,15.3315H185.9375v16.3389h24.0029a7.6655,7.6655,0,0,1,0,15.331H185.9375v24.0049a7.51423,7.51423,0,0,1-2.2471,5.4156C182.2178,231.6738,178.9629,232.4492,176.8896,232.4492Z" fill="#fff"/><path d="M104.7344,329.6201H336.9619a12.0952,12.0952,0,1,0,0-24.1904H104.7344a12.0952,12.0952,0,1,0,0,24.1904Z" fill="#1d1d1b"/><path d="M104.7344,383.9033H336.9619a12.0952,12.0952,0,1,0,0-24.1904H104.7344a12.0952,12.0952,0,1,0,0,24.1904Z" fill="#1d1d1b"/><path d="M417.3955,119.7065,301.2334,3.542A12.09821,12.09821,0,0,0,292.67968,0H62.5723A41.86191,41.86191,0,0,0,20.7578,41.8154v86.4443c0,.0552.0078.1104.0078.1656a23.63659,23.63659,0,0,1,2.7334-.1656H44.9482V41.8154A17.64489,17.64489,0,0,1,62.5723,24.1899H280.583v80.5694a35.63479,35.63479,0,0,0,35.5947,35.5947h80.5694V466.8125a17.64328,17.64328,0,0,1-17.6241,17.624H336.9629a12.096,12.096,0,0,0,0,24.1919H379.123a41.86213,41.86213,0,0,0,41.8135-41.8159V128.2597A12.09823,12.09823,0,0,0,417.3955,119.7065ZM316.1777,116.164a11.41634,11.41634,0,0,1-11.4043-11.4047V41.2934l74.8692,74.8706Z" fill="#1d1d1b"/><path d="M104.7363,484.4365H62.5723a17.64328,17.64328,0,0,1-17.6241-17.624V257.9707H23.499a23.65891,23.65891,0,0,1-2.7334-.1655c0,.0551-.0078.1084-.0078.1655V466.8125a41.86234,41.86234,0,0,0,41.8145,41.8159h42.164a12.096,12.096,0,0,0,0-24.1919Z" fill="#1d1d1b"/></svg>