<svg xmlns="http://www.w3.org/2000/svg" viewBox="0 0 420.8692 560.1319"><path d="M23.501,128.2578H242.71778a23.5,23.5,0,0,1,23.5,23.5v82.7119a23.501,23.501,0,0,1-23.501,23.501H23.499A23.499,23.499,0,0,1,0,234.4717V151.7588a23.501,23.501,0,0,1,23.501-23.501Z" fill="#e21725"/><path d="M236.99318,432.2246a9.01182,9.01182,0,0,0-8.9854-8.9853h-14.3213a9.01152,9.01152,0,0,0-8.9843,8.9853v29.9512a9.02054,9.02054,0,0,1-8.9854,8.9932l-27.5244.0283c-4.94138.0029-6.6875,3.332-3.8799,7.3984l51.1817,74.1426c2.8066,4.0664,5.21682,7.3936,5.3545,7.3936.1367,0,2.5459-3.3292,5.3535-7.3956l51.1806-74.1386c2.8067-4.0684,1.0596-7.3975-3.88078-7.4004l-27.52352-.0283a9.01987,9.01987,0,0,1-8.9853-8.9932Z" fill="#e21725"/><path d="M47.18948,231.4512a7.68049,7.68049,0,0,1-7.667-7.666V160.4468a7.67363,7.67363,0,0,1,7.667-7.6655h14.0752a27.01856,27.01856,0,0,1,0,54.0371h-6.4102v16.9668a7.67534,7.67534,0,0,1-7.665,7.666Zm14.0752-39.9668a11.687,11.687,0,0,0,0-23.374h-6.4102v23.374Z" fill="#fff"/><path d="M104.666,484.4365H62.503a17.64494,17.64494,0,0,1-17.625-17.624V257.9707H23.42968a23.41368,23.41368,0,0,1-2.7334-.168c-.0019.0577-.0078.1124-.0078.168V466.8125A41.86237,41.86237,0,0,0,62.503,508.627h42.163a12.09525,12.09525,0,1,0,0-24.1905Z" fill="#1d1d1b"/><path d="M104.66408,329.6201H336.8926a12.0952,12.0952,0,0,0,0-24.1904H104.66408a12.0952,12.0952,0,1,0,0,24.1904Z" fill="#1d1d1b"/><path d="M104.66408,383.9033H336.8926a12.0952,12.0952,0,0,0,0-24.1904H104.66408a12.0952,12.0952,0,1,0,0,24.1904Z" fill="#1d1d1b"/><path d="M417.3242,119.7061,301.16408,3.542A12.09814,12.09814,0,0,0,292.61038,0H62.503A41.86162,41.86162,0,0,0,20.68848,41.814v86.4438c0,.0572.0059.1104.0078.1675a23.21906,23.21906,0,0,1,2.7334-.1675H44.878V41.814A17.64462,17.64462,0,0,1,62.503,24.19H280.51268v80.5688a35.63662,35.63662,0,0,0,35.5947,35.5972H396.6768V466.8125a17.6448,17.6448,0,0,1-17.624,17.624H336.8936a12.09525,12.09525,0,0,0,0,24.1905h42.1592a41.86341,41.86341,0,0,0,41.8164-41.8145V128.2578A12.09089,12.09089,0,0,0,417.3242,119.7061Zm-101.21682-3.5406a11.419,11.419,0,0,1-11.4043-11.4067V41.2935l74.87022,74.872Z" fill="#1d1d1b"/><path d="M169.2881,235.74805a7.68049,7.68049,0,0,1-7.667-7.666v-63.3384a7.67363,7.67363,0,0,1,7.667-7.6655h14.0752a27.01856,27.01856,0,0,1,0,54.0371h-6.4102v16.9668a7.67534,7.67534,0,0,1-7.665,7.666Zm14.0752-39.9668a11.687,11.687,0,0,0,0-23.374h-6.4102v23.374Z" fill="#fff"/><path d="M150.5298,158.32615a7.6655,7.6655,0,0,0-13.082,5.4175v24.0049H110.5532v-24.0049a7.6655,7.6655,0,0,0-15.331,0v63.3408a7.6655,7.6655,0,0,0,15.331,0v-24.0049h26.8946v24.0049a7.666,7.666,0,0,0,15.332,0v-63.3408A7.51251,7.51251,0,0,0,150.5298,158.32615Z" fill="#fff"/></svg>