<svg xmlns="http://www.w3.org/2000/svg" viewBox="0 0 420.93852 569.4448"><path d="M237.06249,441.5376a9.01223,9.01223,0,0,0-8.9854-8.9854h-14.3213a9.01193,9.01193,0,0,0-8.9843,8.9854v29.9497a9.02281,9.02281,0,0,1-8.98539,8.9951l-27.5244.0254c-4.94138.0039-6.6875,3.335-3.8809,7.4014l51.18269,74.1401c2.8066,4.0684,5.21683,7.3955,5.3545,7.3955.1367,0,2.5459-3.3271,5.3535-7.3955l51.1806-74.1401c2.8067-4.0664,1.0596-7.3975-3.88077-7.4014l-27.52353-.0254a9.02215,9.02215,0,0,1-8.9853-8.9951Z" fill="#23a5db"/><path d="M104.73532,484.4365h-42.163a17.6434,17.6434,0,0,1-17.625-17.624V257.9707H23.499a23.65756,23.65756,0,0,1-2.7334-.1655c-.0019.0551-.0078.1084-.0078.1655V466.8125a41.86234,41.86234,0,0,0,41.81452,41.8159h42.163a12.096,12.096,0,1,0,0-24.1919Z" fill="#1d1d1b"/><path d="M104.7334,329.6201H336.96192a12.0952,12.0952,0,0,0,0-24.1904H104.7334a12.0952,12.0952,0,1,0,0,24.1904Z" fill="#1d1d1b"/><path d="M104.7334,383.9033H336.96192a12.0952,12.0952,0,0,0,0-24.1904H104.7334a12.0952,12.0952,0,1,0,0,24.1904Z" fill="#1d1d1b"/><path d="M417.39352,119.7065,301.23339,3.542A12.09982,12.09982,0,0,0,292.67969,0H62.57232A41.86192,41.86192,0,0,0,20.7578,41.8154v86.4443c0,.0552.0059.1104.0078.1656a23.63523,23.63523,0,0,1,2.7334-.1656H44.94732V41.8154a17.645,17.645,0,0,1,17.625-17.6255H280.582v80.5694a35.6348,35.6348,0,0,0,35.5947,35.5947h80.56943V466.8125a17.64326,17.64326,0,0,1-17.624,17.624h-42.1592a12.096,12.096,0,0,0,0,24.1919h42.1592a41.86339,41.86339,0,0,0,41.8164-41.8159V128.2597A12.09367,12.09367,0,0,0,417.39352,119.7065ZM316.17669,116.164a11.4164,11.4164,0,0,1-11.4043-11.4047V41.2934l74.87023,74.8706Z" fill="#1d1d1b"/><path d="M23.501,128.2597H242.71679a23.499,23.499,0,0,1,23.499,23.499v82.7129a23.4991,23.4991,0,0,1-23.4991,23.4991H23.498A23.498,23.498,0,0,1,0,234.4727v-82.712a23.501,23.501,0,0,1,23.501-23.501Z" fill="#23a5db"/><path d="M50.4004,234.3262a8.042,8.042,0,0,1-8.0322-8.0313V159.9341a8.04289,8.04289,0,0,1,8.0322-8.0318h14.747a28.295,28.295,0,0,1,20.00692,48.3159A27.38129,27.38129,0,0,1,65.1474,208.52H58.4316v17.7749a8.03963,8.03963,0,0,1-8.0312,8.0313Zm14.747-41.8711a12.2449,12.2449,0,0,0,0-24.4898H58.4316v24.4898Z" fill="#fff"/><path d="M112.5557,234.3262a8.04221,8.04221,0,0,1-8.0303-8.0313V159.9341a8.04461,8.04461,0,0,1,8.0303-8.0318h14.749a28.29565,28.29565,0,0,1,20.0078,48.3159,27.38177,27.38177,0,0,1-20.0078,8.3018h-6.7158v17.7749a8.03963,8.03963,0,0,1-8.0332,8.0313Zm14.749-41.8711a12.2449,12.2449,0,0,0,0-24.4898h-6.7158v24.4898Z" fill="#fff"/><path d="M191.8545,234.3262a8.03874,8.03874,0,0,1-8.03218-8.0313V167.9653H167.8887a8.0315,8.0315,0,0,1,0-16.063h47.92669a8.0315,8.0315,0,0,1,0,16.063h-15.9316v58.3296a8.03893,8.03893,0,0,1-8.02929,8.0313Z" fill="#fff"/></svg>