<svg xmlns="http://www.w3.org/2000/svg" viewBox="0 0 420.8955 560.1416"><path d="M23.499,128.2695H242.7178a23.5,23.5,0,0,1,23.5,23.5v82.7119a23.4991,23.4991,0,0,1-23.4991,23.4991H23.5a23.5,23.5,0,0,1-23.5-23.5v-82.712a23.499,23.499,0,0,1,23.499-23.499Z" fill="#d20c63"/><path d="M79.7265,199.5479a26.31064,26.31064,0,0,0,3.1788-2.7168,24.648,24.648,0,0,0-17.4532-42.0606H48.3691a7.57874,7.57874,0,0,0-7.5654,7.5645v61.5049a7.565,7.565,0,0,0,15.1299,0V204.0684h8.7422L79.5,227.7842a7.58343,7.58343,0,0,0,6.4521,3.6182,7.57365,7.57365,0,0,0,6.3457-11.6954Zm-7.5322-13.3858a8.99406,8.99406,0,0,1-6.7422,2.7793H55.9336v-19.041h9.5185a9.53422,9.53422,0,0,1,6.7422,16.2617Z" fill="#fff"/><path d="M224.1914,219.707l-12.5713-20.1591a26.24929,26.24929,0,0,0,3.1797-2.7168,24.64846,24.64846,0,0,0-17.4522-42.0606H180.2617a7.577,7.577,0,0,0-7.5625,7.5645v61.5049a7.564,7.564,0,0,0,15.1279,0V204.0684h8.7422l14.8252,23.7158a7.58442,7.58442,0,0,0,6.4512,3.6182,7.57258,7.57258,0,0,0,6.3457-11.6954Zm-20.1035-33.5449a8.98976,8.98976,0,0,1-6.7403,2.7793h-9.5205v-19.041h9.5205a9.53351,9.53351,0,0,1,6.7403,16.2617Z" fill="#fff"/><path d="M139.3291,159.6162a7.10671,7.10671,0,0,0-1.6133-2.5312,7.44527,7.44527,0,0,0-5.3672-2.2393,7.291,7.291,0,0,0-5.291,2.2061,6.94426,6.94426,0,0,0-1.709,2.622L101.6035,220.416a8.939,8.939,0,0,0-.7363,3.4952,7.57531,7.57531,0,0,0,7.5654,7.5644,7.2333,7.2333,0,0,0,6.9189-4.4561l.0635-.1523,3.169-8.1543,27.5322.0049,3.1973,8.2246.0312.0732a7.22953,7.22953,0,0,0,6.9219,4.46,7.5736,7.5736,0,0,0,7.5635-7.5644,8.93416,8.93416,0,0,0-.7344-3.4932Zm-15.0313,44.3936,8.0508-20.7119,8.0518,20.7119Z" fill="#fff"/><path d="M236.9512,432.2344a9.0104,9.0104,0,0,0-8.9844-8.9854H213.6445a9.00955,9.00955,0,0,0-8.9834,8.9854v29.9521a9.023,9.023,0,0,1-8.9853,8.9932l-27.5245.0234c-4.9414.0059-6.6865,3.336-3.8808,7.4043l51.1826,74.1407c2.8066,4.0683,5.2158,7.3935,5.3535,7.3935.1387,0,2.5479-3.3291,5.3555-7.3955l51.1787-74.1387c2.8086-4.0683,1.0615-7.3984-3.8809-7.4043l-27.5234-.0234a9.023,9.023,0,0,1-8.9853-8.9932Z" fill="#d20c63"/><path d="M104.6914,329.6231H336.9199a12.0962,12.0962,0,0,0,0-24.1924H104.6914a12.0962,12.0962,0,0,0,0,24.1924Z" fill="#1d1d1b"/><path d="M104.6914,383.9063H336.9199a12.09525,12.09525,0,1,0,0-24.1905H104.6914a12.09525,12.09525,0,0,0,0,24.1905Z" fill="#1d1d1b"/><path d="M417.3545,119.709,301.1924,3.5449A12.10058,12.10058,0,0,0,292.63963,0H62.5322A41.8651,41.8651,0,0,0,20.7158,41.8164v86.4463c0,.0547.0088.1084.0088.1631a23.59785,23.59785,0,0,1,2.7334-.1631H44.9072V41.8164a17.64615,17.64615,0,0,1,17.625-17.626H280.541v80.5733a35.6347,35.6347,0,0,0,35.5947,35.5928h80.5694V466.8154a17.64418,17.64418,0,0,1-17.6231,17.625H336.9209a12.09525,12.09525,0,0,0,0,24.1905H379.082a41.863,41.863,0,0,0,41.8135-41.8155V128.2608A12.095,12.095,0,0,0,417.3545,119.709Zm-101.2188-3.543a11.4159,11.4159,0,0,1-11.4043-11.4023V41.294l74.8701,74.872Z" fill="#1d1d1b"/><path d="M104.6953,484.4404H62.5322a17.64459,17.64459,0,0,1-17.625-17.625V257.9727H23.458a23.59636,23.59636,0,0,1-2.7334-.1651c0,.0547-.0088.1084-.0088.1651V466.8154a41.86426,41.86426,0,0,0,41.8164,41.8155h42.1631a12.09525,12.09525,0,0,0,0-24.1905Z" fill="#1d1d1b"/></svg>