<svg xmlns="http://www.w3.org/2000/svg" viewBox="0 0 421.209 569.4448"><path d="M237.3633,441.5376a9.012,9.012,0,0,0-8.9844-8.9854H214.0567a9.012,9.012,0,0,0-8.9844,8.9854v29.9497a9.02282,9.02282,0,0,1-8.9854,8.9951l-27.5234.0254c-4.9404.0039-6.6875,3.335-3.8799,7.4014l51.1807,74.1401c2.8076,4.0684,5.2158,7.3955,5.3545,7.3955.1367,0,2.5468-3.3271,5.3535-7.3955l51.1816-74.1401c2.8067-4.0664,1.0606-7.3975-3.8808-7.4014l-27.5235-.0254a9.02359,9.02359,0,0,1-8.9863-8.9951Z" fill="#ee7c00"/><path d="M23.501,128.2597H242.7178a23.5,23.5,0,0,1,23.5,23.5v82.7119a23.4991,23.4991,0,0,1-23.4991,23.4991H23.499A23.499,23.499,0,0,1,0,234.4717v-82.711A23.501,23.501,0,0,1,23.501,128.2597Z" fill="#ee7c00"/><path d="M234.1348,157.0185A7.54929,7.54929,0,0,0,223.4649,157a7.69944,7.69944,0,0,0-1.8028,2.7573l-.0654.1694-9.8896,35.6573-9.8907-35.6573-.0664-.1694a8.0186,8.0186,0,0,0-1.6504-2.645l-.084-.0923-.0898-.0864a7.54268,7.54268,0,0,0-5.3047-2.1323,7.37166,7.37166,0,0,0-5.2724,2.1469,6.806,6.806,0,0,0-1.9678,3.1548l-9.8428,35.481-9.8896-35.6573-.0645-.1694a8.04243,8.04243,0,0,0-1.6523-2.645l-.085-.0903-.0889-.0845a7.52788,7.52788,0,0,0-5.3027-2.1362,7.57188,7.57188,0,0,0-7.5645,7.5649,8.83806,8.83806,0,0,0,.4307,2.689l16.7774,60.5703a8.22875,8.22875,0,0,0,2.0849,3.5332,7.29188,7.29188,0,0,0,5.3545,2.2724,7.44768,7.44768,0,0,0,5.3662-2.2412l.086-.0844a8.88752,8.88752,0,0,0,1.998-3.4156l.0264-.0791,9.6133-34.7915,9.6367,34.8028a8.28326,8.28326,0,0,0,2.0879,3.5405,7.30117,7.30117,0,0,0,5.3545,2.2685,7.45759,7.45759,0,0,0,5.3691-2.2412l.0791-.0844a8.85375,8.85375,0,0,0,2.0029-3.4175l.0254-.0791,16.7393-60.5552a8.84175,8.84175,0,0,0,.4316-2.6875A7.4184,7.4184,0,0,0,234.1348,157.0185Z" fill="#fff"/><path d="M68.7871,199.5766a26.28828,26.28828,0,0,0,3.1797-2.7168,24.64816,24.64816,0,0,0-17.4531-42.0605H37.4297a7.57532,7.57532,0,0,0-7.5644,7.563v61.5058a7.564,7.564,0,0,0,15.1279,0V204.0952h8.7431L68.5606,227.813a7.58373,7.58373,0,0,0,6.4531,3.6181,7.57476,7.57476,0,0,0,6.3447-11.6953Zm-7.5322-13.3862a8.98872,8.98872,0,0,1-6.7412,2.7774H44.9932V169.9267h9.5205a9.53493,9.53493,0,0,1,6.7412,16.2637Z" fill="#fff"/><path d="M128.3897,159.5737a7.10276,7.10276,0,0,0-1.6133-2.5351,7.4513,7.4513,0,0,0-5.3672-2.2393,7.29282,7.29282,0,0,0-5.29,2.2061,6.98683,6.98683,0,0,0-1.711,2.6215L90.666,220.3701a8.91628,8.91628,0,0,0-.7373,3.498,7.57377,7.57377,0,0,0,7.5645,7.563,7.23134,7.23134,0,0,0,6.9189-4.456l.0645-.1548,3.168-8.1528,27.5332.0039,3.1962,8.2246.0323.0752a7.23018,7.23018,0,0,0,6.9218,4.4599,7.57275,7.57275,0,0,0,7.5625-7.563,8.914,8.914,0,0,0-.7343-3.4946Zm-15.0313,44.3911,8.0508-20.7138,8.0527,20.7138Z" fill="#fff"/><path d="M105.0078,484.4365H62.8447a17.64326,17.64326,0,0,1-17.624-17.624V257.9707H23.7715a23.64535,23.64535,0,0,1-2.7334-.1655c0,.0551-.0068.1084-.0068.1655V466.8125a41.86211,41.86211,0,0,0,41.8134,41.8159h42.1631a12.096,12.096,0,0,0,0-24.1919Z" fill="#1d1d1b"/><path d="M105.0059,329.6201H337.2334a12.0952,12.0952,0,1,0,0-24.1904H105.0059a12.0952,12.0952,0,1,0,0,24.1904Z" fill="#1d1d1b"/><path d="M105.0059,383.9033H337.2334a12.0952,12.0952,0,1,0,0-24.1904H105.0059a12.0952,12.0952,0,1,0,0,24.1904Z" fill="#1d1d1b"/><path d="M417.668,119.7065,301.5059,3.542A12.1,12.1,0,0,0,292.9522,0H62.8447A41.86168,41.86168,0,0,0,21.0313,41.8154v86.4443c0,.0552.0068.1104.0068.1656a23.623,23.623,0,0,1,2.7334-.1656H45.2207V41.8154a17.64487,17.64487,0,0,1,17.624-17.6255H280.8545v80.5694a35.6348,35.6348,0,0,0,35.5947,35.5947h80.5704V466.8125a17.64476,17.64476,0,0,1-17.625,17.624H337.2354a12.096,12.096,0,1,0,0,24.1919h42.1592a41.86232,41.86232,0,0,0,41.8144-41.8159V128.2597A12.09823,12.09823,0,0,0,417.668,119.7065ZM316.4492,116.164a11.417,11.417,0,0,1-11.4043-11.4047V41.2934l74.8702,74.8706Z" fill="#1d1d1b"/></svg>