<svg xmlns="http://www.w3.org/2000/svg" viewBox="0 0 420.9375 569.4448"><path d="M237.0625,441.5376a9.01214,9.01214,0,0,0-8.9853-8.9854H213.7559a9.01223,9.01223,0,0,0-8.9854,8.9854v29.9497a9.02252,9.02252,0,0,1-8.9843,8.9951l-27.5225.0254c-4.9434.0039-6.6895,3.335-3.8818,7.4014l51.1806,74.1401c2.8076,4.0684,5.2188,7.3955,5.3555,7.3955.1377,0,2.5479-3.3271,5.3545-7.3955l51.1787-74.1401c2.8076-4.0664,1.0625-7.3975-3.8809-7.4014l-27.5224-.0254a9.02346,9.02346,0,0,1-8.9854-8.9951Z" fill="#9dc329"/><path d="M23.501,128.2597H242.7177a23.4991,23.4991,0,0,1,23.4991,23.4991v82.7128a23.4991,23.4991,0,0,1-23.4991,23.4991H23.5a23.5,23.5,0,0,1-23.5-23.5v-82.71A23.501,23.501,0,0,1,23.501,128.2597Z" fill="#9dc329"/><path d="M158.0957,233.019a7.5863,7.5863,0,0,1-5.9746-2.7885l-19.0127-24.4219-19.0156,24.4258a7.78452,7.78452,0,0,1-13.749-4.9932,7.78,7.78,0,0,1,1.6377-4.8032l21.247-27.3228-21.4384-27.5747-.0606-.0845a7.74,7.74,0,0,1-1.3857-4.4687,7.78614,7.78614,0,0,1,7.7773-7.7744,7.837,7.837,0,0,1,6.1914,3.0478l18.7959,24.1592,18.795-24.1592a7.83356,7.83356,0,0,1,6.1923-3.0478,7.79026,7.79026,0,0,1,7.7774,7.7744,7.74317,7.74317,0,0,1-1.3867,4.4668l-.0606.0849-21.4375,27.5762,21.2393,27.3115a7.8034,7.8034,0,0,1,1.6455,4.8145,7.79213,7.79213,0,0,1-7.7774,7.7778Z" fill="#fff"/><path d="M61.1846,233.019a7.79025,7.79025,0,0,1-7.7773-7.7778V168.7651H37.9834a7.7761,7.7761,0,0,1,0-15.5522H84.3867a7.7761,7.7761,0,0,1,0,15.5522H68.96v56.4761a7.787,7.787,0,0,1-7.7754,7.7778Z" fill="#fff"/><path d="M205.0323,233.019a7.7887,7.7887,0,0,1-7.7764-7.7778V168.7651H181.8282a7.7761,7.7761,0,0,1,0-15.5522h46.4062a7.7761,7.7761,0,0,1,0,15.5522H212.8086v56.4761a7.7887,7.7887,0,0,1-7.7763,7.7778Z" fill="#fff"/><path d="M104.7354,484.4365H62.5723a17.6432,17.6432,0,0,1-17.624-17.624V257.9707H23.4991a23.61487,23.61487,0,0,1-2.7325-.1655c-.0009.0551-.0088.1084-.0088.1655V466.8125a41.8624,41.8624,0,0,0,41.8145,41.8159h42.1631a12.096,12.096,0,0,0,0-24.1919Z" fill="#1d1d1b"/><path d="M104.7325,329.6201H336.961a12.0952,12.0952,0,1,0,0-24.1904H104.7325a12.0952,12.0952,0,0,0,0,24.1904Z" fill="#1d1d1b"/><path d="M104.7325,383.9033H336.961a12.0952,12.0952,0,1,0,0-24.1904H104.7325a12.0952,12.0952,0,0,0,0,24.1904Z" fill="#1d1d1b"/><path d="M417.3936,119.7065,301.2325,3.542A12.09036,12.09036,0,0,0,292.6807,0H62.5723A41.862,41.862,0,0,0,20.7578,41.8154v86.4443c0,.0552.0079.1104.0088.1656a23.59259,23.59259,0,0,1,2.7325-.1656H44.9483V41.8154a17.6448,17.6448,0,0,1,17.624-17.6255H280.5821v80.5694a35.63474,35.63474,0,0,0,35.5947,35.5947h80.5703V466.8125a17.64341,17.64341,0,0,1-17.625,17.624H336.9629a12.096,12.096,0,0,0,0,24.1919h42.1592a41.86317,41.86317,0,0,0,41.8154-41.8159V128.2597A12.09724,12.09724,0,0,0,417.3936,119.7065ZM316.1768,116.164a11.41484,11.41484,0,0,1-11.4033-11.4047V41.2934l74.8701,74.8706Z" fill="#1d1d1b"/></svg>