<svg xmlns="http://www.w3.org/2000/svg" viewBox="0 0 420.8252 560.1416"><path d="M23.499,128.2695H242.71778a23.5,23.5,0,0,1,23.5,23.5v82.7119a23.4991,23.4991,0,0,1-23.4991,23.4991H23.4991A23.4991,23.4991,0,0,1,0,234.4814V151.7685a23.499,23.499,0,0,1,23.499-23.499Z" fill="#1d9639"/><path d="M116.68358,157.0264a7.55038,7.55038,0,0,0-10.6699-.0186,7.71227,7.71227,0,0,0-1.80268,2.7578l-.06452.169-9.8906,35.6572-9.8916-35.6572-.0645-.169a8.04682,8.04682,0,0,0-1.6504-2.6455l-.0849-.0918-.0908-.0869a7.54145,7.54145,0,0,0-5.3028-2.1318,7.3776,7.3776,0,0,0-5.2744,2.1465,6.82181,6.82181,0,0,0-1.9668,3.1552l-9.8418,35.4805-9.8916-35.6572-.0635-.169a8.06913,8.06913,0,0,0-1.6523-2.6455l-.084-.0898-.0898-.0869a7.53514,7.53514,0,0,0-5.30368-2.1338,7.57189,7.57189,0,0,0-7.56352,7.5644,8.82427,8.82427,0,0,0,.4316,2.6895l16.7764,60.5723a8.24313,8.24313,0,0,0,2.084,3.5312,7.28516,7.28516,0,0,0,5.3564,2.2725,7.44616,7.44616,0,0,0,5.3652-2.2412l.085-.085a8.86432,8.86432,0,0,0,2-3.415l.0254-.0811,9.6143-34.79,9.6357,34.8027a8.25718,8.25718,0,0,0,2.0879,3.5391,7.28831,7.28831,0,0,0,5.3545,2.2705,7.46008,7.46008,0,0,0,5.36912-2.2412l.08008-.085a8.88755,8.88755,0,0,0,2.00292-3.417l.02438-.0791,16.7383-60.5557a8.81392,8.81392,0,0,0,.4336-2.6875A7.41344,7.41344,0,0,0,116.68358,157.0264Z" fill="#fff"/><path d="M228.55858,157.0283a7.40877,7.40877,0,0,0-5.3457-2.2187,7.22819,7.22819,0,0,0-6.92088,4.4599l-.03222.0733-16.9639,43.6465-16.9336-43.5713-.0634-.1524a7.23286,7.23286,0,0,0-6.92-4.456,7.5736,7.5736,0,0,0-7.5654,7.5644,8.92157,8.92157,0,0,0,.7373,3.4942l23.7441,60.7431a6.94,6.94,0,0,0,1.709,2.6211,7.28871,7.28871,0,0,0,5.292,2.2071,7.44918,7.44918,0,0,0,5.3672-2.2412,7.08406,7.08406,0,0,0,1.6123-2.5313L230.042,165.8672a8.93449,8.93449,0,0,0,.73438-3.4932A7.41889,7.41889,0,0,0,228.55858,157.0283Z" fill="#fff"/><path d="M175.20608,220.3819l-23.7656-60.7999a7.0936,7.0936,0,0,0-1.6143-2.5322,7.43744,7.43744,0,0,0-5.36818-2.2402,7.27961,7.27961,0,0,0-5.289,2.206,6.94422,6.94422,0,0,0-1.711,2.6211l-23.74312,60.7432a8.91409,8.91409,0,0,0-.7373,3.4941,7.57359,7.57359,0,0,0,7.56442,7.5655,7.22967,7.22967,0,0,0,6.919-4.4571l.06438-.1523,3.168-8.1543,27.5342.0059,3.1963,8.2236.0312.0742a7.22956,7.22956,0,0,0,6.92092,4.46,7.577,7.577,0,0,0,7.56538-7.5655A8.944,8.944,0,0,0,175.20608,220.3819Zm-38.7979-16.4092,8.04982-20.7139,8.05278,20.7139Z" fill="#fff"/><path d="M236.99318,432.2344a9.01061,9.01061,0,0,0-8.9854-8.9854h-14.3213a9.01032,9.01032,0,0,0-8.9843,8.9854v29.9521a9.02242,9.02242,0,0,1-8.9854,8.9932l-27.5244.0234c-4.94138.0059-6.6875,3.336-3.8809,7.4043l51.1827,74.1407c2.8066,4.0683,5.21682,7.3935,5.3545,7.3935.1367,0,2.5459-3.3291,5.3535-7.3955l51.1806-74.1387c2.8067-4.0683,1.0596-7.3984-3.88078-7.4043l-27.52352-.0234a9.02175,9.02175,0,0,1-8.9853-8.9932Z" fill="#1d9639"/><path d="M104.62208,484.4404H62.459a17.64494,17.64494,0,0,1-17.624-17.625V257.9727H23.38578a23.61991,23.61991,0,0,1-2.7325-.1651c-.0009.0547-.0087.1084-.0087.1651V466.8154A41.8632,41.8632,0,0,0,62.459,508.6309h42.16308a12.09525,12.09525,0,1,0,0-24.1905Z" fill="#1d1d1b"/><path d="M104.62008,329.6231H336.8487a12.0962,12.0962,0,0,0,0-24.1924H104.62008a12.0962,12.0962,0,0,0,0,24.1924Z" fill="#1d1d1b"/><path d="M104.62008,383.9063H336.8487a12.09525,12.09525,0,1,0,0-24.1905H104.62008a12.09525,12.09525,0,0,0,0,24.1905Z" fill="#1d1d1b"/><path d="M417.2823,119.709,301.12008,3.5449A12.09512,12.09512,0,0,0,292.56738,0H62.459A41.864,41.864,0,0,0,20.64458,41.8164v86.4463c0,.0547.0078.1084.0087.1631a23.62094,23.62094,0,0,1,2.7325-.1631H44.835V41.8164a17.6465,17.6465,0,0,1,17.624-17.626H280.46978v80.5733a35.63444,35.63444,0,0,0,35.5937,35.5928H396.6348V466.8154a17.6448,17.6448,0,0,1-17.626,17.625H336.8506a12.09525,12.09525,0,1,0,0,24.1905h42.1582a41.86426,41.86426,0,0,0,41.8164-41.8155V128.2608A12.09723,12.09723,0,0,0,417.2823,119.709Zm-101.21882-3.543a11.41412,11.41412,0,0,1-11.4023-11.4023V41.294l74.86912,74.872Z" fill="#1d1d1b"/></svg>