<svg xmlns="http://www.w3.org/2000/svg" viewBox="0 0 420.9375 569.4448"><path d="M237.0635,441.5376a9.01137,9.01137,0,0,0-8.9844-8.9854H213.7578a9.01365,9.01365,0,0,0-8.9863,8.9854v29.9497a9.022,9.022,0,0,1-8.9844,8.9951l-27.5234.0254c-4.9414.0039-6.6885,3.335-3.8809,7.4014l51.1817,74.1401c2.8076,4.0684,5.2158,7.3955,5.3535,7.3955s2.5478-3.3271,5.3545-7.3955l51.1816-74.1401c2.8067-4.0664,1.0596-7.3975-3.8818-7.4014l-27.5235-.0254a9.02215,9.02215,0,0,1-8.9853-8.9951Z" fill="#d5126b"/><path d="M23.501,128.2597H242.7168a23.5,23.5,0,0,1,23.5,23.5v82.7119a23.4991,23.4991,0,0,1-23.4991,23.4991H23.499A23.499,23.499,0,0,1,0,234.4717v-82.711a23.501,23.501,0,0,1,23.501-23.501Z" fill="#d5126b"/><path d="M97.5147,232.9492a7.56043,7.56043,0,0,1-5.9629-2.7847L72.5703,205.7866,53.5889,230.168a7.76931,7.76931,0,0,1-13.7246-4.982,7.77766,7.77766,0,0,1,1.6338-4.7959L62.709,193.1152,41.3086,165.5884l-.0605-.0845a7.72538,7.72538,0,0,1-1.3838-4.4595,7.77025,7.77025,0,0,1,7.7627-7.7632,7.81964,7.81964,0,0,1,6.1816,3.042l18.7617,24.1167L91.334,156.3252a7.81129,7.81129,0,0,1,6.1807-3.044,7.77213,7.77213,0,0,1,7.7627,7.7632,7.71477,7.71477,0,0,1-1.3819,4.4556l-.0615.0869L82.4336,193.1152l21.2022,27.2656a7.78984,7.78984,0,0,1,1.6416,4.8052,7.772,7.772,0,0,1-7.7627,7.7632Z" fill="#fff"/><path d="M123.8447,232.9492a7.77351,7.77351,0,0,1-7.7626-7.7632V161.0444a7.76265,7.76265,0,0,1,15.5253,0v56.3784H163.042a7.7632,7.7632,0,0,1,0,15.5264Z" fill="#fff"/><path d="M200.9522,232.9492c-7.5869,0-14.1758-3.0093-19.586-8.9434a21.55888,21.55888,0,0,1-2.0322-2.6045,7.77256,7.77256,0,1,1,12.8018-8.8129l.0713.1103a6.5503,6.5503,0,0,0,.7539.9649l.0878.0937.0831.0996a9.38547,9.38547,0,0,0,6.8291,3.5366c.2753.0186.5752.0313.8711.0313a9.63589,9.63589,0,0,0,6.4492-2.4155,9.46951,9.46951,0,0,0,3.5146-6.8311,9.68319,9.68319,0,0,0-2.2832-7.3237c-1.6103-1.7793-4.3096-3.1822-8.0264-4.1709a26.63788,26.63788,0,0,1-13.5234-6.6787l-.1855-.1709-.1621-.1914a22.11731,22.11731,0,0,1,16.8291-36.3614c6.3759,0,11.9765,2.6045,16.6494,7.7447l.1015.1137a23.54686,23.54686,0,0,1,2.1016,2.9082,7.785,7.785,0,0,1-6.6016,11.8868,7.08983,7.08983,0,0,1-5.8535-2.7486q-.75735-1.0092-1.5527-2.0552a6.14617,6.14617,0,0,0-4.3408-2.206c-.2032-.0147-.4121-.0235-.6162-.0235a6.44735,6.44735,0,0,0-4.9874,10.4893c.669.5864,2.2188,1.5825,5.5958,2.4707,7.0292,1.5606,12.5244,4.5498,16.333,8.8823l.0566.0664a24.60692,24.60692,0,0,1,6.0234,16.2466c0,.7964-.0371,1.6089-.1045,2.4102a25.61174,25.61174,0,0,1-25.2968,23.4824Z" fill="#fff"/><path d="M104.7354,484.4365H62.5723a17.6432,17.6432,0,0,1-17.624-17.624V257.9707H23.5a23.61827,23.61827,0,0,1-2.7334-.1655c0,.0551-.0088.1084-.0088.1655V466.8125a41.86234,41.86234,0,0,0,41.8145,41.8159h42.1631a12.096,12.096,0,0,0,0-24.1919Z" fill="#1d1d1b"/><path d="M104.7334,329.6201H336.9619a12.0952,12.0952,0,0,0,0-24.1904H104.7334a12.0952,12.0952,0,0,0,0,24.1904Z" fill="#1d1d1b"/><path d="M104.7334,383.9033H336.9619a12.0952,12.0952,0,0,0,0-24.1904H104.7334a12.0952,12.0952,0,0,0,0,24.1904Z" fill="#1d1d1b"/><path d="M417.3955,119.7065,301.2354,3.542A12.10389,12.10389,0,0,0,292.6807,0H62.5723A41.86191,41.86191,0,0,0,20.7578,41.8154v86.4443c0,.0552.0088.1104.0088.1656a23.596,23.596,0,0,1,2.7334-.1656H44.9483V41.8154a17.6448,17.6448,0,0,1,17.624-17.6255H280.583v80.5694a35.63482,35.63482,0,0,0,35.5948,35.5947h80.5693V466.8125a17.64307,17.64307,0,0,1-17.6231,17.624H336.9629a12.096,12.096,0,0,0,0,24.1919H379.124a41.86213,41.86213,0,0,0,41.8135-41.8159V128.2597A12.095,12.095,0,0,0,417.3955,119.7065ZM316.1778,116.164a11.41634,11.41634,0,0,1-11.4043-11.4047V41.2934l74.8691,74.8706Z" fill="#1d1d1b"/></svg>