<svg xmlns="http://www.w3.org/2000/svg" viewBox="0 0 420.9384 569.4448"><path d="M237.0634,441.5376a9.01279,9.01279,0,0,0-8.9853-8.9854H213.7568a9.01137,9.01137,0,0,0-8.9844,8.9854v29.9497a9.02359,9.02359,0,0,1-8.9863,8.9951l-27.5234.0254c-4.9414.0039-6.6895,3.335-3.8809,7.4014l51.1816,74.1401c2.8086,4.0684,5.2168,7.3955,5.3555,7.3955.1367,0,2.5469-3.3271,5.3535-7.3955l51.1797-74.1401c2.8076-4.0664,1.0606-7.3975-3.8808-7.4014l-27.5235-.0254a9.02137,9.02137,0,0,1-8.9844-8.9951Z" fill="#273a87"/><path d="M23.501,128.2597H242.7177a23.5,23.5,0,0,1,23.5,23.5v82.7119a23.4991,23.4991,0,0,1-23.4991,23.4991H23.5a23.5,23.5,0,0,1-23.5-23.5v-82.71A23.501,23.501,0,0,1,23.501,128.2597Z" fill="#273a87"/><path d="M67.5547,193.1152l21.1337-27.1831.0606-.0864a7.63985,7.63985,0,0,0,1.3643-4.4009,7.6786,7.6786,0,0,0-7.667-7.6655,7.724,7.724,0,0,0-6.1036,3.0073L57.8154,180.6001,39.2881,156.7866a7.729,7.729,0,0,0-6.1036-3.0073,7.67706,7.67706,0,0,0-7.666,7.6655,7.63938,7.63938,0,0,0,1.3653,4.4048l.0605.0825,21.1328,27.1831L27.1318,220.0483a7.6765,7.6765,0,0,0-1.6133,4.7373,7.6722,7.6722,0,0,0,13.5528,4.919l18.7441-24.0762,18.7441,24.0747a7.67286,7.67286,0,0,0,13.5538-4.9175,7.68889,7.68889,0,0,0-1.6211-4.7466Z" fill="#fff"/><path d="M173.5722,156.0273a7.68552,7.68552,0,0,0-12.1767,1.7539l-.0371.0699-24.8731,49.7812-24.8359-49.7114-.0742-.1397a7.68068,7.68068,0,0,0-14.4248,3.6636v63.3408a7.6655,7.6655,0,0,0,15.331,0V193.9223l17.0254,34.0489a7.58763,7.58763,0,0,0,6.9785,4.478,7.348,7.348,0,0,0,6.6875-3.897l17.3174-34.6299v30.8633a7.66505,7.66505,0,0,0,15.3301,0V161.4448A7.51432,7.51432,0,0,0,173.5722,156.0273Z" fill="#fff"/><path d="M238.4502,219.3662a7.5224,7.5224,0,0,0-5.418-2.2466h-31.041V161.4448a7.66555,7.66555,0,0,0-15.3311,0v63.3408a7.67192,7.67192,0,0,0,7.6651,7.6636h38.707a7.6615,7.6615,0,0,0,5.418-13.083Z" fill="#fff"/><path d="M104.7373,484.4365H62.5732a17.64347,17.64347,0,0,1-17.625-17.624V257.9707H23.5a23.61691,23.61691,0,0,1-2.7334-.1655c-.002.0551-.0088.1084-.0088.1655V466.8125a41.86317,41.86317,0,0,0,41.8154,41.8159h42.1641a12.096,12.096,0,0,0,0-24.1919Z" fill="#1d1d1b"/><path d="M104.7334,329.6201H336.9619a12.0952,12.0952,0,0,0,0-24.1904H104.7334a12.0952,12.0952,0,1,0,0,24.1904Z" fill="#1d1d1b"/><path d="M104.7334,383.9033H336.9619a12.0952,12.0952,0,0,0,0-24.1904H104.7334a12.0952,12.0952,0,1,0,0,24.1904Z" fill="#1d1d1b"/><path d="M417.3945,119.7065,301.2334,3.542A12.096,12.096,0,0,0,292.6806,0H62.5732A41.86275,41.86275,0,0,0,20.7578,41.8154v86.4443c0,.0552.0068.1104.0088.1656a23.59464,23.59464,0,0,1,2.7334-.1656H44.9482V41.8154a17.64508,17.64508,0,0,1,17.625-17.6255H280.583v80.5694a35.63416,35.63416,0,0,0,35.5947,35.5947H396.747V466.8125a17.64341,17.64341,0,0,1-17.625,17.624H336.9619a12.096,12.096,0,0,0,0,24.1919H379.122a41.86332,41.86332,0,0,0,41.8164-41.8159V128.2597A12.093,12.093,0,0,0,417.3945,119.7065ZM316.1777,116.164a11.41484,11.41484,0,0,1-11.4033-11.4047V41.2934l74.8672,74.8706Z" fill="#1d1d1b"/></svg>