<svg xmlns="http://www.w3.org/2000/svg" viewBox="0 0 420.8671 560.1319"><path d="M23.501,128.2578H242.7158a23.5,23.5,0,0,1,23.5,23.5v82.7119a23.501,23.501,0,0,1-23.501,23.501H23.499A23.499,23.499,0,0,1,0,234.4717V151.7588a23.501,23.501,0,0,1,23.501-23.501Z" fill="#94236b"/><path d="M236.9921,432.2246a9.01238,9.01238,0,0,0-8.9853-8.9853H213.6855a9.011,9.011,0,0,0-8.9844,8.9853v29.9512a9.02131,9.02131,0,0,1-8.9863,8.9932l-27.5234.0283c-4.9414.0029-6.6895,3.332-3.8809,7.3984l51.1816,74.1426c2.8086,4.0664,5.2168,7.3936,5.3555,7.3936.1367,0,2.5469-3.3292,5.3535-7.3956l51.1797-74.1386c2.8076-4.0684,1.0606-7.3975-3.8808-7.4004l-27.5235-.0283a9.0191,9.0191,0,0,1-8.9844-8.9932Z" fill="#94236b"/><path d="M59.6992,233.3096a7.84041,7.84041,0,0,1-7.834-7.833,7.84215,7.84215,0,0,1,1.6484-4.8399l40.4883-52.0498H59.6992a7.834,7.834,0,0,1,0-15.6679h50.3379a7.85053,7.85053,0,0,1,7.834,7.8349,7.79456,7.79456,0,0,1-1.3946,4.4961l-.0625.0884L75.7324,217.6416h34.3047a7.834,7.834,0,0,1,0,15.668Z" fill="#fff"/><path d="M139.4101,233.3096a7.84384,7.84384,0,0,1-7.834-7.833V160.7539a7.833,7.833,0,0,1,15.666,0v64.7227a7.84041,7.84041,0,0,1-7.832,7.833Z" fill="#fff"/><path d="M172.3554,233.3096a7.84213,7.84213,0,0,1-7.831-7.833V160.7539a7.84521,7.84521,0,0,1,7.831-7.8349h14.3848a27.61036,27.61036,0,0,1,0,55.2207h-6.5498v17.3369a7.84555,7.84555,0,0,1-7.835,7.833Zm14.3848-40.836a11.94335,11.94335,0,0,0,0-23.8867h-6.5498v23.8867Z" fill="#fff"/><path d="M104.666,484.4365H62.5019a17.645,17.645,0,0,1-17.625-17.624V257.9707H23.4287a23.37328,23.37328,0,0,1-2.7334-.168c-.002.0577-.0088.1124-.0088.168V466.8125A41.8632,41.8632,0,0,0,62.5019,508.627H104.666a12.09525,12.09525,0,0,0,0-24.1905Z" fill="#1d1d1b"/><path d="M104.6621,329.6201H336.8906a12.0952,12.0952,0,0,0,0-24.1904H104.6621a12.0952,12.0952,0,1,0,0,24.1904Z" fill="#1d1d1b"/><path d="M104.6621,383.9033H336.8906a12.0952,12.0952,0,0,0,0-24.1904H104.6621a12.0952,12.0952,0,1,0,0,24.1904Z" fill="#1d1d1b"/><path d="M417.3232,119.7061,301.1621,3.542A12.09431,12.09431,0,0,0,292.6093,0H62.5019A41.86245,41.86245,0,0,0,20.6865,41.814v86.4438c0,.0572.0068.1104.0088.1675a23.17944,23.17944,0,0,1,2.7334-.1675H44.8769V41.814A17.6447,17.6447,0,0,1,62.5019,24.19H280.5117v80.5688a35.636,35.636,0,0,0,35.5947,35.5972h80.5693V466.8125a17.645,17.645,0,0,1-17.625,17.624H336.8906a12.09525,12.09525,0,0,0,0,24.1905h42.1601a41.86335,41.86335,0,0,0,41.8164-41.8145V128.2578A12.09025,12.09025,0,0,0,417.3232,119.7061Zm-101.2168-3.5406a11.41745,11.41745,0,0,1-11.4033-11.4067V41.2935l74.8672,74.872Z" fill="#1d1d1b"/></svg>