<svg xmlns="http://www.w3.org/2000/svg" viewBox="0 0 2000.00001 1294.671"><defs><style>.a{fill:#fff;}.b{fill:#e6e6e6;}.c{fill:#ccc;}.d{fill:#999;}</style></defs><rect class="a" width="2000.00001" height="1294.671"/><rect class="b" x="12.383" y="0.4045" width="0.3125" height="1294.2665"/><rect class="b" x="24.1386" y="0.4045" width="0.3122" height="1294.2665"/><rect class="b" x="35.8941" y="0.4045" width="0.3122" height="1294.2665"/><rect class="b" x="47.6496" y="0.4045" width="0.3121" height="1294.2665"/><rect class="b" x="71.1603" y="0.4045" width="0.3124" height="1294.2665"/><rect class="b" x="82.916" y="0.4045" width="0.3121" height="1294.2665"/><rect class="b" x="94.67141" y="0.4045" width="0.31229" height="1294.2665"/><rect class="b" x="106.427" y="0.4045" width="0.3121" height="1294.2665"/><rect class="b" x="129.938" y="0.4045" width="0.312" height="1294.2665"/><rect class="b" x="141.6933" y="0.4045" width="0.3124" height="1294.2665"/><rect class="b" x="153.449" y="0.4045" width="0.312" height="1294.2665"/><rect class="b" x="165.20441" y="0.4045" width="0.31219" height="1294.2665"/><rect class="b" x="188.71541" y="0.4045" width="0.31228" height="1294.2665"/><rect class="b" x="200.47069" y="0.4045" width="0.3123" height="1294.2665"/><rect class="b" x="212.22629" y="0.4045" width="0.3122" height="1294.2665"/><rect class="b" x="223.98169" y="0.4045" width="0.3123" height="1294.2665"/><rect class="b" x="247.49269" y="0.4045" width="0.3124" height="1294.2665"/><rect class="b" x="259.24819" y="0.4045" width="0.31222" height="1294.2665"/><rect class="b" x="271.00369" y="0.4045" width="0.3123" height="1294.2665"/><rect class="b" x="282.75929" y="0.4045" width="0.3122" height="1294.2665"/><rect class="b" x="306.27029" y="0.4045" width="0.31212" height="1294.2665"/><rect class="b" x="318.02559" y="0.4045" width="0.3125" height="1294.2665"/><rect class="b" x="329.78099" y="0.4045" width="0.31242" height="1294.2665"/><rect class="b" x="341.53669" y="0.4045" width="0.3121" height="1294.2665"/><rect class="b" x="365.04759" y="0.4045" width="0.3122" height="1294.2665"/><rect class="b" x="376.80289" y="0.4045" width="0.31252" height="1294.2665"/><rect class="b" x="388.55859" y="0.4045" width="0.3121" height="1294.2665"/><rect class="b" x="400.31399" y="0.4045" width="0.31242" height="1294.2665"/><rect class="b" x="423.82499" y="0.4045" width="0.3123" height="1294.2665"/><rect class="b" x="435.58059" y="0.4045" width="0.3122" height="1294.2665"/><rect class="b" x="447.33589" y="0.4045" width="0.3124" height="1294.2665"/><rect class="b" x="459.09141" y="0.4045" width="0.31228" height="1294.2665"/><rect class="b" x="482.60229" y="0.4045" width="0.3124" height="1294.2665"/><rect class="b" x="494.35799" y="0.4045" width="0.3121" height="1294.2665"/><rect class="b" x="506.11329" y="0.4045" width="0.3123" height="1294.2665"/><rect class="b" x="517.86889" y="0.4045" width="0.3122" height="1294.2665"/><rect class="b" x="541.37999" y="0.4045" width="0.312" height="1294.2665"/><rect class="b" x="553.13529" y="0.4045" width="0.3124" height="1294.2665"/><rect class="b" x="564.89089" y="0.4045" width="0.3121" height="1294.2665"/><rect class="b" x="576.64629" y="0.4045" width="0.3124" height="1294.2665"/><rect class="b" x="600.15741" y="0.4045" width="0.312" height="1294.2665"/><rect class="b" x="611.91271" y="0.4045" width="0.3124" height="1294.2665"/><rect class="b" x="623.66831" y="0.4045" width="0.3121" height="1294.2665"/><rect class="b" x="635.42361" y="0.4045" width="0.3124" height="1294.2665"/><rect class="b" x="658.93471" y="0.4045" width="0.3124" height="1294.2665"/><rect class="b" x="670.69011" y="0.4045" width="0.3123" height="1294.2665"/><rect class="b" x="682.44571" y="0.4045" width="0.3123" height="1294.2665"/><rect class="b" x="694.20121" y="0.4045" width="0.3122" height="1294.2665"/><rect class="b" x="717.71211" y="0.4045" width="0.3123" height="1294.2665"/><rect class="b" x="729.46761" y="0.4045" width="0.3124" height="1294.2665"/><rect class="b" x="741.22291" y="0.4045" width="0.3125" height="1294.2665"/><rect class="b" x="752.97861" y="0.4045" width="0.3121" height="1294.2665"/><rect class="b" x="776.48951" y="0.4045" width="0.3123" height="1294.2665"/><rect class="b" x="788.24501" y="0.4045" width="0.3124" height="1294.2665"/><rect class="b" x="800.00051" y="0.4045" width="0.3122" height="1294.2665"/><rect class="b" x="811.75591" y="0.4045" width="0.3125" height="1294.2665"/><rect class="b" x="835.26691" y="0.4045" width="0.3124" height="1294.2665"/><rect class="b" x="847.02231" y="0.4045" width="0.3125" height="1294.2665"/><rect class="b" x="858.77791" y="0.4045" width="0.3124" height="1294.2665"/><rect class="b" x="870.53331" y="0.4045" width="0.3124" height="1294.2665"/><rect class="b" x="894.04421" y="0.4045" width="0.3125" height="1294.2665"/><rect class="b" x="905.79991" y="0.4045" width="0.3122" height="1294.2665"/><rect class="b" x="917.55531" y="0.4045" width="0.3125" height="1294.2665"/><rect class="b" x="929.31081" y="0.4045" width="0.3123" height="1294.2665"/><rect class="b" x="952.82191" y="0.4045" width="0.3122" height="1294.2665"/><rect class="b" x="964.57721" y="0.4045" width="0.3125" height="1294.2665"/><rect class="b" x="976.33291" y="0.4045" width="0.3122" height="1294.2665"/><rect class="b" x="988.08831" y="0.4045" width="0.3125" height="1294.2665"/><rect class="b" x="1011.59931" y="0.4045" width="0.3121" height="1294.2665"/><rect class="b" x="1023.35461" y="0.4045" width="0.3124" height="1294.2665"/><rect class="b" x="1035.11021" y="0.4045" width="0.3123" height="1294.2665"/><rect class="b" x="1046.86561" y="0.4045" width="0.3125" height="1294.2665"/><rect class="b" x="1070.37661" y="0.4045" width="0.3125" height="1294.2665"/><rect class="b" x="1082.13221" y="0.4045" width="0.3122" height="1294.2665"/><rect class="b" x="1093.88761" y="0.4045" width="0.3124" height="1294.2665"/><rect class="b" x="1105.64321" y="0.4045" width="0.3123" height="1294.2665"/><rect class="b" x="1129.15401" y="0.4045" width="0.3124" height="1294.2665"/><rect class="b" x="1140.90961" y="0.4045" width="0.3122" height="1294.2665"/><rect class="b" x="1152.66491" y="0.4045" width="0.3125" height="1294.2665"/><rect class="b" x="1164.42061" y="0.4045" width="0.3122" height="1294.2665"/><rect class="b" x="1187.93161" y="0.4045" width="0.3122" height="1294.2665"/><rect class="b" x="1199.68701" y="0.4045" width="0.3124" height="1294.2665"/><rect class="b" x="1211.44261" y="0.4045" width="0.3121" height="1294.2665"/><rect class="b" x="1223.19791" y="0.4045" width="0.3125" height="1294.2665"/><rect class="b" x="1246.70901" y="0.4045" width="0.3124" height="1294.2665"/><rect class="b" x="1258.46431" y="0.4045" width="0.3125" height="1294.2665"/><rect class="b" x="1270.21991" y="0.4045" width="0.3122" height="1294.2665"/><rect class="b" x="1281.97531" y="0.4045" width="0.3124" height="1294.2665"/><rect class="b" x="1305.48631" y="0.4045" width="0.3123" height="1294.2665"/><rect class="b" x="1317.24201" y="0.4045" width="0.3121" height="1294.2665"/><rect class="b" x="1328.99731" y="0.4045" width="0.3124" height="1294.2665"/><rect class="b" x="1340.75291" y="0.4045" width="0.3121" height="1294.2665"/><rect class="b" x="1364.26391" y="0.4045" width="0.312" height="1294.2665"/><rect class="b" x="1376.01931" y="0.4045" width="0.3123" height="1294.2665"/><rect class="b" x="1387.77461" y="0.4045" width="0.3124" height="1294.2665"/><rect class="b" x="1399.53031" y="0.4045" width="0.312" height="1294.2665"/><rect class="b" x="1423.04121" y="0.4045" width="0.3122" height="1294.2665"/><rect class="b" x="1434.79671" y="0.4045" width="0.3122" height="1294.2665"/><rect class="b" x="1446.55231" y="0.4045" width="0.3121" height="1294.2665"/><rect class="b" x="1458.30761" y="0.4045" width="0.3124" height="1294.2665"/><rect class="b" x="1481.81861" y="0.4045" width="0.3124" height="1294.2665"/><rect class="b" x="1493.57421" y="0.4045" width="0.3121" height="1294.2665"/><rect class="b" x="1505.32971" y="0.4045" width="0.3122" height="1294.2665"/><rect class="b" x="1517.08501" y="0.4045" width="0.3124" height="1294.2665"/><rect class="b" x="1540.59601" y="0.4045" width="0.3123" height="1294.2665"/><rect class="b" x="1552.35161" y="0.4045" width="0.3121" height="1294.2665"/><rect class="b" x="1564.10701" y="0.4045" width="0.3123" height="1294.2665"/><rect class="b" x="1575.86271" y="0.4045" width="0.312" height="1294.2665"/><rect class="b" x="1599.37361" y="0.4045" width="0.3121" height="1294.2665"/><rect class="b" x="1611.12891" y="0.4045" width="0.3124" height="1294.2665"/><rect class="b" x="1622.88461" y="0.4045" width="0.3121" height="1294.2665"/><rect class="b" x="1634.64001" y="0.4045" width="0.3123" height="1294.2665"/><rect class="b" x="1658.15101" y="0.4045" width="0.312" height="1294.2665"/><rect class="b" x="1669.90631" y="0.4045" width="0.3125" height="1294.2665"/><rect class="b" x="1681.66191" y="0.4045" width="0.3123" height="1294.2665"/><rect class="b" x="1693.41741" y="0.4045" width="0.3121" height="1294.2665"/><rect class="b" x="1716.92831" y="0.4045" width="0.3123" height="1294.2665"/><rect class="b" x="1728.68401" y="0.4045" width="0.3121" height="1294.2665"/><rect class="b" x="1740.43931" y="0.4045" width="0.3122" height="1294.2665"/><rect class="b" x="1752.19491" y="0.4045" width="0.312" height="1294.2665"/><rect class="b" x="1775.70571" y="0.4045" width="0.3122" height="1294.2665"/><rect class="b" x="1787.46131" y="0.4045" width="0.312" height="1294.2665"/><rect class="b" x="1799.21661" y="0.4045" width="0.3123" height="1294.2665"/><rect class="b" x="1810.97231" y="0.4045" width="0.3119" height="1294.2665"/><rect class="b" x="1834.48331" y="0.4045" width="0.312" height="1294.2665"/><rect class="b" x="1846.23871" y="0.4045" width="0.3122" height="1294.2665"/><rect class="b" x="1857.99431" y="0.4045" width="0.312" height="1294.2665"/><rect class="b" x="1869.74961" y="0.4045" width="0.3123" height="1294.2665"/><rect class="b" x="1893.26071" y="0.4045" width="0.3122" height="1294.2665"/><rect class="b" x="1905.01601" y="0.4045" width="0.3123" height="1294.2665"/><rect class="b" x="1916.77171" y="0.4045" width="0.3119" height="1294.2665"/><rect class="b" x="1928.52701" y="0.4045" width="0.3122" height="1294.2665"/><rect class="b" x="1952.03811" y="0.4045" width="0.3121" height="1294.2665"/><rect class="b" x="1963.79341" y="0.4045" width="0.3122" height="1294.2665"/><rect class="b" x="1975.54881" y="0.4045" width="0.3125" height="1294.2665"/><rect class="b" x="1987.30471" y="0.4045" width="0.3119" height="1294.2665"/><rect class="b" x="0.6277" y="1281.9725" width="1998.74451" height="0.3184"/><rect class="b" x="0.6277" y="1270.2169" width="1998.74451" height="0.3184"/><rect class="b" x="0.6277" y="1258.4615" width="1998.74451" height="0.3183"/><rect class="b" x="0.6277" y="1246.7059" width="1998.74451" height="0.3184"/><rect class="b" x="0.6277" y="1223.1949" width="1998.74451" height="0.3183"/><rect class="b" x="0.6277" y="1211.4396" width="1998.74451" height="0.3183"/><rect class="b" x="0.6277" y="1199.6839" width="1998.74451" height="0.3184"/><rect class="b" x="0.6277" y="1187.9285" width="1998.74451" height="0.3184"/><rect class="b" x="0.6277" y="1164.4175" width="1998.74451" height="0.3184"/><rect class="b" x="0.6277" y="1152.6622" width="1998.74451" height="0.3183"/><rect class="b" x="0.6277" y="1140.9066" width="1998.74451" height="0.3183"/><rect class="b" x="0.6277" y="1129.1511" width="1998.74451" height="0.3185"/><rect class="b" x="0.6277" y="1105.6402" width="1998.74451" height="0.3183"/><rect class="b" x="0.6277" y="1093.8845" width="1998.74451" height="0.3185"/><rect class="b" x="0.6277" y="1082.1292" width="1998.74451" height="0.3183"/><rect class="b" x="0.6277" y="1070.3736" width="1998.74451" height="0.3183"/><rect class="b" x="0.6277" y="1046.8628" width="1998.74451" height="0.3184"/><rect class="b" x="0.6277" y="1035.1072" width="1998.74451" height="0.3184"/><rect class="b" x="0.6277" y="1023.3518" width="1998.74451" height="0.3184"/><rect class="b" x="0.6277" y="1011.5962" width="1998.74451" height="0.3183"/><rect class="b" x="0.6277" y="988.0852" width="1998.74451" height="0.3184"/><rect class="b" x="0.6277" y="976.3298" width="1998.74451" height="0.3185"/><rect class="b" x="0.6277" y="964.5742" width="1998.74451" height="0.3184"/><rect class="b" x="0.6277" y="952.8188" width="1998.74451" height="0.3184"/><rect class="b" x="0.6277" y="929.3079" width="1998.74451" height="0.3183"/><rect class="b" x="0.6277" y="917.5525" width="1998.74451" height="0.3184"/><rect class="b" x="0.6277" y="905.7968" width="1998.74451" height="0.3185"/><rect class="b" x="0.6277" y="894.0415" width="1998.74451" height="0.3183"/><rect class="b" x="0.6277" y="870.5305" width="1998.74451" height="0.3184"/><rect class="b" x="0.6277" y="858.7749" width="1998.74451" height="0.3183"/><rect class="b" x="0.6277" y="847.0195" width="1998.74451" height="0.3184"/><rect class="b" x="0.6277" y="835.2639" width="1998.74451" height="0.3184"/><rect class="b" x="0.6277" y="811.7529" width="1998.74451" height="0.3184"/><rect class="b" x="0.6277" y="799.9975" width="1998.74451" height="0.3184"/><rect class="b" x="0.6277" y="788.2419" width="1998.74451" height="0.3186"/><rect class="b" x="0.6277" y="776.4866" width="1998.74451" height="0.3183"/><rect class="b" x="0.6277" y="752.9755" width="1998.74451" height="0.3184"/><rect class="b" x="0.6277" y="741.2202" width="1998.74451" height="0.3183"/><rect class="b" x="0.6277" y="729.4645" width="1998.74451" height="0.3184"/><rect class="b" x="0.6277" y="717.7092" width="1998.74451" height="0.3183"/><rect class="b" x="0.6277" y="694.1981" width="1998.74451" height="0.3185"/><rect class="b" x="0.6277" y="682.4425" width="1998.74451" height="0.3184"/><rect class="b" x="0.6277" y="670.6872" width="1998.74451" height="0.3183"/><rect class="b" x="0.6277" y="658.9315" width="1998.74451" height="0.3185"/><rect class="b" x="0.6277" y="635.4208" width="1998.74451" height="0.3184"/><rect class="b" x="0.6277" y="623.6651" width="1998.74451" height="0.3185"/><rect class="b" x="0.6277" y="611.9098" width="1998.74451" height="0.3183"/><rect class="b" x="0.6277" y="600.1542" width="1998.74451" height="0.3184"/><rect class="b" x="0.6277" y="576.6432" width="1998.74451" height="0.3183"/><rect class="b" x="0.6277" y="564.8878" width="1998.74451" height="0.3184"/><rect class="b" x="0.6277" y="553.1322" width="1998.74451" height="0.3184"/><rect class="b" x="0.6277" y="541.3768" width="1998.74451" height="0.3185"/><rect class="b" x="0.6277" y="517.8658" width="1998.74451" height="0.3184"/><rect class="b" x="0.6277" y="506.1104" width="1998.74451" height="0.3185"/><rect class="b" x="0.6277" y="494.3549" width="1998.74451" height="0.3183"/><rect class="b" x="0.6277" y="482.5995" width="1998.74451" height="0.3183"/><rect class="b" x="0.6277" y="459.0885" width="1998.74451" height="0.3183"/><rect class="b" x="0.6277" y="447.3328" width="1998.74451" height="0.3184"/><rect class="b" x="0.6277" y="435.5775" width="1998.74451" height="0.3184"/><rect class="b" x="0.6277" y="423.8219" width="1998.74451" height="0.3183"/><rect class="b" x="0.6277" y="400.3109" width="1998.74451" height="0.3184"/><rect class="b" x="0.6277" y="388.5555" width="1998.74451" height="0.3183"/><rect class="b" x="0.6277" y="376.8002" width="1998.74451" height="0.3183"/><rect class="b" x="0.6277" y="365.0445" width="1998.74451" height="0.3184"/><rect class="b" x="0.6277" y="341.5335" width="1998.74451" height="0.3184"/><rect class="b" x="0.6277" y="329.7781" width="1998.74451" height="0.3184"/><rect class="b" x="0.6277" y="318.0225" width="1998.74451" height="0.3184"/><rect class="b" x="0.6277" y="306.2672" width="1998.74451" height="0.3183"/><rect class="b" x="0.6277" y="282.7561" width="1998.74451" height="0.3184"/><rect class="b" x="0.6277" y="271.0006" width="1998.74451" height="0.3183"/><rect class="b" x="0.6277" y="259.2451" width="1998.74451" height="0.3185"/><rect class="b" x="0.6277" y="247.4898" width="1998.74451" height="0.3183"/><rect class="b" x="0.6277" y="223.9787" width="1998.74451" height="0.3185"/><rect class="b" x="0.6277" y="212.2232" width="1998.74451" height="0.3183"/><rect class="b" x="0.6277" y="200.4678" width="1998.74451" height="0.3184"/><rect class="b" x="0.6277" y="188.7121" width="1998.74451" height="0.3185"/><rect class="b" x="0.6277" y="165.2012" width="1998.74451" height="0.3183"/><rect class="b" x="0.6277" y="153.4458" width="1998.74451" height="0.3184"/><rect class="b" x="0.6277" y="141.6902" width="1998.74451" height="0.3183"/><rect class="b" x="0.6277" y="129.9348" width="1998.74451" height="0.3184"/><rect class="b" x="0.6277" y="106.4238" width="1998.74451" height="0.3183"/><rect class="b" x="0.6277" y="94.6685" width="1998.74451" height="0.3183"/><rect class="b" x="0.6277" y="82.9128" width="1998.74451" height="0.3184"/><rect class="b" x="0.6277" y="71.1574" width="1998.74451" height="0.3185"/><rect class="b" x="0.6277" y="47.6464" width="1998.74451" height="0.3184"/><rect class="b" x="0.6277" y="35.8908" width="1998.74451" height="0.3184"/><rect class="b" x="0.6277" y="24.1355" width="1998.74451" height="0.3183"/><rect class="b" x="0.6277" y="12.3798" width="1998.74451" height="0.3184"/><rect class="c" x="59.0897" y="0.2022" width="0.9429" height="1294.4688"/><rect class="c" x="176.64441" y="0.2022" width="0.943" height="1294.4688"/><rect class="c" x="294.19941" y="0.2022" width="0.94288" height="1294.4688"/><rect class="c" x="411.75419" y="0.2022" width="0.9428" height="1294.4688"/><rect class="c" x="529.30899" y="0.2022" width="0.9429" height="1294.4688"/><rect class="c" x="646.86381" y="0.2022" width="0.9431" height="1294.4688"/><rect class="c" x="764.41881" y="0.2022" width="0.9429" height="1294.4688"/><rect class="c" x="881.97361" y="0.2022" width="0.9431" height="1294.4688"/><rect class="c" x="999.52831" y="0.2022" width="0.9431" height="1294.4688"/><rect class="c" x="1117.08331" y="0.2022" width="0.9429" height="1294.4688"/><rect class="c" x="1234.63801" y="0.2022" width="0.9429" height="1294.4688"/><rect class="c" x="1352.19301" y="0.2022" width="0.9429" height="1294.4688"/><rect class="c" x="1469.74781" y="0.2022" width="0.9428" height="1294.4688"/><rect class="c" x="1587.30271" y="0.2022" width="0.9427" height="1294.4688"/><rect class="c" x="1704.85741" y="0.2022" width="0.9431" height="1294.4688"/><rect class="c" x="1822.41241" y="0.2022" width="0.9428" height="1294.4688"/><rect class="c" x="1939.96741" y="0.2022" width="0.9428" height="1294.4688"/><rect class="c" x="0.3122" y="1234.6382" width="1999.37531" height="0.9428"/><rect class="c" x="0.3122" y="1117.0834" width="1999.37531" height="0.9429"/><rect class="c" x="0.3122" y="999.5284" width="1999.37531" height="0.9429"/><rect class="c" x="0.3122" y="881.9737" width="1999.37531" height="0.9429"/><rect class="c" x="0.3122" y="764.4188" width="1999.37531" height="0.9428"/><rect class="c" x="0.3122" y="646.8638" width="1999.37531" height="0.9431"/><rect class="c" x="0.3122" y="529.3091" width="1999.37531" height="0.9429"/><rect class="c" x="0.3122" y="411.7541" width="1999.37531" height="0.9428"/><rect class="c" x="0.3122" y="294.1994" width="1999.37531" height="0.9428"/><rect class="c" x="0.3122" y="176.6444" width="1999.37531" height="0.9429"/><rect class="c" x="0.3122" y="59.0897" width="1999.37531" height="0.9429"/><rect class="d" width="1.56741" height="1294.671"/><rect class="d" x="117.5547" width="1.5676" height="1294.671"/><rect class="d" x="235.10969" width="1.5673" height="1294.671"/><rect class="d" x="352.66459" width="1.5674" height="1294.671"/><rect class="d" x="470.21929" width="1.5674" height="1294.671"/><rect class="d" x="587.77441" width="1.56717" height="1294.671"/><rect class="d" x="705.32911" width="1.5672" height="1294.671"/><rect class="d" x="822.88401" width="1.5674" height="1294.671"/><rect class="d" x="940.43881" width="1.5674" height="1294.671"/><rect class="d" x="1057.99371" width="1.5672" height="1294.671"/><rect class="d" x="1175.54831" width="1.5676" height="1294.671"/><rect class="d" x="1293.10331" width="1.5673" height="1294.671"/><rect class="d" x="1410.65831" width="1.5673" height="1294.671"/><rect class="d" x="1528.21301" width="1.5673" height="1294.671"/><rect class="d" x="1645.76791" width="1.5674" height="1294.671"/><rect class="d" x="1763.32261" width="1.5675" height="1294.671"/><rect class="d" x="1880.87751" width="1.5675" height="1294.671"/><rect class="d" x="1998.43231" width="1.5677" height="1294.671"/><rect class="d" y="1293.1034" width="1999.99991" height="1.5673"/><rect class="d" y="1175.5484" width="1999.99991" height="1.5676"/><rect class="d" y="1057.9937" width="1999.99991" height="1.5673"/><rect class="d" y="940.4387" width="1999.99991" height="1.5676"/><rect class="d" y="822.884" width="1999.99991" height="1.5673"/><rect class="d" y="705.329" width="1999.99991" height="1.5674"/><rect class="d" y="587.7743" width="1999.99991" height="1.5674"/><rect class="d" y="470.2194" width="1999.99991" height="1.5673"/><rect class="d" y="352.6647" width="1999.99991" height="1.5672"/><rect class="d" y="235.1096" width="1999.99991" height="1.5674"/><rect class="d" y="117.5547" width="1999.99991" height="1.5676"/><rect class="d" width="1999.99991" height="1.5674"/></svg>