<svg xmlns="http://www.w3.org/2000/svg" xmlns:xlink="http://www.w3.org/1999/xlink" viewBox="0 0 4200 1168.001"><defs><clipPath id="a"><rect y="-183" width="4200" height="1351" fill="none"/></clipPath></defs><g style="isolation:isolate"><g clip-path="url(#a)"><g style="mix-blend-mode:multiply"><path d="M5293.055,1026.782c-33.937,60.43-520,320.194-928,255.29-494.665-78.692-514-234.826-1232-160.1-437.49,45.54-979.908-172.716-1520-134.134-848,60.577-1839.707-133.4-1960-393.752" fill="none" stroke="#d6f3f2" stroke-width="0.574"/><path d="M-349.609,595.134C-228.158,854.681,761.247,1048.276,1608.047,987.7c539.421-38.6,1080.688,178.311,1518.276,132.655,718.229-74.934,737.915,82.105,1233.875,159.425,408.757,63.91,897.136-195.211,933.381-253.185" fill="none" stroke="#d6f3f2" stroke-width="0.574"/><path d="M-351.471,595.92C-228.863,854.665,758.241,1047.875,1603.84,987.3c538.749-38.609,1078.865,176.949,1516.553,131.174,718.46-75.139,738.494,82.806,1235.75,158.754,409.513,62.916,900.209-195.562,938.762-251.081" fill="none" stroke="#d5f2f2" stroke-width="0.574"/><path d="M-352.552,596.45c123.766,257.944,1108.568,450.769,1952.967,390.194,538.077-38.621,1077.042,175.586,1514.828,129.695,718.693-75.345,739.075,83.505,1237.626,158.082,410.27,61.922,903.281-195.913,944.143-248.977" fill="none" stroke="#d5f2f1" stroke-width="0.574"/><path d="M-352.872,596.73c124.924,257.142,1107.424,449.582,1950.623,389.008,537.405-38.634,1075.219,174.224,1513.105,128.215,718.924-75.551,739.654,84.2,1239.5,157.41,411.027,60.928,906.354-196.263,949.523-246.872" fill="none" stroke="#d4f1f1" stroke-width="0.574"/><path d="M-352.449,596.765C-226.368,853.1,753.831,1045.159,1595.829,984.587c536.734-38.648,1073.4,172.861,1511.381,126.734,719.156-75.756,740.234,84.906,1241.376,156.739,411.784,59.934,909.427-196.615,954.9-244.768" fill="none" stroke="#d4f1f1" stroke-width="0.574"/><path d="M-351.3,596.558C-224.066,852.1,753.831,1043.766,1594.63,983.2c536.061-38.661,1071.572,171.5,1509.657,125.254,719.387-75.962,740.813,85.605,1243.251,156.067,412.54,58.94,912.5-196.966,960.285-242.663" fill="none" stroke="#d3f0f1" stroke-width="0.574"/><path d="M-349.458,596.116c128.4,254.736,1103.992,446.022,1943.59,385.451,535.389-38.674,1069.75,170.135,1507.933,123.774,719.619-76.168,741.394,86.305,1245.127,155.4,413.3,57.945,915.571-197.317,965.666-240.559" fill="none" stroke="#d3f0f1" stroke-width="0.574"/><path d="M-346.928,595.443c129.554,253.934,1102.847,444.835,1941.245,384.265,534.718-38.687,1067.927,168.773,1506.21,122.294,719.85-76.373,741.973,87.005,1247,154.724,414.054,56.952,918.644-197.668,971.047-238.455" fill="none" stroke="#d2f0f1" stroke-width="0.574"/><path d="M-343.736,594.544c130.712,253.132,1101.7,443.648,1938.9,383.079,534.046-38.7,1066.1,167.41,1504.486,120.814,720.082-76.579,742.553,87.705,1248.876,154.052,414.811,55.958,921.717-198.019,976.428-236.35" fill="none" stroke="#d2eff0" stroke-width="0.574"/><path d="M-339.9,593.527c131.869,252.33,1100.56,442.461,1936.557,381.893,533.374-38.714,1064.281,166.047,1502.762,119.334,720.314-76.785,743.27,87.341,1250.752,153.38,415.682,54.093,924.789-198.37,981.809-234.245" fill="none" stroke="#d2eff0" stroke-width="0.574"/><path d="M-335.442,592.2c133.027,251.528,1099.415,441.273,1934.213,380.707,532.7-38.727,1062.457,164.684,1501.037,117.853,720.546-76.99,743.86,87.94,1252.628,152.709,416.446,53.017,927.862-198.721,987.189-232.141" fill="none" stroke="#d1eef0" stroke-width="0.574"/><path d="M-330.38,590.659C-196.2,841.385,767.891,1030.746,1601.489,970.18,2133.518,931.44,2662.123,1133.5,3100.8,1086.553c720.778-77.2,744.449,88.539,1254.5,152.037,417.211,51.941,930.934-199.071,992.57-230.036" fill="none" stroke="#d1eef0" stroke-width="0.574"/><path d="M-324.734,588.912c135.342,249.924,1097.127,438.9,1929.524,378.335,531.358-38.754,1058.812,161.959,1497.59,114.893,721.01-77.4,745.037,89.138,1256.378,151.366,417.975,50.865,934.007-199.423,997.951-227.933" fill="none" stroke="#d0edf0" stroke-width="0.574"/><path d="M-318.524,586.962c136.5,249.123,1095.983,437.714,1927.18,377.15,530.686-38.767,1056.988,160.6,1495.866,113.413,721.241-77.607,745.625,89.739,1258.253,150.694,418.738,49.791,937.08-199.774,1003.332-225.828" fill="none" stroke="#d0edef" stroke-width="0.574"/><path d="M-311.77,584.816c137.657,248.32,1094.839,436.526,1924.836,375.963C2143.08,922,2668.231,1120.013,3107.208,1072.713c721.473-77.814,746.212,90.34,1260.128,150.022,419.5,48.717,940.152-200.125,1008.713-223.724" fill="none" stroke="#cfedef" stroke-width="0.574"/><path d="M-304.492,582.477C-165.676,830,789.2,1017.816,1618,957.255c529.342-38.793,1053.343,157.871,1492.419,110.453,721.7-78.019,746.8,90.942,1262,149.35,420.264,47.645,943.225-200.476,1014.094-221.619" fill="none" stroke="#cfecef" stroke-width="0.574"/><path d="M-296.708,579.951C-156.735,826.667,795.843,1014.1,1623.439,953.542c528.67-38.806,1051.52,156.509,1490.7,108.973,721.936-78.224,747.384,91.546,1263.878,148.679,421.026,46.573,946.3-200.827,1019.475-219.515" fill="none" stroke="#ceecef" stroke-width="0.574"/><path d="M-288.44,577.241c141.131,245.915,1091.408,432.966,1917.8,372.406,528-38.819,1049.7,155.146,1488.97,107.493,722.168-78.43,747.969,92.149,1265.754,148.007,421.787,45.5,949.37-201.178,1024.856-217.41" fill="none" stroke="#ceebef" stroke-width="0.574"/><path d="M-279.706,574.354c142.288,245.113,1090.263,431.779,1915.459,371.22C2163.079,906.742,2683.627,1099.357,3123,1051.587c722.4-78.636,748.553,92.754,1267.629,147.335,422.548,44.432,952.442-201.528,1030.236-215.305" fill="none" stroke="#ceebee" stroke-width="0.574"/><path d="M-270.527,571.294c143.446,244.311,1089.12,430.592,1913.115,370.034,526.654-38.845,1046.05,152.421,1485.523,104.533,722.631-78.842,749.137,93.36,1269.5,146.664,423.308,43.362,955.515-201.88,1035.617-213.2" fill="none" stroke="#cdeaee" stroke-width="0.574"/><path d="M-260.922,568.066c144.6,243.509,1087.975,429.405,1910.77,368.848,525.983-38.859,1044.228,151.058,1483.8,103.053,722.863-79.047,749.72,93.966,1271.379,145.992,424.068,42.293,958.588-202.231,1041-211.1" fill="none" stroke="#cdeaee" stroke-width="0.574"/><path d="M-250.911,564.675C-105.15,807.381,835.92,992.893,1657.515,932.337c525.31-38.872,1042.4,149.695,1482.075,101.572,723.095-79.252,750.3,94.574,1273.255,145.321,424.828,41.225,961.66-202.582,1046.379-208.993" fill="none" stroke="#cceaee" stroke-width="0.574"/><path d="M-240.514,561.125C-93.6,803.029,845.173,988.156,1665.568,927.6c524.638-38.885,1040.581,148.332,1480.351,100.092,723.327-79.458,750.885,95.182,1275.13,144.649,425.587,40.158,964.733-202.933,1051.76-206.888" fill="none" stroke="#cce9ee" stroke-width="0.574"/><path d="M-229.751,557.421c148.077,241.1,1084.543,425.845,1903.738,365.291,523.966-38.9,1038.758,146.969,1478.628,98.612,723.558-79.664,751.466,95.791,1277,143.977,426.346,39.092,967.806-203.284,1057.141-204.784" fill="none" stroke="#cbe9ee" stroke-width="0.574"/><path d="M-218.641,553.569c149.234,240.3,1083.4,424.658,1901.394,364.105,523.294-38.912,1036.935,145.607,1476.9,97.132,723.79-79.87,752.047,96.4,1278.879,143.305,427.1,38.026,970.879-203.635,1062.522-202.679" fill="none" stroke="#cbe8ed" stroke-width="0.574"/><path d="M-207.2,549.573c150.392,239.5,1082.255,423.471,1899.049,362.919,522.623-38.925,1035.113,144.244,1475.18,95.652,724.022-80.076,752.628,97.011,1280.755,142.633,427.862,36.962,973.951-203.986,1067.9-200.574" fill="none" stroke="#cae8ed" stroke-width="0.574"/><path d="M-195.46,545.438c151.55,238.7,1081.112,422.284,1896.705,361.733,521.951-38.938,1033.29,142.881,1473.456,94.172,724.254-80.282,753.208,97.622,1282.631,141.962,428.619,35.9,977.023-204.337,1073.283-198.471" fill="none" stroke="#cae7ed" stroke-width="0.574"/><path d="M-183.428,541.169c152.707,237.894,1079.967,421.1,1894.36,360.546,521.279-38.951,1031.467,141.519,1471.733,92.692,724.485-80.487,753.787,98.235,1284.505,141.291,429.377,34.833,980.1-204.688,1078.665-196.366" fill="none" stroke="#cae7ed" stroke-width="0.574"/><path d="M-171.129,536.77C-17.264,773.863,907.694,956.68,1720.887,896.131c520.607-38.965,1029.644,140.156,1470.009,91.212,724.717-80.693,754.366,98.848,1286.381,140.618,430.133,33.772,983.168-205.039,1084.045-194.261" fill="none" stroke="#c9e7ed" stroke-width="0.574"/><path d="M-158.582,532.247C-3.56,768.538,919.1,950.97,1731.09,890.422c519.935-38.978,1027.821,138.793,1468.285,89.732,724.949-80.9,754.945,99.462,1288.256,139.947,430.889,32.709,986.241-205.39,1089.426-192.157" fill="none" stroke="#c9e6ec" stroke-width="0.574"/><path d="M-145.807,527.6C10.373,763.093,930.729,945.141,1741.521,884.593c519.263-38.99,1026,137.431,1466.561,88.252,725.18-81.1,755.523,100.077,1290.131,139.275,431.645,31.649,989.314-205.741,1094.807-190.052" fill="none" stroke="#c8e6ec" stroke-width="0.574"/><path d="M-132.823,522.847C24.515,757.534,942.568,939.2,1752.16,878.65c518.591-39,1024.175,136.068,1464.838,86.771,725.412-81.309,756.1,100.694,1292.006,138.6,432.4,30.588,992.386-206.092,1100.188-187.948" fill="none" stroke="#c8e5ec" stroke-width="0.574"/><path d="M-119.651,517.979C38.844,751.864,954.6,933.142,1762.988,872.6,2280.907,833.579,2785.34,1007.3,3226.1,957.888c725.643-81.515,756.677,101.31,1293.881,137.932,433.156,29.529,995.459-206.443,1105.569-185.844" fill="none" stroke="#c7e5ec" stroke-width="0.574"/><path d="M-106.31,513.007C53.343,746.09,966.793,926.983,1773.985,866.438c517.247-39.03,1020.529,133.343,1461.39,83.811,725.875-81.721,757.254,101.928,1295.756,137.261,433.911,28.47,998.532-206.794,1110.95-183.74" fill="none" stroke="#c7e4ec" stroke-width="0.574"/><path d="M-92.82,507.934C67.991,740.215,979.139,920.723,1785.131,860.18c516.575-39.044,1018.706,131.98,1459.666,82.331,726.107-81.927,757.83,102.545,1297.631,136.588,434.665,27.413,1001.605-207.145,1116.331-181.635" fill="none" stroke="#c6e4eb" stroke-width="0.574"/><path d="M-79.2,502.766C82.768,734.245,991.615,914.368,1796.406,853.825c515.9-39.056,1016.883,130.618,1457.942,80.851,726.339-82.132,758.406,103.165,1299.507,135.917,435.419,26.356,1004.677-207.5,1121.711-179.53" fill="none" stroke="#c6e4eb" stroke-width="0.574"/><path d="M-65.471,497.507C97.655,728.184,1004.2,907.923,1807.791,847.381c515.231-39.07,1015.059,129.255,1456.218,79.371,726.57-82.338,758.981,103.785,1301.382,135.245,436.173,25.3,1007.749-207.847,1127.092-177.426" fill="none" stroke="#c5e3eb" stroke-width="0.574"/><path d="M-51.652,492.163C112.631,722.038,1016.874,901.391,1819.265,840.851c514.56-39.084,1013.237,127.892,1454.5,77.89,726.8-82.543,759.556,104.406,1303.257,134.574,436.926,24.243,1010.822-208.2,1132.473-175.322" fill="none" stroke="#c5e3eb" stroke-width="0.574"/><path d="M-37.764,486.738c165.441,229.073,1067.383,408.041,1868.574,347.5,513.887-39.1,1011.414,126.53,1452.77,76.411,727.034-82.749,760.131,105.028,1305.133,133.9C5026.392,1067.741,5602.607,836,5726.567,871.335" fill="none" stroke="#c5e2eb" stroke-width="0.574"/><path d="M-23.824,481.236c166.6,228.271,1066.238,406.855,1866.229,346.316C2355.62,788.443,2852,952.719,3293.451,902.483c727.266-82.955,760.705,105.65,1307.008,133.23,438.432,22.135,1016.967-208.9,1143.235-171.113" fill="none" stroke="#c4e2eb" stroke-width="0.574"/><path d="M-9.855,475.664C157.9,703.133,1055.24,881.332,1854.03,820.794c512.544-39.123,1007.768,123.8,1449.323,73.45,727.5-83.16,761.278,106.274,1308.883,132.559,439.185,21.081,1020.04-209.251,1148.616-169.008" fill="none" stroke="#c4e1ea" stroke-width="0.574"/><path d="M4.126,470.025C173.04,696.692,1068.077,874.506,1865.667,813.969c511.871-39.136,1005.944,122.441,1447.6,71.97,727.73-83.366,761.852,106.9,1310.758,131.887,439.938,20.029,1023.113-209.6,1154-166.9" fill="none" stroke="#c3e1ea" stroke-width="0.574"/><path d="M18.1,464.325C188.169,690.19,1080.9,867.619,1877.294,807.083c511.2-39.149,1004.121,121.079,1445.875,70.49C4051.13,794,4085.593,985.1,4635.8,1008.789c440.689,18.976,1026.185-209.954,1159.377-164.8" fill="none" stroke="#c3e1ea" stroke-width="0.574"/><path d="M32.04,458.568C203.269,683.631,1093.7,860.675,1888.892,800.14c510.528-39.162,1002.3,119.716,1444.151,69.01,728.193-83.777,763,108.149,1314.509,130.544C5088.993,1017.619,5676.809,789.39,5812.31,837" fill="none" stroke="#c2e0ea" stroke-width="0.574"/><path d="M45.934,452.759C218.321,677.02,1106.453,853.679,1900.442,793.145,2410.3,753.97,2900.918,911.5,3342.869,860.675c728.425-83.983,763.57,108.776,1316.384,129.872,442.192,16.875,1032.33-210.655,1170.139-160.59" fill="none" stroke="#c2e0ea" stroke-width="0.574"/><path d="M59.76,446.9C233.305,670.362,1119.135,846.637,1911.924,786.1c509.184-39.189,998.653,116.99,1440.7,66.05,728.657-84.189,764.142,109.4,1318.259,129.2,442.943,15.825,1035.4-211.006,1175.52-158.486" fill="none" stroke="#c1dfe9" stroke-width="0.574"/><path d="M73.5,441.005C248.2,663.663,1131.729,839.552,1923.318,779.02c508.512-39.2,996.829,115.628,1438.979,64.57C4091.185,759.2,4127.01,953.621,4682.431,972.118c443.694,14.777,1038.476-211.357,1180.9-156.381" fill="none" stroke="#c1dfe9" stroke-width="0.574"/><path d="M87.129,435.07C262.988,656.925,1144.215,832.43,1934.6,771.9c507.84-39.215,995.006,114.265,1437.255,63.09,729.12-84.6,765.284,110.66,1322.009,127.857,444.445,13.728,1041.549-211.709,1186.282-154.278" fill="none" stroke="#c1dee9" stroke-width="0.574"/><path d="M100.631,429.1C277.649,650.156,1156.574,825.276,1945.762,764.745c507.168-39.228,993.184,112.9,1435.532,61.61,729.351-84.806,765.855,111.291,1323.884,127.185C5150.373,966.221,5749.8,741.481,5896.841,801.367" fill="none" stroke="#c0dee9" stroke-width="0.574"/><path d="M113.987,423.107c178.175,220.252,1054.8,394.986,1842.786,334.457,506.5-39.241,991.361,111.54,1433.808,60.13,729.583-85.012,766.426,111.921,1325.76,126.513,445.945,11.634,1047.693-212.41,1197.043-150.068" fill="none" stroke="#c0dee9" stroke-width="0.574"/><path d="M127.175,417.089c179.333,219.45,1053.654,393.8,1840.442,333.271,505.824-39.254,989.538,110.177,1432.084,58.649,729.815-85.217,767,112.554,1327.635,125.843C5174.031,945.439,5778.1,722.09,5929.761,786.887" fill="none" stroke="#bfdde8" stroke-width="0.574"/><path d="M140.176,411.053C320.667,629.7,1192.687,803.666,1978.274,743.138c505.153-39.268,987.715,108.815,1430.361,57.169,730.046-85.423,767.565,113.186,1329.51,125.171,447.444,9.542,1053.838-213.113,1207.8-145.86" fill="none" stroke="#bfdde8" stroke-width="0.574"/><path d="M152.971,405C334.619,622.849,1204.338,796.429,1988.725,735.9c504.48-39.281,985.892,107.452,1428.637,55.689,730.278-85.628,768.135,113.819,1331.385,124.5,448.194,8.5,1056.911-213.463,1213.186-143.755" fill="none" stroke="#bedce8" stroke-width="0.574"/><path d="M165.54,398.946C348.346,615.99,1215.762,789.185,1998.949,728.66c503.809-39.294,984.069,106.089,1426.913,54.209,730.51-85.835,768.705,114.453,1333.26,123.827,448.944,7.454,1059.984-213.815,1218.568-141.651" fill="none" stroke="#bedce8" stroke-width="0.574"/><path d="M177.863,392.885C361.826,609.127,1226.941,781.937,2008.928,721.413c503.136-39.308,982.245,104.726,1425.189,52.729C4164.858,688.1,4203.39,889.23,4769.252,897.3c449.692,6.411,1063.056-214.165,1223.948-139.546" fill="none" stroke="#bddbe8" stroke-width="0.574"/><path d="M189.919,386.826C375.04,602.265,1237.854,774.691,2018.64,714.167c502.465-39.32,980.423,103.364,1423.465,51.249C4173.079,679.17,4211.948,881.14,4779.116,887.9c450.441,5.368,1066.129-214.517,1229.329-137.442" fill="none" stroke="#bddbe8" stroke-width="0.574"/><path d="M201.69,380.772C387.969,595.41,1248.481,767.451,2028.067,706.928c501.793-39.334,978.6,102,1421.741,49.769,731.205-86.452,770.411,116.36,1338.886,121.812,451.19,4.326,1069.2-214.868,1234.71-135.338" fill="none" stroke="#bddbe7" stroke-width="0.574"/><path d="M213.156,374.546C400.592,588.382,1258.8,760.037,2037.188,699.516c501.121-39.347,976.777,100.638,1420.018,48.288,731.437-86.657,771.14,107,1340.761,121.141,451.811,11.215,1072.274-215.219,1240.091-133.233" fill="none" stroke="#bcdae7" stroke-width="0.574"/><path d="M224.3,368.542c188.594,213.033,1044.5,384.3,1821.688,323.783,500.448-39.36,974.953,99.276,1418.293,46.809C4195.947,652.271,4235.966,846.65,4806.914,859.6c452.576,10.267,1075.347-215.57,1245.472-131.129" fill="none" stroke="#bcdae7" stroke-width="0.574"/><path d="M235.092,362.559c189.752,212.232,1043.359,383.117,1819.344,322.6,499.777-39.373,973.131,97.913,1416.57,45.328,731.9-87.068,772.234,108.033,1344.511,119.8,453.34,9.319,1078.42-215.92,1250.853-129.024" fill="none" stroke="#bbd9e7" stroke-width="0.574"/><path d="M245.523,356.6c190.91,211.43,1042.215,381.93,1817,321.412,499.105-39.387,971.308,96.55,1414.846,43.848,732.132-87.274,772.78,108.553,1346.386,119.125,454.106,8.371,1081.492-216.271,1256.234-126.92" fill="none" stroke="#bbd9e7" stroke-width="0.574"/><path d="M255.57,350.678C447.637,561.306,1296.64,731.422,2070.225,670.9c498.433-39.4,969.485,95.188,1413.122,42.368,732.364-87.48,773.326,109.075,1348.262,118.454,454.87,7.42,1084.565-216.623,1261.614-124.816" fill="none" stroke="#bad8e6" stroke-width="0.574"/><path d="M265.213,344.789C458.437,554.615,1305.139,724.346,2077.524,663.83c497.761-39.413,967.661,93.824,1411.4,40.888,732.595-87.686,773.871,109.6,1350.137,117.782,455.635,6.47,1087.637-216.974,1266.995-122.711" fill="none" stroke="#bad8e6" stroke-width="0.574"/><path d="M274.431,338.942C468.813,547.966,1313.213,717.312,2084.4,656.8c497.089-39.426,965.839,92.462,1409.674,39.408,732.827-87.891,774.415,110.125,1352.013,117.11,456.4,5.52,1090.709-217.324,1272.376-120.606" fill="none" stroke="#b9d7e6" stroke-width="0.574"/><path d="M283.206,333.14c195.54,208.222,1037.638,377.184,1807.623,316.669,496.417-39.44,964.015,91.1,1407.95,37.927,733.059-88.1,774.959,110.655,1353.888,116.439,457.166,4.568,1093.782-217.675,1277.756-118.5" fill="none" stroke="#b9d7e6" stroke-width="0.574"/><path d="M291.518,327.341c196.7,207.419,1036.494,376,1805.278,315.482,495.745-39.452,962.193,89.737,1406.227,36.448,733.29-88.3,775.518,122.126,1355.762,115.767,457.919-5.019,1096.855-218.027,1283.138-116.4" fill="none" stroke="#b9d7e6" stroke-width="0.574"/><path d="M299.346,321.6C497.2,528.222,1334.7,696.413,2102.28,635.9c495.073-39.465,960.37,88.374,1404.5,34.968,733.522-88.508,776.084,122.771,1357.638,115.095,458.665-6.054,1099.927-218.377,1288.518-114.293" fill="none" stroke="#b8d6e6" stroke-width="0.574"/><path d="M306.671,315.925c199.013,205.816,1034.206,373.622,1800.59,313.11,494.4-39.479,958.547,87.012,1402.779,33.488,733.754-88.714,776.651,123.416,1359.513,114.423,459.413-7.088,1103-218.728,1293.9-112.189" fill="none" stroke="#b8d6e5" stroke-width="0.574"/><path d="M313.474,310.308c200.17,205.014,1033.062,372.436,1798.245,311.925,493.73-39.492,956.724,85.649,1401.056,32.008,733.985-88.92,777.216,124.062,1361.388,113.752,460.159-8.122,1106.072-219.08,1299.28-110.085" fill="none" stroke="#b7d5e5" stroke-width="0.574"/><path d="M319.734,304.76C521.062,508.972,1351.652,676.009,2115.635,615.5c493.058-39.5,954.9,84.286,1399.332,30.527,734.217-89.125,777.782,124.71,1363.263,113.081,460.906-9.155,1109.145-219.431,1304.661-107.981" fill="none" stroke="#b7d5e5" stroke-width="0.574"/><path d="M325.432,299.285C527.918,502.7,1356.206,669.347,2118.989,608.837c492.386-39.518,953.078,82.924,1397.608,29.048,734.449-89.331,778.348,125.357,1365.138,112.408,461.652-10.187,1112.218-219.781,1310.042-105.875" fill="none" stroke="#b6d4e5" stroke-width="0.574"/><path d="M330.548,293.887C534.191,496.5,1360.178,662.762,2121.761,602.254c491.713-39.532,951.254,81.56,1395.883,27.567,734.681-89.537,778.914,126.006,1367.014,111.737,462.4-11.219,1115.29-220.133,1315.423-103.771" fill="none" stroke="#b6d4e5" stroke-width="0.574"/><path d="M335.062,288.572c204.8,201.806,1028.486,367.688,1788.869,307.181,491.041-39.545,949.431,80.2,1394.159,26.087C4253,532.1,4297.57,748.5,4886.979,732.905c463.145-12.25,1118.363-220.483,1320.8-101.667" fill="none" stroke="#b5d4e4" stroke-width="0.574"/><path d="M338.955,283.345c205.959,201,1027.342,366.5,1786.524,306,490.37-39.558,947.609,78.835,1392.436,24.607C4253.059,524,4297.96,741.252,4888.679,724.34c463.891-13.28,1121.436-220.834,1326.185-99.562" fill="none" stroke="#b5d3e4" stroke-width="0.574"/><path d="M342.207,278.21c207.116,200.2,1026.2,365.315,1784.179,304.81,489.7-39.571,945.786,77.472,1390.712,23.126,735.376-90.153,780.61,127.956,1372.64,109.722,464.636-14.31,1124.508-221.185,1331.565-97.458" fill="none" stroke="#b5d3e4" stroke-width="0.574"/><path d="M344.8,273.174C553.071,472.574,1369.851,637.3,2126.633,576.8c489.025-39.584,943.962,76.11,1388.988,21.647,735.608-90.359,781.174,128.607,1374.514,109.05,465.383-15.34,1127.581-221.536,1336.947-95.354" fill="none" stroke="#b4d2e4" stroke-width="0.574"/><path d="M346.707,268.24C556.138,466.838,1370.616,631.181,2126.2,570.677c488.354-39.6,942.139,74.747,1387.264,20.167,735.84-90.565,781.74,129.26,1376.39,108.378,466.128-16.368,1130.653-221.887,1342.327-93.249" fill="none" stroke="#b4d2e4" stroke-width="0.574"/><path d="M347.916,263.414c210.589,197.8,1022.766,361.754,1777.147,301.251,487.682-39.611,940.316,73.385,1385.54,18.687,736.072-90.771,782.3,129.913,1378.265,107.707,466.874-17.4,1133.726-222.239,1347.708-91.145" fill="none" stroke="#b3d1e3" stroke-width="0.574"/><path d="M348.405,258.7c211.746,196.994,1021.621,360.567,1774.8,300.066,487.01-39.624,938.494,72.022,1383.817,17.206,736.3-90.976,782.869,130.567,1380.14,107.035,467.619-18.423,1136.8-222.589,1353.089-89.04" fill="none" stroke="#b3d1e3" stroke-width="0.574"/><path d="M348.153,254.1c212.9,196.192,1020.478,359.38,1772.459,298.88,486.338-39.637,936.67,70.659,1382.093,15.726,736.534-91.182,783.433,131.222,1382.015,106.364,468.365-19.45,1139.871-222.941,1358.47-86.936" fill="none" stroke="#b2d1e3" stroke-width="0.574"/><path d="M347.142,249.631C561.2,445.021,1366.476,607.824,2117.257,547.325c485.666-39.651,934.847,69.3,1380.369,14.246,736.766-91.388,784,131.877,1383.89,105.692,469.11-20.477,1142.944-223.292,1363.851-84.832" fill="none" stroke="#b2d0e3" stroke-width="0.574"/><path d="M345.352,245.285c215.219,194.588,1018.189,357.007,1767.77,296.508,484.994-39.663,933.024,67.934,1378.645,12.766,737-91.593,784.562,132.533,1385.765,105.02,469.856-21.5,1146.017-223.642,1369.232-82.727" fill="none" stroke="#b1d0e3" stroke-width="0.574"/><path d="M342.762,241.072c216.377,193.786,1017.045,355.82,1765.425,295.322,484.323-39.677,931.2,66.571,1376.922,11.286,737.23-91.8,785.126,133.189,1387.641,104.348,470.6-22.526,1149.089-223.993,1374.612-80.622" fill="none" stroke="#b1cfe3" stroke-width="0.574"/><path d="M339.353,237c217.535,192.985,1015.9,354.633,1763.081,294.136,483.651-39.69,929.379,65.209,1375.2,9.806,737.461-92,785.69,133.847,1389.516,103.677C5338.494,621.064,6019.309,420.27,6247.141,566.1" fill="none" stroke="#b1cfe2" stroke-width="0.574"/><path d="M335.105,233.063C553.8,425.245,1349.862,586.509,2095.842,526.013c482.979-39.7,927.556,63.846,1373.474,8.326,737.693-92.21,786.254,134.505,1391.391,103.005,472.091-24.574,1155.234-224.7,1385.374-76.414" fill="none" stroke="#b0cee2" stroke-width="0.574"/><path d="M330,229.277C549.849,420.658,1343.612,581.536,2088.391,521.041c482.307-39.716,925.733,62.483,1371.75,6.846,737.925-92.416,786.818,135.165,1393.266,102.334,472.837-25.6,1158.307-225.047,1390.756-74.31" fill="none" stroke="#b0cee2" stroke-width="0.574"/><path d="M324.014,225.644C545.021,416.222,1336.483,576.716,2080.062,516.222c481.635-39.729,923.91,61.12,1370.026,5.366,738.157-92.622,787.382,135.824,1395.142,101.661,473.581-26.62,1161.379-225.4,1396.136-72.2" fill="none" stroke="#afcee2" stroke-width="0.574"/><path d="M317.131,222.167C539.3,411.944,1328.456,572.053,2070.835,511.56c480.963-39.743,922.086,59.758,1368.3,3.885,738.388-92.827,787.946,136.485,1397.017,100.991,474.326-27.642,1164.452-225.749,1401.517-70.1" fill="none" stroke="#afcde2" stroke-width="0.574"/><path d="M309.33,218.854c223.323,188.974,1010.181,348.7,1751.36,288.206,480.291-39.755,920.263,58.4,1366.578,2.406,738.62-93.033,788.51,137.145,1398.892,100.318,475.071-28.663,1167.525-226.1,1406.9-68" fill="none" stroke="#aecde1" stroke-width="0.574"/><path d="M300.591,215.707C525.072,403.88,1309.629,563.219,2049.607,502.728c479.619-39.769,918.441,57.032,1364.855.925,738.851-93.239,789.073,137.808,1400.767,99.647,475.816-29.684,1170.6-226.451,1412.278-65.892" fill="none" stroke="#aecce1" stroke-width="0.574"/><path d="M290.9,212.732C516.534,400.1,1298.789,559.057,2037.567,498.567c478.947-39.782,916.617,55.67,1363.13-.555,739.084-93.444,789.637,138.471,1402.643,98.976C5279.9,566.283,5977.009,370.186,6221,533.2" fill="none" stroke="#adcce1" stroke-width="0.574"/><path d="M280.222,209.935c226.8,186.569,1006.75,345.138,1744.327,284.649,478.275-39.8,914.8,54.307,1361.407-2.035,739.316-93.65,790.2,139.134,1404.518,98.3,477.305-31.724,1176.742-227.153,1423.04-61.683" fill="none" stroke="#adcbe1" stroke-width="0.574"/><path d="M268.552,207.32C496.506,393.087,1274.158,551.271,2010.535,490.783c477.6-39.808,912.972,52.944,1359.683-3.515,739.547-93.856,790.764,139.8,1406.393,97.632,478.05-32.743,1179.815-227.5,1428.421-59.579" fill="none" stroke="#adcbe1" stroke-width="0.574"/><path d="M255.866,204.892C484.977,389.857,1260.327,547.656,1995.5,487.169c476.931-39.822,911.149,51.581,1357.959-5,739.779-94.062,791.328,140.462,1408.268,96.96,478.8-33.761,1182.888-227.855,1433.8-57.474" fill="none" stroke="#accbe0" stroke-width="0.574"/><path d="M242.142,202.655C472.411,386.818,1245.46,544.233,1979.437,483.747c476.259-39.835,909.325,50.219,1356.235-6.476C4075.683,383,4127.563,618.4,4745.815,573.56c479.54-34.779,1185.96-228.206,1439.183-55.37" fill="none" stroke="#accae0" stroke-width="0.574"/><path d="M227.363,200.616C458.79,383.977,1229.536,541.007,1962.313,480.522c475.588-39.849,907.5,48.856,1354.512-7.956,740.242-94.473,792.454,141.794,1412.018,95.617,480.285-35.8,1189.033-228.557,1444.564-53.265" fill="none" stroke="#abcae0" stroke-width="0.574"/><path d="M211.508,198.779C444.092,381.338,1212.537,537.982,1944.114,477.5c474.915-39.861,905.679,47.494,1352.787-9.435,740.474-94.679,793.018,142.461,1413.894,94.945C5191.824,526.2,5902.9,334.1,6160.74,511.847" fill="none" stroke="#abc9e0" stroke-width="0.574"/><path d="M194.557,197.148C428.3,378.905,1194.442,535.165,1924.819,474.682c474.243-39.875,903.856,46.13,1351.063-10.916,740.706-94.884,793.582,143.128,1415.769,94.273,481.774-37.829,1195.178-229.258,1455.326-49.056" fill="none" stroke="#aac9e0" stroke-width="0.574"/><path d="M176.491,195.729c234.9,180.955,998.741,336.83,1727.917,276.348,473.571-39.888,902.033,44.768,1349.34-12.4,740.937-95.09,794.145,143.8,1417.644,93.6,482.518-38.845,1198.25-229.61,1460.706-46.952" fill="none" stroke="#aac8e0" stroke-width="0.574"/><path d="M157.289,194.527c236.057,180.153,997.6,335.643,1725.573,275.161,472.9-39.9,900.21,43.406,1347.616-13.875,741.169-95.3,794.708,144.465,1419.519,92.93C5133.26,508.882,5851.32,318.782,6116.085,503.9" fill="none" stroke="#a9c8df" stroke-width="0.574"/><path d="M136.932,193.546C374.147,372.9,1133.385,528,1860.161,467.522c472.228-39.914,898.388,42.042,1345.892-15.356,741.4-95.5,795.272,145.135,1421.4,92.258,484.008-40.875,1204.395-230.311,1471.468-42.743" fill="none" stroke="#a9c8df" stroke-width="0.574"/><path d="M115.4,192.792c238.372,178.549,995.309,333.269,1720.884,272.79,471.556-39.927,896.565,40.68,1344.169-16.836,741.632-95.707,795.835,145.805,1423.269,91.587,484.753-41.889,1207.468-230.663,1476.85-40.639" fill="none" stroke="#a9c7df" stroke-width="0.574"/><path d="M92.675,192.269c239.53,177.747,994.165,332.083,1718.54,271.6,470.884-39.94,894.742,39.317,1342.445-18.316,741.864-95.912,796.4,146.476,1425.144,90.915,485.5-42.9,1210.541-231.014,1482.231-38.534" fill="none" stroke="#a8c7df" stroke-width="0.574"/><path d="M82.03,192.831c240.688,176.945,993.021,330.9,1716.2,270.418,470.212-39.954,892.919,37.955,1340.721-19.8,742.1-96.118,796.962,147.148,1427.02,90.243,486.242-43.915,1213.613-231.365,1487.611-36.429" fill="none" stroke="#a8c6df" stroke-width="0.574"/><path d="M73.494,193.163C315.339,369.307,1065.371,522.872,1787.346,462.4c469.54-39.967,891.095,36.592,1339-21.277,742.327-96.323,797.525,147.82,1428.9,89.572,486.986-44.928,1216.686-231.716,1492.991-34.325" fill="none" stroke="#a7c6de" stroke-width="0.574"/><path d="M64.887,193.1c243,175.342,990.733,328.522,1711.508,268.047,468.868-39.98,889.272,35.229,1337.273-22.757,742.559-96.529,798.088,148.493,1430.77,88.9,487.732-45.939,1219.759-232.066,1498.373-32.22" fill="none" stroke="#a7c5de" stroke-width="0.574"/><path d="M56.207,192.657C300.367,367.2,1045.8,519.992,1765.37,459.517c468.2-39.993,887.449,33.867,1335.549-24.236,742.791-96.735,798.652,149.166,1432.646,88.228,488.476-46.951,1222.831-232.418,1503.753-30.116" fill="none" stroke="#a6c5de" stroke-width="0.574"/><path d="M47.447,191.866C292.765,365.6,1035.892,518.014,1754.266,457.54c467.524-40.006,885.627,32.5,1333.826-25.716,743.022-96.941,799.215,149.841,1434.52,87.557,489.221-47.963,1225.9-232.769,1509.135-28.013" fill="none" stroke="#a6c5de" stroke-width="0.574"/><path d="M38.6,190.748c246.475,172.936,987.3,324.962,1704.474,264.489,466.852-40.02,883.8,31.141,1332.1-27.2,743.254-97.146,799.778,150.516,1436.4,86.885,489.965-48.972,1228.976-233.12,1514.515-25.907" fill="none" stroke="#a5c4de" stroke-width="0.574"/><path d="M29.674,189.328c247.634,172.133,986.157,323.774,1702.131,263.3,466.18-40.033,881.98,29.778,1330.378-28.677,743.486-97.352,800.342,151.191,1438.271,86.213,490.71-49.982,1232.049-233.471,1519.9-23.8" fill="none" stroke="#a5c4dd" stroke-width="0.574"/><path d="M20.653,187.629c248.791,171.332,985.012,322.588,1699.786,262.117,465.508-40.046,880.157,28.416,1328.654-30.157C3792.811,322.031,3850,571.457,4489.239,505.131c491.455-50.992,1235.121-233.822,1525.277-21.7" fill="none" stroke="#a4c3dd" stroke-width="0.574"/><path d="M11.535,185.676C261.484,356.205,995.4,507.076,1708.977,446.607c464.836-40.06,878.334,27.053,1326.93-31.638,743.949-97.763,801.469,152.545,1442.021,84.871,492.2-52,1238.194-234.173,1530.658-19.595" fill="none" stroke="#a4c3dd" stroke-width="0.574"/><path d="M2.316,183.491c251.107,169.728,982.725,320.214,1695.1,259.745,464.164-40.072,876.511,25.691,1325.206-33.117,744.181-97.969,802.033,153.222,1443.9,84.2,492.944-53.01,1241.266-234.524,1536.038-17.49" fill="none" stroke="#a4c2dd" stroke-width="0.574"/><path d="M-7.007,181.1C245.257,350.026,974.574,500.127,1685.746,439.659c463.493-40.085,874.689,24.328,1323.483-34.6,744.413-98.175,802.6,153.9,1445.771,83.527,493.69-54.017,1244.34-234.875,1541.42-15.386" fill="none" stroke="#a3c2dd" stroke-width="0.574"/><path d="M-16.439,178.526C236.982,346.65,964,496.367,1673.97,435.9c462.82-40.1,872.865,22.965,1321.758-36.078,744.645-98.38,803.16,154.579,1447.647,82.855,494.434-55.024,1247.412-235.226,1546.8-13.281" fill="none" stroke="#a3c2dd" stroke-width="0.574"/><path d="M-25.985,175.794C228.594,343.115,953.307,492.447,1662.079,431.981c462.149-40.112,871.043,21.6,1320.035-37.558,744.877-98.586,803.724,155.258,1449.522,82.184,495.179-56.031,1250.485-235.577,1552.182-11.177" fill="none" stroke="#a2c1dc" stroke-width="0.574"/><path d="M-35.649,172.926c255.737,166.52,978.148,315.466,1685.72,255,461.477-40.126,869.22,20.239,1318.311-39.038C3713.49,290.1,3772.67,544.828,4419.779,470.4c495.925-57.038,1253.558-235.928,1557.563-9.073" fill="none" stroke="#a2c1dc" stroke-width="0.574"/><path d="M-45.435,169.947c256.894,165.718,977,314.28,1683.376,253.816,460.805-40.138,867.4,18.877,1316.587-40.518,745.34-99,804.851,156.619,1453.272,80.84,496.67-58.043,1256.63-236.279,1562.944-6.967" fill="none" stroke="#a1c0dc" stroke-width="0.574"/><path d="M-55.348,166.882C202.7,331.8,920.513,479.975,1625.684,419.512c460.133-40.152,865.573,17.514,1314.863-42,745.572-99.2,805.415,157.3,1455.148,80.168,497.414-59.049,1259.7-236.63,1568.324-4.863" fill="none" stroke="#a1c0dc" stroke-width="0.574"/><path d="M-65.392,163.753C193.818,327.867,909.325,475.659,1613.3,415.2c459.461-40.164,863.751,16.152,1313.139-43.478,745.8-99.409,805.979,157.982,1457.023,79.5,498.16-60.054,1262.775-236.981,1573.705-2.759" fill="none" stroke="#a0bfdc" stroke-width="0.574"/><path d="M-75.571,160.586C184.8,323.9,898,471.305,1600.773,410.844c458.789-40.178,861.927,14.789,1311.415-44.958,746.035-99.615,806.543,158.664,1458.9,78.825,498.9-61.059,1265.848-237.332,1579.086-.655" fill="none" stroke="#a0bfdb" stroke-width="0.574"/><path d="M-85.889,157.4c261.525,162.51,972.428,309.532,1674,249.072,458.117-40.191,860.105,13.426,1309.692-46.438,746.266-99.82,807.107,159.347,1460.773,78.153,499.65-62.063,1268.92-237.683,1584.467,1.45" fill="none" stroke="#a0bfdb" stroke-width="0.574"/><path d="M-96.352,154.229C166.331,315.937,874.933,462.574,1575.3,402.115c457.445-40.2,858.282,12.064,1307.968-47.918,746.5-100.026,807.671,160.031,1462.648,77.482,500.4-63.067,1271.993-238.034,1589.848,3.554" fill="none" stroke="#9fbedb" stroke-width="0.574"/><path d="M-106.963,151.088c263.841,160.906,970.141,307.158,1669.311,246.7,456.773-40.217,856.459,10.7,1306.244-49.4,746.73-100.232,808.235,160.715,1464.524,76.81,501.14-64.07,1275.065-238.385,1595.228,5.658" fill="none" stroke="#9fbedb" stroke-width="0.574"/><path d="M-117.726,148c265,160.1,969,305.971,1666.966,245.514,456.1-40.231,854.636,9.338,1304.52-50.879,746.962-100.437,808.8,161.4,1466.4,76.139,501.886-65.073,1278.138-238.736,1600.61,7.763" fill="none" stroke="#9ebddb" stroke-width="0.574"/><path d="M-128.647,145C137.509,304.3,839.206,449.785,1535.975,389.328c455.43-40.244,852.813,7.976,1302.8-52.358,747.193-100.643,809.364,162.085,1468.274,75.466,502.631-66.074,1281.21-239.087,1605.99,9.868" fill="none" stroke="#9ebddb" stroke-width="0.574"/><path d="M-139.729,142.1C127.585,300.6,826.98,445.7,1522.549,385.243c454.757-40.257,850.989,6.613,1301.072-53.839,747.426-100.848,809.929,162.772,1470.15,74.8,503.376-67.077,1284.283-239.438,1611.371,11.972" fill="none" stroke="#9dbcda" stroke-width="0.574"/><path d="M-150.977,139.33C117.5,297.028,814.588,441.741,1508.957,381.287c454.085-40.27,849.166,5.25,1299.349-55.319C3555.963,224.914,3618.8,489.426,4280.33,400.091c504.122-68.077,1287.356-239.789,1616.752,14.077" fill="none" stroke="#9dbcda" stroke-width="0.574"/><path d="M-162.4,136.712c269.629,156.9,964.421,301.224,1657.59,240.771,453.413-40.283,847.343,3.887,1297.625-56.8,747.888-101.26,811.057,164.145,1473.9,73.452C4771.587,325.057,5557.147,154,5888.852,410.317" fill="none" stroke="#9cbcda" stroke-width="0.574"/><path d="M-173.987,134.271C96.8,290.365,789.289,434.308,1481.258,373.856c452.742-40.3,845.521,2.524,1295.9-58.279,748.121-101.466,811.622,164.833,1475.775,72.78,505.613-70.079,1293.5-240.491,1627.514,18.285" fill="none" stroke="#9cbbda" stroke-width="0.574"/><path d="M-185.758,131.918c271.944,155.292,962.132,298.85,1652.9,238.4,452.069-40.309,843.7,1.162,1294.177-59.759,748.352-101.671,812.187,165.522,1477.65,72.109,506.359-71.079,1296.573-240.842,1632.895,20.389" fill="none" stroke="#9cbbda" stroke-width="0.574"/><path d="M-197.712,129.089C75.39,283.579,763.276,426.753,1452.844,366.3c451.4-40.323,841.875-.2,1292.454-61.239,748.584-101.877,812.751,166.21,1479.525,71.436,507.1-72.078,1299.646-241.193,1638.275,22.5" fill="none" stroke="#9bbad9" stroke-width="0.574"/><path d="M-209.854,126.511C64.405,280.2,749.99,422.987,1438.358,362.538c450.726-40.337,840.052-1.564,1290.73-62.72,748.815-102.082,813.316,166.9,1481.4,70.765,507.851-73.078,1302.719-241.544,1643.656,24.6" fill="none" stroke="#9bbad9" stroke-width="0.574"/><path d="M-222.188,124.206C53.229,277.092,736.513,419.5,1423.68,359.047c450.054-40.349,838.229-2.926,1289.006-64.2,749.047-102.289,813.882,167.59,1483.275,70.093,508.6-74.077,1305.792-241.895,1649.038,26.7" fill="none" stroke="#9ab9d9" stroke-width="0.574"/><path d="M-234.718,122.2C41.857,274.284,722.839,416.3,1408.806,355.855c449.382-40.363,836.406-4.289,1287.282-65.68,749.279-102.494,814.447,168.281,1485.151,69.422C4690.582,284.522,5490.1,117.351,5835.657,388.4" fill="none" stroke="#9ab9d9" stroke-width="0.574"/><path d="M-247.448,120.515C30.284,271.8,708.964,413.431,1393.732,352.984c448.709-40.376,834.582-5.651,1285.558-67.16,749.51-102.7,815.012,168.972,1487.025,68.75,510.089-76.072,1311.937-242.6,1659.8,30.912" fill="none" stroke="#99b9d9" stroke-width="0.574"/><path d="M-260.383,119.176c278.89,150.48,955.268,291.729,1638.835,231.283,448.038-40.389,832.759-7.014,1283.834-68.64,749.743-102.905,815.578,169.664,1488.9,68.079,510.835-77.071,1315.009-242.948,1665.18,33.016" fill="none" stroke="#99b8d8" stroke-width="0.574"/><path d="M-273.528,118.206C6.52,267.885,680.6,408.749,1362.963,348.3c447.366-40.4,830.937-8.377,1282.11-70.12,749.975-103.111,816.144,170.356,1490.777,67.407,511.581-78.068,1318.081-243.3,1670.56,35.12" fill="none" stroke="#98b8d8" stroke-width="0.574"/><path d="M-286.886,117.631C-5.681,266.507,666.094,406.986,1347.261,346.542c446.694-40.415,829.113-9.739,1280.386-71.6,750.206-103.316,816.709,171.049,1492.652,66.735C4632.626,262.613,5441.453,98.027,5796.24,378.9" fill="none" stroke="#98b7d8" stroke-width="0.574"/><path d="M-300.462,117.473C-18.1,265.547,651.374,405.641,1331.34,345.2c446.022-40.428,827.291-11.1,1278.663-73.08C3360.441,168.6,3427.277,443.86,4104.529,338.182c513.075-80.061,1324.227-244,1681.323,39.329" fill="none" stroke="#98b7d8" stroke-width="0.574"/><path d="M-314.261,117.756C-30.74,265.029,636.431,404.738,1315.2,344.3c445.35-40.442,825.467-12.465,1276.938-74.56,750.67-103.728,817.841,172.436,1496.4,65.391,513.821-81.056,1327.3-244.352,1686.7,41.434" fill="none" stroke="#97b6d8" stroke-width="0.574"/><path d="M-328.286,118.505c284.679,146.47,949.548,285.8,1627.114,225.354,444.678-40.455,823.645-13.828,1275.215-76.041,750.9-103.933,818.406,173.131,1498.277,64.72,514.568-82.051,1330.372-244.7,1692.084,43.539" fill="none" stroke="#97b6d8" stroke-width="0.574"/><path d="M-342.542,119.743c285.836,145.668,948.4,284.608,1624.77,224.168,444.006-40.468,821.821-15.191,1273.491-77.521,751.133-104.139,818.972,173.826,1500.152,64.049,515.314-83.047,1333.445-245.055,1697.465,45.642" fill="none" stroke="#96b6d7" stroke-width="0.574"/><path d="M-357.033,121.494C-70.04,266.361,590.227,404.915,1265.392,344.476c443.334-40.481,820-16.553,1271.767-79C3288.524,161.13,3356.7,440,4039.187,328.852,4555.248,244.811,5375.7,83.447,5742.033,376.6" fill="none" stroke="#96b5d7" stroke-width="0.574"/><path d="M-371.764,123.782c288.151,144.065,946.115,282.235,1620.081,221.8,442.662-40.494,818.175-17.915,1270.043-80.48,751.6-104.551,820.105,175.217,1503.9,62.7,516.807-85.036,1339.589-245.756,1708.226,49.851" fill="none" stroke="#95b5d7" stroke-width="0.574"/><path d="M-386.74,126.632C-97.431,269.894,558.232,407.679,1231,347.242c441.991-40.508,816.352-19.278,1268.32-81.961,751.828-104.756,820.671,175.914,1505.777,62.034,517.555-86.03,1342.663-246.108,1713.608,51.956" fill="none" stroke="#95b4d7" stroke-width="0.574"/><path d="M-401.963,130.066C-111.5,272.527,541.864,409.927,1213.429,349.49c441.319-40.52,814.529-20.641,1266.6-83.44,752.059-104.962,821.237,176.61,1507.653,61.361,518.3-87.023,1345.735-246.458,1718.988,54.061" fill="none" stroke="#94b4d7" stroke-width="0.574"/><path d="M-417.44,134.109c291.624,141.659,942.684,278.674,1613.048,218.239,440.647-40.534,812.707-22,1264.872-84.921,752.292-105.168,821.8,177.308,1509.528,60.69,519.049-88.016,1348.808-246.809,1724.37,56.165" fill="none" stroke="#94b3d6" stroke-width="0.574"/><path d="M-433.173,138.785c292.781,140.857,941.539,277.487,1610.7,217.053,439.975-40.547,810.884-23.366,1263.149-86.4,752.523-105.374,822.371,178.007,1511.4,60.018,519.8-89.008,1351.88-247.16,1729.75,58.27" fill="none" stroke="#94b3d6" stroke-width="0.574"/><path d="M-449.169,144.118c293.94,140.055,940.4,276.3,1608.36,215.867,439.3-40.56,809.061-24.729,1261.424-87.881,752.755-105.579,822.938,178.705,1513.279,59.346,520.544-90,1354.953-247.511,1735.131,60.374" fill="none" stroke="#93b3d6" stroke-width="0.574"/><path d="M-465.429,150.132c295.1,139.253,939.251,275.113,1606.015,214.68,438.631-40.573,807.237-26.091,1259.7-89.361,752.987-105.785,823.505,179.4,1515.154,58.675C4436.731,243.133,5273.465,86.264,5655.952,396.6" fill="none" stroke="#93b2d6" stroke-width="0.574"/><path d="M-481.961,156.85c296.255,138.451,938.108,273.926,1603.672,213.5,437.959-40.587,805.414-27.455,1257.976-90.842,753.218-105.99,824.072,180.1,1517.029,58,522.039-91.985,1361.1-248.214,1745.893,64.582" fill="none" stroke="#92b2d6" stroke-width="0.574"/><path d="M-498.766,164.3C-201.354,301.945,438.2,437.036,1102.561,376.605c437.287-40.6,803.591-28.817,1256.252-92.321,753.451-106.2,824.64,180.8,1518.9,57.331C4400.5,248.64,5241.888,93.051,5628.991,408.3" fill="none" stroke="#92b1d5" stroke-width="0.574"/><path d="M-515.851,172.5c298.57,136.847,935.82,271.553,1598.983,211.123,436.615-40.613,801.768-30.179,1254.529-93.8,753.682-106.4,825.207,181.505,1520.779,56.66C4381.974,252.51,5225.683,97.561,5615.1,415.268" fill="none" stroke="#91b1d5" stroke-width="0.574"/><path d="M-533.218,181.471C-233.491,317.516,401.457,451.836,1063.42,391.408c435.943-40.626,799.946-31.543,1252.8-95.282C3070.139,189.519,3142,478.332,3838.88,352.114c524.282-94.957,1370.315-249.266,1762.035,70.9" fill="none" stroke="#91b0d5" stroke-width="0.574"/><path d="M-550.874,191.246C-249.988,326.489,382.658,460.425,1043.421,400c435.271-40.64,798.122-32.906,1251.081-96.762,754.145-106.813,826.342,182.908,1524.529,55.316,525.03-95.947,1373.389-249.617,1767.417,73" fill="none" stroke="#90b0d5" stroke-width="0.574"/><path d="M-568.821,201.846c302.043,134.441,932.388,267.992,1591.95,207.565,434.6-40.652,796.3-34.268,1249.357-98.242,754.377-107.018,826.911,183.61,1526.405,54.645,525.778-96.937,1376.461-249.968,1772.8,75.1" fill="none" stroke="#90b0d5" stroke-width="0.574"/><path d="M-587.064,213.294c303.2,133.639,931.243,266.8,1589.605,206.379,433.928-40.665,794.477-35.63,1247.634-99.722,754.608-107.224,827.478,184.313,1528.28,53.974C4304.981,276,5157.988,123.605,5556.633,451.134" fill="none" stroke="#90afd5" stroke-width="0.574"/><path d="M-605.608,225.614c304.358,132.837,930.1,265.618,1587.261,205.193,433.255-40.679,792.653-36.993,1245.91-101.2,754.84-107.43,828.046,185.016,1530.155,53.3,527.274-98.916,1382.606-250.671,1783.559,79.313" fill="none" stroke="#8fafd4" stroke-width="0.574"/><path d="M-624.457,238.83C-318.942,370.865,304.5,503.261,960.46,442.837c432.583-40.692,790.83-38.356,1244.185-102.682,755.072-107.636,828.615,185.719,1532.031,52.63,528.023-99.9,1385.679-251.021,1788.94,81.418" fill="none" stroke="#8faed4" stroke-width="0.574"/><path d="M-637.022,247.807C-330.349,379.04,290.789,511.052,945.551,450.629c431.911-40.705,789.007-39.719,1242.462-104.162,755.3-107.842,829.183,186.423,1533.905,51.958C4250.69,297.532,5110.67,147.053,5516.239,481.947" fill="none" stroke="#8eaed4" stroke-width="0.574"/><path d="M-643.723,252.4C-335.892,382.827,282.944,514.453,936.505,454.031c431.24-40.718,787.185-41.081,1240.739-105.642C2932.779,240.342,3007,535.517,3713.024,399.675c529.521-101.88,1391.824-251.723,1799.7,85.627" fill="none" stroke="#8eadd4" stroke-width="0.574"/><path d="M-650.468,257.06C-341.48,386.689,275.055,517.931,927.416,457.51c430.568-40.732,785.361-42.444,1239.014-107.123C2922.2,242.135,2996.751,538.22,3704.086,401c530.269-102.868,1394.9-252.074,1805.083,87.731" fill="none" stroke="#8dadd4" stroke-width="0.574"/><path d="M-657.26,261.8C-347.113,390.626,267.12,521.483,918.28,461.063c429.9-40.745,783.539-43.807,1237.291-108.6C2911.57,244,2986.46,541,3695.1,402.4c531.018-103.856,1397.969-252.426,1810.464,89.835" fill="none" stroke="#8dadd3" stroke-width="0.574"/><path d="M-664.1,266.611c311.3,128.025,923.236,258.5,1573.2,198.078,429.224-40.758,781.715-45.17,1235.567-110.083,756.23-108.664,831.458,189.245,1541.406,49.272,531.767-104.843,1401.042-252.777,1815.844,91.94" fill="none" stroke="#8cacd3" stroke-width="0.574"/><path d="M-670.987,271.493C-358.525,398.716,251.1,528.8,899.864,468.385c428.552-40.771,779.893-46.532,1233.843-111.563,756.462-108.869,832.028,189.951,1543.282,48.6C4209.5,299.593,5081.1,152.295,5498.214,499.467" fill="none" stroke="#8cacd3" stroke-width="0.574"/><path d="M-677.927,276.444C-364.307,402.866,243.021,532.568,890.58,472.151c427.88-40.785,778.07-47.9,1232.119-113.043,756.694-109.076,832.6,190.658,1545.157,47.928,533.265-106.816,1407.187-253.479,1826.606,96.149" fill="none" stroke="#8cabd3" stroke-width="0.574"/><path d="M-684.919,281.462c314.777,125.62,919.8,254.937,1566.163,194.521,427.208-40.8,776.246-49.258,1230.4-114.523,756.926-109.281,833.167,191.365,1547.032,47.256,534.014-107.8,1410.259-253.829,1831.987,98.254" fill="none" stroke="#8babd3" stroke-width="0.574"/><path d="M-691.966,286.573c315.934,124.818,918.659,253.75,1563.818,193.335,426.537-40.811,774.424-50.62,1228.672-116,757.157-109.486,833.736,192.074,1548.907,46.585C4184.194,301.7,5062.763,156.309,5486.8,510.847" fill="none" stroke="#8baad2" stroke-width="0.574"/><path d="M-699.069,293.483C-381.977,417.5,218.446,546.045,862.405,485.631c425.864-40.824,772.6-51.983,1226.947-117.483,757.39-109.693,834.307,192.781,1550.783,45.913,535.513-109.773,1416.4-254.531,1842.748,102.462" fill="none" stroke="#8aaad2" stroke-width="0.574"/><path d="M-706.231,300.455C-387.981,423.669,210.14,551.831,852.9,491.418c425.193-40.837,770.778-53.346,1225.224-118.964C2835.744,262.556,2913,565.944,3630.78,417.7c536.263-110.758,1419.478-254.883,1848.13,104.567" fill="none" stroke="#8aaad2" stroke-width="0.574"/><path d="M-713.452,307.488C-394.044,429.9,201.775,557.678,843.334,497.265c424.52-40.85,768.955-54.708,1223.5-120.443,757.853-110.1,835.446,194.2,1554.533,44.57,537.012-111.743,1422.55-255.234,1853.51,106.671" fill="none" stroke="#89a9d2" stroke-width="0.574"/><path d="M-720.734,314.581c320.565,121.61,914.083,249,1554.442,188.591,423.848-40.864,767.131-56.071,1221.775-121.924,758.085-110.309,836.017,194.909,1556.408,43.9,537.763-112.728,1425.623-255.585,1858.892,108.775" fill="none" stroke="#89a9d2" stroke-width="0.574"/><path d="M-728.079,321.731c321.722,120.808,912.939,247.815,1552.1,187.405,423.176-40.877,765.308-57.434,1220.052-123.4,758.316-110.515,836.587,195.619,1558.283,43.227,538.513-113.712,1428.695-255.936,1864.272,110.88" fill="none" stroke="#88a8d2" stroke-width="0.574"/><path d="M-735.49,328.936c322.881,120.006,911.8,246.629,1549.753,186.219,422.505-40.89,763.486-58.8,1218.329-124.884C2791.14,279.551,2869.75,586.6,3592.75,432.826,4132.013,318.131,5024.518,176.54,5462.4,545.811" fill="none" stroke="#88a8d1" stroke-width="0.574"/><path d="M-742.966,336.2C-418.928,455.4,167.685,581.636,804.443,521.228c421.832-40.9,761.662-60.159,1216.6-126.364,758.779-110.927,837.729,197.04,1562.033,41.883C4123.093,321.068,5017.921,180.11,5458.114,551.836" fill="none" stroke="#88a7d1" stroke-width="0.574"/><path d="M-750.511,343.505C-425.315,461.906,159,587.759,794.553,527.352c421.161-40.916,759.84-61.522,1214.881-127.844,759.011-111.132,838.3,197.751,1563.909,41.211,540.763-116.662,1437.912-256.988,1880.414,117.194" fill="none" stroke="#87a7d1" stroke-width="0.574"/><path d="M-758.126,350.864c326.353,117.6,908.363,243.068,1542.72,182.662,420.489-40.93,758.017-62.885,1213.157-129.325,759.243-111.338,838.871,198.463,1565.784,40.54C4105.049,327.1,5004.52,187.4,5449.331,564.039" fill="none" stroke="#87a7d1" stroke-width="0.574"/><path d="M-765.812,358.271C-438.3,475.069,141.407,600.152,774.564,539.747,1194.38,498.8,1530.757,475.5,1986,408.942c759.474-111.543,839.442,199.176,1567.659,39.869,542.264-118.628,1444.058-257.691,1891.176,121.4" fill="none" stroke="#86a6d1" stroke-width="0.574"/><path d="M-773.572,365.724C-444.9,481.72,132.5,606.418,764.46,546.014c419.145-40.956,754.37-65.61,1209.709-132.285,759.706-111.749,840.014,199.888,1569.534,39.2,543.015-119.61,1447.131-258.042,1896.557,123.506" fill="none" stroke="#86a6d0" stroke-width="0.574"/><path d="M-781.407,373.22c329.827,115.194,904.931,239.508,1535.688,179.1,418.473-40.969,752.547-66.972,1207.985-133.764,759.938-111.955,840.586,200.6,1571.409,38.525,543.766-120.592,1450.2-258.393,1901.939,125.611" fill="none" stroke="#85a5d0" stroke-width="0.574"/><path d="M-789.318,380.759c330.984,114.392,903.787,238.32,1533.343,177.918,417.8-40.983,750.724-68.335,1206.261-135.245,760.17-112.16,841.158,201.314,1573.285,37.853C4068.088,339.712,4976.847,202.542,5430.89,589" fill="none" stroke="#85a5d0" stroke-width="0.574"/><path d="M-797.308,388.337c332.142,113.59,902.643,237.134,1531,176.732,417.129-40.995,748.9-69.7,1204.537-136.725,760.4-112.366,841.73,202.029,1575.16,37.182,545.268-122.555,1456.349-259.1,1912.7,129.82" fill="none" stroke="#84a4d0" stroke-width="0.574"/><path d="M-805.378,395.954C-472.079,508.742,96.121,631.9,723.277,571.5c416.457-41.009,747.078-71.061,1202.813-138.2,760.634-112.572,842.3,202.742,1577.035,36.51,546.02-123.536,1459.421-259.446,1918.081,131.924" fill="none" stroke="#84a4d0" stroke-width="0.574"/><path d="M-813.53,403.606c334.457,111.986,900.355,234.76,1526.31,174.36,415.786-41.022,745.256-72.423,1201.09-139.685C2674.735,325.5,2756.744,641.738,3492.78,474.12c546.771-124.517,1462.494-259.8,1923.462,134.028" fill="none" stroke="#84a4d0" stroke-width="0.574"/><path d="M-821.765,411.293C-486.151,522.477,77.445,644.866,702.2,584.467c415.113-41.035,743.432-73.786,1199.366-141.165,761.1-112.983,843.446,204.172,1580.785,35.167C4029.874,352.971,4947.918,218.321,5411.2,614.6" fill="none" stroke="#83a3cf" stroke-width="0.574"/><path d="M-830.086,419.012C-493.314,529.394,67.981,651.4,691.536,591c414.441-41.048,741.609-75.149,1197.642-142.645,761.328-113.189,844.019,204.887,1582.661,34.5,548.274-126.478,1468.638-260.5,1934.223,138.237" fill="none" stroke="#83a3cf" stroke-width="0.574"/><path d="M-838.494,426.761c337.93,109.58,896.923,231.2,1519.278,170.8C1094.553,556.5,1420.57,521.052,1876.7,453.438c761.56-113.394,844.592,205.6,1584.536,33.823C4010.264,359.8,4932.949,226.412,5400.843,627.6" fill="none" stroke="#82a2cf" stroke-width="0.574"/><path d="M-846.99,434.539C-507.9,543.317,48.789,664.551,669.943,604.155c413.1-41.074,737.964-77.874,1194.2-145.6C2625.93,344.95,2709.3,664.869,3450.549,491.7c549.777-128.437,1474.784-261.2,1944.985,142.447" fill="none" stroke="#82a2cf" stroke-width="0.574"/><path d="M-855.576,442.343C-515.331,550.319,39.058,671.169,659.012,610.774c412.426-41.088,736.141-79.237,1192.471-147.086,762.024-113.806,845.739,207.036,1588.286,32.48C3990.3,366.751,4917.626,234.616,5390.136,640.719" fill="none" stroke="#81a1cf" stroke-width="0.574"/><path d="M-864.255,450.172c341.4,107.174,893.49,227.639,1512.244,167.245,411.754-41.1,734.318-80.6,1190.747-148.566C2600.992,354.839,2685.048,676.6,3428.9,500.659c551.281-130.4,1480.929-261.9,1955.747,146.655" fill="none" stroke="#81a1ce" stroke-width="0.574"/><path d="M-873.028,458.023C-530.467,564.4,19.319,684.475,636.873,624.082c411.081-41.114,732.494-81.962,1189.023-150.046,762.487-114.217,846.885,208.471,1592.036,31.137,552.034-131.375,1484-262.254,1961.128,148.76" fill="none" stroke="#80a0ce" stroke-width="0.574"/><path d="M-881.9,465.9C-538.178,571.466,9.307,691.161,625.66,630.769c410.41-41.128,730.672-83.325,1187.3-151.526,762.718-114.423,847.459,209.188,1593.911,30.465C3959.658,377.354,4893.946,247.1,5373.38,660.572" fill="none" stroke="#80a0ce" stroke-width="0.574"/><path d="M-890.861,473.787C-545.985,578.555-.8,697.865,614.351,637.474c409.738-41.141,728.848-84.687,1185.575-153.006,762.951-114.629,848.034,209.906,1595.787,29.793C3949.252,380.929,4885.86,251.305,5367.6,667.23" fill="none" stroke="#7fa0ce" stroke-width="0.574"/><path d="M-899.925,481.7C-553.892,585.662-11.01,704.586,602.943,644.2c409.066-41.154,727.025-86.05,1183.851-154.486,763.182-114.834,848.608,210.625,1597.662,29.122,554.292-134.311,1493.22-263.307,1977.271,155.073" fill="none" stroke="#7f9fce" stroke-width="0.574"/><path d="M-909.09,489.618C-561.9,592.783-21.319,711.323,591.434,650.934c408.394-41.167,725.2-87.413,1182.127-155.967,763.414-115.04,849.182,211.344,1599.538,28.45C3928.143,388.129,4869.391,259.76,5355.75,680.6" fill="none" stroke="#7f9fcd" stroke-width="0.574"/><path d="M-918.356,497.555C-570.008,599.917-31.73,718.072,579.823,657.684c407.722-41.18,723.379-88.775,1180.4-157.446,763.646-115.246,849.757,212.063,1601.413,27.778C3917.436,391.75,4861,264.007,5349.671,687.3" fill="none" stroke="#7e9ecd" stroke-width="0.574"/><path d="M-927.727,505.5C-578.221,607.063-42.245,724.833,568.107,664.446c407.05-41.194,721.557-90.138,1178.68-158.927,763.878-115.451,850.331,212.783,1603.288,27.107,556.55-137.243,1502.437-264.36,1993.413,161.386" fill="none" stroke="#7e9ecd" stroke-width="0.574"/><path d="M-937.2,513.459C-586.54,614.218-52.866,731.6,556.286,671.217c406.378-41.207,719.734-91.5,1176.956-160.407,764.11-115.657,850.906,213.5,1605.163,26.435,557.3-138.22,1505.51-264.711,1998.794,163.491" fill="none" stroke="#7d9dcd" stroke-width="0.574"/><path d="M-946.788,521.423C-594.967,621.38-63.594,738.38,544.358,678c405.706-41.22,717.91-92.863,1175.232-161.886,764.341-115.863,851.481,214.223,1607.038,25.763,558.057-139.2,1508.583-265.062,2004.175,165.6" fill="none" stroke="#7d9dcd" stroke-width="0.574"/><path d="M-956.481,529.393c352.979,99.155,882.05,215.77,1488.8,155.386,405.034-41.233,716.087-94.226,1173.508-163.367C2470.4,405.344,2557.885,736.356,3314.742,546.5,3873.553,406.33,4826.4,281.091,5324.3,714.2" fill="none" stroke="#7c9dcd" stroke-width="0.574"/><path d="M-966.286,537.367c354.137,98.352,880.907,214.583,1486.458,154.2,404.363-41.247,714.265-95.589,1171.785-164.847,764.8-116.274,852.631,215.665,1610.788,24.42,559.564-141.151,1514.728-265.764,2014.937,169.8" fill="none" stroke="#7c9ccc" stroke-width="0.574"/><path d="M-976.2,545.342c355.294,97.55,879.762,213.4,1484.113,153.014C911.6,657.1,1220.353,601.4,1677.972,532.029c765.036-116.48,853.207,216.387,1612.664,23.748,560.317-142.126,1517.8-266.115,2020.317,171.908" fill="none" stroke="#7b9ccc" stroke-width="0.574"/><path d="M-986.233,553.317c356.452,96.748,878.618,212.209,1481.769,151.828,403.019-41.273,710.619-98.315,1168.337-167.807,765.268-116.686,853.783,217.108,1614.539,23.076,561.072-143.1,1520.873-266.466,2025.7,174.013" fill="none" stroke="#7b9bcc" stroke-width="0.574"/><path d="M-996.38,561.289c357.61,95.947,877.474,211.023,1479.425,150.643,402.347-41.286,708.8-99.677,1166.613-169.288,765.5-116.891,854.359,217.831,1616.414,22.4C3827.9,420.971,4790.018,298.232,5297.152,741.166" fill="none" stroke="#7b9bcc" stroke-width="0.574"/><path d="M-1006.644,569.258C-647.877,664.4-130.314,779.094,470.437,718.714c401.674-41.3,706.972-101.039,1164.889-170.767,765.731-117.1,854.935,218.553,1618.289,21.733C3816.2,424.627,4780.633,302.512,5290.075,747.9" fill="none" stroke="#7a9acc" stroke-width="0.574"/><path d="M-1017.028,577.221C-657.1,671.564-141.842,785.87,457.708,725.491c401-41.312,705.15-102.4,1163.166-172.247,765.963-117.3,855.511,219.276,1620.164,21.061,563.334-146.028,1530.091-267.519,2041.841,180.326" fill="none" stroke="#7a9acb" stroke-width="0.574"/><path d="M-1027.533,585.176C-666.45,678.716-153.491,792.638,444.859,732.26,845.19,690.935,1148.186,628.5,1606.3,558.533c766.194-117.509,856.088,220,1622.039,20.389,564.089-147,1533.164-267.87,2047.222,182.431" fill="none" stroke="#799acb" stroke-width="0.574"/><path d="M-1038.16,593.121c362.24,92.738,872.9,206.275,1470.048,145.9,399.658-41.338,701.5-105.128,1159.717-175.207C2358.031,446.1,2448.27,784.535,3215.52,583.53c564.843-147.978,1536.236-268.221,2052.6,184.534" fill="none" stroke="#7999cb" stroke-width="0.574"/><path d="M-1048.912,601.054c363.4,91.937,871.754,205.088,1467.7,144.713,398.987-41.352,699.68-106.491,1157.994-176.688,766.658-117.919,857.241,221.447,1625.79,19.046,565.6-148.952,1539.308-268.571,2057.984,186.64" fill="none" stroke="#7899cb" stroke-width="0.574"/><path d="M-1059.791,608.974c364.556,91.135,870.61,203.9,1465.36,143.527,398.315-41.365,697.857-107.854,1156.27-178.168C2328.728,456.208,2419.657,796.5,3189.5,592.708c566.352-149.927,1542.381-268.923,2063.364,188.743" fill="none" stroke="#7898cb" stroke-width="0.574"/><path d="M-1070.8,616.878c365.713,90.333,869.466,202.715,1463.015,142.341C789.861,717.841,1088.253,650,1546.764,579.571c767.122-118.331,858.4,222.9,1629.541,17.7C3743.412,446.374,4721.758,328,5245.05,788.122" fill="none" stroke="#7798ca" stroke-width="0.574"/><path d="M-1081.933,624.765C-715.062,714.3-213.611,826.293,378.738,765.92c396.971-41.391,694.212-110.579,1152.823-181.128,767.353-118.537,858.973,223.621,1631.415,17.031C3730.838,449.949,4711.5,332.2,5237.1,794.776" fill="none" stroke="#7797ca" stroke-width="0.574"/><path d="M-1093.2,632.633C-725.171,721.362-226.022,832.973,365.127,772.6c396.3-41.4,692.388-111.942,1151.1-182.608,767.584-118.743,859.55,224.345,1633.29,16.359,568.618-152.848,1551.6-269.976,2079.507,195.057" fill="none" stroke="#7797ca" stroke-width="0.574"/><path d="M-1104.6,640.479c369.187,87.927,866.034,199.154,1455.983,138.783,395.627-41.418,690.565-113.3,1149.374-184.088,767.817-118.948,860.129,225.071,1635.166,15.688C3705.3,457.041,4690.6,340.535,5220.811,808.023" fill="none" stroke="#7697ca" stroke-width="0.574"/><path d="M-1116.134,648.3C-745.791,735.427-251.244,846.269,337.5,785.9c394.955-41.43,688.742-114.666,1147.651-185.568,768.048-119.153,860.706,225.8,1637.041,15.017C3692.324,460.553,4679.94,344.67,5212.465,814.613" fill="none" stroke="#7696ca" stroke-width="0.574"/><path d="M-1127.8,656.1C-756.3,742.424-264.06,852.881,323.488,792.512c394.284-41.444,686.92-116.029,1145.927-187.049C2237.7,486.1,2330.7,831.987,3108.332,619.808c570.884-155.767,1560.816-271.029,2095.65,201.37" fill="none" stroke="#7596ca" stroke-width="0.574"/><path d="M-1139.615,663.872c372.659,85.521,862.6,195.593,1448.95,135.225,393.611-41.457,685.1-117.392,1144.2-188.528C2222.05,491,2315.4,837.819,3094.329,624.242c571.64-156.74,1563.89-271.38,2101.031,203.474" fill="none" stroke="#7595c9" stroke-width="0.574"/><path d="M-1151.564,671.614c373.817,84.719,861.458,194.407,1446.606,134.04C687.981,764.183,978.315,686.9,1437.521,615.645c768.743-119.77,862.442,227.977,1642.666,13,572.4-157.713,1566.962-271.731,2106.412,205.579" fill="none" stroke="#7495c9" stroke-width="0.574"/><path d="M-1163.654,679.326C-788.68,763.243-303.34,872.546,280.607,812.18,672.874,770.7,962.057,692.062,1421.362,620.691c768.975-119.976,863.021,228.7,1644.542,12.33C3639.056,474.336,4635.938,360.939,5177.7,840.7" fill="none" stroke="#7494c9" stroke-width="0.574"/><path d="M-1175.888,687.005c376.132,83.115,859.17,192.033,1441.917,131.668,391.6-41.5,679.627-121.48,1139.031-192.969,769.207-120.182,863.6,229.432,1646.417,11.658C3625.385,477.706,4624.584,364.929,5168.651,847.15" fill="none" stroke="#7394c9" stroke-width="0.574"/><path d="M-1188.267,694.65C-810.977,776.963-330.241,885.5,251.306,825.131c390.923-41.509,677.8-122.842,1137.307-194.448,769.439-120.388,864.179,230.159,1648.293,10.986C3611.57,481.041,4613.085,368.885,5159.46,853.561" fill="none" stroke="#7394c9" stroke-width="0.574"/><path d="M-1200.792,702.258c378.447,81.511,856.882,189.659,1437.228,129.3C626.688,790.031,912.417,707.348,1372.02,635.625c769.67-120.594,864.758,230.887,1650.167,10.314,575.421-161.6,1579.253-273.135,2127.936,214" fill="none" stroke="#7393c8" stroke-width="0.574"/><path d="M-1213.466,709.827c379.6,80.71,855.738,188.473,1434.884,128.111C611,796.4,895.576,712.369,1355.278,640.528c769.9-120.8,865.338,231.617,1652.043,9.644C3583.5,487.6,4589.646,376.685,5140.637,866.273" fill="none" stroke="#7293c8" stroke-width="0.574"/><path d="M-1226.29,717.357C-845.527,797.264-371.7,904.642,206.25,844.281,595.158,802.732,878.585,717.35,1338.386,645.392,2108.52,524.387,2204.3,877.737,2992.3,654.363,3569.238,490.821,4577.7,380.526,5131,872.569" fill="none" stroke="#7292c8" stroke-width="0.574"/><path d="M-1239.265,724.844c381.92,79.106,853.45,186.1,1430.2,125.739,388.236-41.563,670.513-128.294,1130.413-200.37,770.365-121.21,866.5,233.074,1655.793,8.3C3554.826,494,4565.606,384.325,5121.213,878.823" fill="none" stroke="#7192c8" stroke-width="0.574"/><path d="M-1252.394,732.288C-869.316,810.591-400.088,917.2,175.457,856.84c387.564-41.576,668.689-129.656,1128.689-201.85,770.6-121.415,867.077,233.8,1657.668,7.629,578.447-165.485,1591.542-274.54,2149.458,222.414" fill="none" stroke="#7191c8" stroke-width="0.574"/><path d="M-1265.678,739.685c384.235,77.5,851.161,183.725,1425.507,123.366C546.721,821.462,826.7,732.033,1286.793,659.722c770.829-121.622,867.658,234.533,1659.544,6.956,579.2-166.455,1594.615-274.89,2154.839,224.519" fill="none" stroke="#7091c7" stroke-width="0.574"/><path d="M-1279.119,747.034c385.393,76.7,850.017,182.538,1423.162,122.181,386.22-41.6,665.044-132.382,1125.241-204.81,771.061-121.827,868.238,235.263,1661.419,6.285,579.962-167.425,1597.688-275.241,2160.22,226.623" fill="none" stroke="#7091c7" stroke-width="0.574"/><path d="M-1292.719,754.334c386.551,75.9,848.874,181.351,1420.818,121,385.549-41.616,663.221-133.745,1123.518-206.29,771.292-122.033,868.818,235.993,1663.293,5.613,580.719-168.4,1600.761-275.592,2165.6,228.728" fill="none" stroke="#6f90c7" stroke-width="0.574"/><path d="M-1306.479,761.582C-918.77,836.678-458.749,941.746,112,881.391c384.877-41.629,661.4-135.107,1121.794-207.77,771.524-122.239,869.4,236.724,1665.169,4.941C3480.434,509.2,4502.791,402.619,5069.94,909.394" fill="none" stroke="#6f90c7" stroke-width="0.574"/><path d="M-1320.4,768.776C-931.534,843.07-473.815,947.754,95.729,887.4,479.934,845.757,755.3,750.93,1215.8,678.149c771.755-122.444,869.98,237.455,1667.044,4.27,582.234-170.335,1606.9-276.294,2176.363,232.936" fill="none" stroke="#6f8fc7" stroke-width="0.574"/><path d="M-1334.486,775.915C-944.462,849.407-489.045,953.706,79.3,893.352,462.832,851.7,737.051,755.52,1197.645,682.622c771.988-122.65,870.562,238.186,1668.919,3.6,582.992-171.305,1609.979-276.645,2181.744,235.041" fill="none" stroke="#6e8fc7" stroke-width="0.574"/><path d="M-1348.737,783C-957.556,855.687-504.44,959.6,62.7,899.248c382.861-41.668,655.928-139.2,1116.622-212.21,772.219-122.856,871.143,238.917,1670.794,2.926,583.75-172.274,1613.051-277,2187.125,237.145" fill="none" stroke="#6e8ec6" stroke-width="0.574"/><path d="M-1363.155,790.019C-970.816,861.907-520,965.436,45.942,905.084,428.13,863.4,700.047,764.527,1160.84,691.394c772.451-123.061,871.724,239.649,1672.67,2.255C3418.018,520.405,4449.633,416.3,5026.015,932.9" fill="none" stroke="#6d8ec6" stroke-width="0.574"/><path d="M-1377.742,796.98c393.5,71.086,842.01,174.23,1406.753,113.88,381.516-41.7,652.282-141.921,1113.174-215.171,772.683-123.267,872.306,240.381,1674.545,1.583,585.266-174.213,1619.2-277.7,2197.886,241.354" fill="none" stroke="#6d8ec6" stroke-width="0.574"/><path d="M-1392.5,803.878C-997.845,874.162-551.634,976.921,11.909,916.572c380.845-41.708,650.459-143.283,1111.45-216.651,772.915-123.473,872.889,241.113,1676.42.912C3385.8,525.651,4422.048,422.783,5003.047,944.291" fill="none" stroke="#6c8dc6" stroke-width="0.574"/><path d="M-1407.429,810.711C-1011.617,880.193-567.707,982.568-5.365,922.219,374.808,880.5,643.272,777.573,1104.362,704.088c773.146-123.678,873.47,241.846,1678.3.24C3369.44,528.177,4408,425.928,4991.305,949.891" fill="none" stroke="#6c8dc6" stroke-width="0.574"/><path d="M-1422.532,817.477c396.969,68.68,838.577,170.67,1399.72,110.322,379.5-41.734,646.813-146.008,1108-219.611,773.378-123.884,874.053,242.579,1680.171-.432C3352.9,530.637,4393.774,429.005,4979.39,955.424" fill="none" stroke="#6b8cc5" stroke-width="0.574"/><path d="M-1437.811,824.175C-1039.684,892.053-600.378,993.657-40.436,933.31c378.829-41.747,644.99-147.371,1106.279-221.09,773.609-124.09,874.635,243.311,1682.046-1.1,588.3-178.087,1631.486-279.1,2219.41,249.772" fill="none" stroke="#6b8cc5" stroke-width="0.574"/><path d="M-1453.268,830.8C-1053.983,897.878-616.979,999.1-58.236,938.751,319.92,896.991,584.931,790.017,1046.318,716.18c773.842-124.295,875.219,244.045,1683.921-1.775C3319.3,535.35,4364.8,434.952,4955.03,966.281" fill="none" stroke="#6b8bc5" stroke-width="0.574"/><path d="M-1468.9,837.356c400.442,66.274,835.145,167.108,1392.687,106.763,377.485-41.773,641.344-150.1,1102.831-224.051,774.073-124.5,875.8,244.779,1685.8-2.447C3302.229,537.6,4350.042,437.817,4942.583,971.6" fill="none" stroke="#6a8bc5" stroke-width="0.574"/><path d="M-1484.719,843.835c401.6,65.472,834,165.922,1390.342,105.578,376.813-41.787,639.522-151.459,1101.108-225.531,774.3-124.707,876.384,245.512,1687.671-3.119,590.577-180.991,1640.7-280.155,2235.552,256.085" fill="none" stroke="#6a8bc5" stroke-width="0.574"/><path d="M-1500.718,850.238c402.758,64.671,832.857,164.735,1388,104.392,376.141-41.8,637.7-152.821,1099.384-227.011,774.536-124.912,876.967,246.247,1689.546-3.79C3267.547,541.87,4319.987,443.323,4917.144,982.018" fill="none" stroke="#698ac4" stroke-width="0.574"/><path d="M-1516.9,856.563c403.915,63.868,831.713,163.549,1385.654,103.206,375.469-41.813,635.876-154.184,1097.66-228.491,774.768-125.118,877.551,246.981,1691.421-4.462,592.1-182.926,1646.85-280.857,2246.315,260.294" fill="none" stroke="#698ac4" stroke-width="0.574"/><path d="M-1533.27,862.808C-1128.2,925.874-702.7,1025.169-149.96,964.828,224.838,923,484.093,809.281,945.976,734.857c775-125.324,878.135,247.715,1693.3-5.134C3232.128,545.83,4289.2,448.515,4890.968,992.122" fill="none" stroke="#6889c4" stroke-width="0.574"/><path d="M-1549.826,868.971C-1143.595,931.235-720.4,1030.145-168.86,969.805,205.265,927.965,463.369,812.9,925.352,738.353c775.231-125.529,878.718,248.451,1695.172-5.8,593.615-184.861,1652.994-281.559,2257.076,264.5" fill="none" stroke="#6889c4" stroke-width="0.574"/><path d="M-1566.571,875.049C-1159.183,936.512-738.29,1035.037-187.95,974.7,185.5,932.845,442.456,816.425,904.538,741.766c775.463-125.735,879.3,249.186,1697.047-6.477C3195.96,549.461,4257.652,453.379,4864.042,1001.9" fill="none" stroke="#6788c4" stroke-width="0.574"/><path d="M-1583.508,881.042c408.546,60.66,827.137,158.8,1376.277,98.463C165.551,937.639,421.353,819.869,883.533,745.093c775.7-125.941,879.887,249.921,1698.923-7.149C3177.591,551.15,4241.6,455.683,4850.294,1006.656" fill="none" stroke="#6788c4" stroke-width="0.574"/><path d="M-1600.637,886.947c409.7,59.858,825.993,157.614,1373.933,97.277,372.109-41.88,626.76-161,1089.04-235.892,775.927-126.147,880.471,250.657,1700.8-7.821,595.9-187.761,1662.212-282.612,2273.219,270.817" fill="none" stroke="#6788c3" stroke-width="0.574"/><path d="M-1617.96,892.762c410.861,59.057,824.848,156.427,1371.588,96.091C125.066,946.961,378.565,826.492,840.945,751.481,1617.1,625.129,1722,1002.874,2543.617,742.989c596.655-188.727,1665.285-282.963,2278.6,272.921" fill="none" stroke="#6687c3" stroke-width="0.574"/><path d="M-1635.48,898.486c412.019,58.254,823.705,155.24,1369.244,94.9C104.53,951.485,356.878,829.668,819.357,754.539c776.39-126.558,881.64,252.129,1704.548-9.164C3121.32,555.681,4192.262,462.061,4807.885,1020.4" fill="none" stroke="#6687c3" stroke-width="0.574"/><path d="M-1653.2,904.116c413.177,57.453,822.561,154.054,1366.9,93.719C83.8,955.916,334.994,832.749,797.571,757.5c776.622-126.763,882.226,252.866,1706.423-9.835C3102.17,557.008,4175.425,464,4793.356,1024.8" fill="none" stroke="#6586c3" stroke-width="0.574"/><path d="M-1671.114,909.651C-1256.78,966.3-849.7,1062.518-306.559,1002.184,62.863,960.252,312.91,835.735,775.586,760.372c776.854-126.969,882.811,253.6,1708.3-10.507,598.936-191.626,1674.5-284.017,2294.742,279.234" fill="none" stroke="#6586c3" stroke-width="0.574"/><path d="M-1689.233,915.089c415.492,55.848,820.273,151.679,1362.212,91.347C41.729,964.491,290.624,838.624,753.4,763.143c777.085-127.174,883.4,254.34,1710.173-11.178C3063.271,559.373,4141.149,467.6,4763.7,1033.3" fill="none" stroke="#6485c2" stroke-width="0.574"/><path d="M-1707.554,920.427c416.65,55.047,819.129,150.493,1359.868,90.161C20.391,968.63,268.136,841.414,731.011,765.816c777.317-127.381,883.981,255.076,1712.049-11.851,600.458-193.557,1680.647-284.718,2305.5,283.443" fill="none" stroke="#6485c2" stroke-width="0.574"/><path d="M-1726.079,925.664c417.807,54.245,817.984,149.306,1357.523,88.976C-1.15,972.668,245.443,844.1,708.417,768.387,1485.966,640.8,1592.984,1024.2,2422.341,755.865,3023.56,561.342,4106.061,470.8,4733.226,1041.412" fill="none" stroke="#6385c2" stroke-width="0.574"/><path d="M-1744.811,930.8c418.964,53.442,816.84,148.119,1355.178,87.789C-22.9,976.6,222.544,846.689,685.617,770.855c777.78-127.792,885.153,256.552,1715.8-13.193,601.98-195.489,1686.793-285.421,2316.266,287.651" fill="none" stroke="#6384c2" stroke-width="0.574"/><path d="M-1763.751,935.828c420.122,52.641,815.7,146.932,1352.834,86.6,366.062-42,610.353-173.263,1073.526-249.213,778.012-128,885.739,257.29,1717.674-13.866C2983.025,562.9,4070.149,473.582,4701.93,1049.109" fill="none" stroke="#6384c2" stroke-width="0.574"/><path d="M-1782.9,940.751c421.28,51.838,814.553,145.745,1350.49,85.417,365.39-42.011,608.53-174.625,1071.8-250.693,778.244-128.2,886.326,258.028,1719.55-14.537,603.5-197.418,1692.938-286.122,2327.027,291.861" fill="none" stroke="#6283c2" stroke-width="0.574"/><path d="M-1802.262,945.565c422.437,51.036,813.408,144.558,1348.146,84.231C-89.4,987.772,152.591,853.809,615.962,777.623c778.475-128.409,886.912,258.767,1721.424-15.208C2941.651,564.031,4033.4,475.941,4669.8,1056.379" fill="none" stroke="#6283c1" stroke-width="0.574"/><path d="M-1821.836,950.268c423.6,50.235,812.264,143.372,1345.8,83.046,364.046-42.038,604.884-177.35,1068.354-253.653,778.708-128.615,887.5,259.505,1723.3-15.881,605.026-199.348,1699.084-286.824,2337.79,296.069" fill="none" stroke="#6182c1" stroke-width="0.574"/><path d="M-1841.626,954.859c424.753,49.433,811.121,142.185,1343.458,81.86,363.374-42.051,603.061-178.713,1066.63-255.133,778.939-128.821,888.086,260.244,1725.175-16.552,605.788-200.313,1702.156-287.176,2343.17,298.173" fill="none" stroke="#6182c1" stroke-width="0.574"/><path d="M-1861.631,959.336c425.91,48.63,809.976,141,1341.113,80.674C-157.816,997.946,80.72,859.934,544.388,783.4c779.171-129.026,888.673,260.983,1727.051-17.224C2877.988,564.9,3976.667,478.646,4619.99,1066.45" fill="none" stroke="#6082c1" stroke-width="0.574"/><path d="M-1881.855,963.7c427.068,47.829,808.832,139.811,1338.769,79.488C-181.056,1001.107,56.329,861.746,520.1,785.09c779.4-129.231,889.26,261.723,1728.926-17.895,607.311-202.241,1708.3-287.877,2353.932,302.382" fill="none" stroke="#6081c1" stroke-width="0.574"/><path d="M-1902.3,967.938c428.226,47.027,807.688,138.624,1336.424,78.3,361.359-42.09,597.593-182.8,1061.459-259.573,779.634-129.438,889.847,262.462,1730.8-18.567C2834.459,564.894,3937.759,479.871,4585.7,1072.586" fill="none" stroke="#5f81c0" stroke-width="0.574"/><path d="M-1922.965,972.06c429.384,46.225,806.545,137.437,1334.081,77.116C-228.2,1007.073,6.885,865.013,470.851,788.123c779.866-129.643,890.434,263.2,1732.675-19.239,608.836-204.17,1714.447-288.58,2364.694,306.591" fill="none" stroke="#5f80c0" stroke-width="0.574"/><path d="M-1943.854,976.06c430.541,45.423,805.4,136.251,1331.736,75.931C-252.1,1009.874-18.172,866.464,445.894,789.457c780.1-129.849,891.022,263.942,1734.55-19.911,609.6-205.133,1717.52-288.93,2370.075,308.7" fill="none" stroke="#5e80c0" stroke-width="0.574"/><path d="M-1964.968,979.936c431.7,44.621,804.257,135.064,1329.392,74.745,359.343-42.13,592.123-186.889,1056.287-264.014,780.33-130.054,891.611,264.682,1736.427-20.582,610.361-206.1,1720.591-289.282,2375.455,310.8" fill="none" stroke="#5e7fc0" stroke-width="0.574"/><path d="M-1986.309,983.687c432.857,43.819,803.113,133.877,1327.048,73.559C-300.59,1015.1-68.961,868.994,395.3,791.751c780.562-130.259,892.2,265.423,1738.3-21.253,611.124-207.061,1723.664-289.633,2380.836,312.9" fill="none" stroke="#5e7fc0" stroke-width="0.574"/><path d="M-2003.651,987.079c434.014,43.017,801.969,132.69,1324.7,72.373,358-42.157,588.477-189.615,1052.839-266.975,780.793-130.465,892.787,266.164,1740.177-21.925,611.886-208.024,1726.737-289.984,2386.217,315.009" fill="none" stroke="#5d7fbf" stroke-width="0.574"/><path d="M-2016.485,990.165c435.171,42.215,800.824,131.5,1322.359,71.187C-336.8,1019.182-107.472,870.374,356.989,792.9c781.025-130.671,893.376,266.9,1742.052-22.6,612.65-208.987,1729.81-290.334,2391.6,317.114" fill="none" stroke="#5d7ebf" stroke-width="0.574"/><path d="M-2028.149,993.151c436.329,41.414,799.68,130.317,1320.014,70C-351.48,1020.97-123.3,870.813,341.257,793.218c781.257-130.877,893.964,267.645,1743.927-23.269C2698.6,560,3818.066,479.264,4482.163,1089.167" fill="none" stroke="#5c7ebf" stroke-width="0.574"/><path d="M-2038.665,996.04c437.487,40.612,798.536,129.13,1317.67,68.815,355.983-42.2,583.008-193.7,1047.668-271.414,781.488-131.083,894.553,268.387,1745.8-23.941,614.176-210.913,1735.955-291.036,2402.36,321.323" fill="none" stroke="#5c7dbf" stroke-width="0.574"/><path d="M-2048.056,998.833c438.644,39.809,797.392,127.942,1315.326,67.629C-377.419,1024.253-151.545,871.4,313.214,793.567c781.72-131.288,895.142,269.129,1747.678-24.612,614.939-211.876,1739.027-291.387,2407.74,323.427" fill="none" stroke="#5b7dbf" stroke-width="0.574"/><path d="M-2056.344,1001.531c439.8,39.007,796.248,126.755,1312.981,66.443C-388.723,1025.752-164,871.546,300.858,793.6c781.951-131.494,895.731,269.87,1749.552-25.284,615.7-212.839,1742.1-291.738,2413.122,325.532" fill="none" stroke="#5b7cbf" stroke-width="0.574"/><path d="M-2063.553,1004.135c440.96,38.2,795.1,125.569,1310.638,65.257,353.967-42.235,577.539-197.79,1042.5-275.855,782.183-131.7,896.32,270.613,1751.427-25.955,616.466-213.8,1745.173-292.09,2418.5,327.635" fill="none" stroke="#5a7cbe" stroke-width="0.574"/><path d="M-2069.7,1006.647c442.118,37.4,793.96,124.382,1308.293,64.071,353.3-42.248,575.716-199.153,1040.773-277.334,782.415-131.906,896.91,271.354,1753.3-26.627C2649.9,551.992,3780.91,474.316,4456.548,1096.5" fill="none" stroke="#5a7cbe" stroke-width="0.574"/><path d="M-2074.821,1009.069c443.275,36.6,792.816,123.195,1305.949,62.885,352.624-42.262,573.893-200.516,1039.049-278.815,782.647-132.111,897.5,272.1,1755.178-27.3,617.994-215.727,1751.318-292.791,2429.264,331.845" fill="none" stroke="#5a7bbe" stroke-width="0.574"/><path d="M-2078.926,1011.4c444.433,35.8,791.672,122.008,1303.605,61.7C-423.37,1030.826-203.251,871.222,262,792.806c782.878-132.317,898.089,272.839,1757.053-27.971,618.758-216.689,1754.39-293.142,2434.645,333.949" fill="none" stroke="#597bbe" stroke-width="0.574"/><path d="M-2082.042,1013.646c445.59,35,790.528,120.821,1301.26,60.514,351.28-42.289,570.247-203.242,1035.6-281.776,783.11-132.522,898.68,273.582,1758.929-28.642C2633.27,546.091,3771.211,470.249,4453.774,1099.8" fill="none" stroke="#597abe" stroke-width="0.574"/><path d="M-2084.192,1015.8c446.748,34.2,789.384,119.635,1298.916,59.328,350.607-42.3,568.424-204.6,1033.877-283.255,783.342-132.728,899.27,274.325,1760.8-29.314,620.286-218.614,1760.535-293.845,2445.407,338.158" fill="none" stroke="#587abd" stroke-width="0.574"/><path d="M-2085.4,1017.878c447.906,33.393,788.24,118.447,1296.572,58.142,349.936-42.315,566.6-205.967,1032.154-284.736,783.573-132.933,899.86,275.068,1762.678-29.985,621.051-219.576,1763.608-294.2,2450.788,340.262" fill="none" stroke="#5879bd" stroke-width="0.574"/><path d="M-2085.685,1019.868c449.063,32.591,787.1,117.26,1294.228,56.956,349.264-42.328,564.778-207.33,1030.43-286.216,783.805-133.139,900.451,275.812,1764.554-30.657C2625.342,539.414,3770.207,465.4,4459.7,1102.318" fill="none" stroke="#5779bd" stroke-width="0.574"/><path d="M-2085.073,1021.776c450.221,31.789,785.952,116.074,1291.884,55.77,348.591-42.341,562.955-208.692,1028.706-287.7,784.036-133.345,901.041,276.556,1766.429-31.329,622.579-221.5,1769.753-294.9,2461.549,344.471" fill="none" stroke="#5779bd" stroke-width="0.574"/><path d="M-2083.585,1023.6c451.378,30.988,784.808,114.887,1289.539,54.584,347.92-42.354,561.132-210.054,1026.982-289.175,784.269-133.551,901.633,277.3,1768.3-32,623.345-222.46,1772.826-295.248,2466.931,346.576" fill="none" stroke="#5678bd" stroke-width="0.574"/><path d="M-2081.245,1025.352c452.536,30.185,783.664,113.7,1287.2,53.4C-446.8,1036.383-234.741,867.332,231.208,788.094c784.5-133.756,902.224,278.043,1770.179-32.672C2625.5,532,3777.286,459.822,4473.7,1104.1" fill="none" stroke="#5678bc" stroke-width="0.574"/><path d="M-2078.075,1027.022c453.694,29.384,782.519,112.513,1284.85,52.212,346.576-42.38,557.486-212.78,1023.535-292.135,784.732-133.962,902.815,278.787,1772.054-33.344C2627.239,529.372,3781.335,457.8,4480.057,1104.539" fill="none" stroke="#5677bc" stroke-width="0.574"/><path d="M-2074.1,1028.616c454.851,28.582,781.375,111.327,1282.506,51.027,345.9-42.394,555.663-214.143,1021.811-293.616,784.963-134.168,903.407,279.531,1773.93-34.016,625.639-225.344,1782.043-296.3,2483.072,352.889" fill="none" stroke="#5577bc" stroke-width="0.574"/><path d="M-2069.337,1030.136c456.009,27.78,780.232,110.139,1280.162,49.84,345.232-42.406,553.84-215.505,1020.087-295.1,785.2-134.373,904,280.276,1775.805-34.687,626.4-226.3,1785.116-296.653,2488.454,354.993" fill="none" stroke="#5576bc" stroke-width="0.574"/><path d="M-2063.814,1031.582c457.167,26.978,779.088,108.952,1277.818,48.655,344.56-42.42,552.017-216.869,1018.363-296.577,785.427-134.579,904.59,281.021,1777.68-35.359,627.17-227.266,1788.189-297,2493.835,357.1" fill="none" stroke="#5476bc" stroke-width="0.574"/><path d="M-2057.552,1032.956c458.325,26.176,777.944,107.766,1275.474,47.469,343.888-42.434,550.194-218.231,1016.639-298.057,785.659-134.784,905.182,281.766,1779.555-36.03,627.936-228.227,1791.262-297.355,2499.216,359.2" fill="none" stroke="#5476bc" stroke-width="0.574"/><path d="M-2050.574,1034.259c459.483,25.374,776.8,106.579,1273.13,46.283C-434.228,1038.1-229.073,860.949,237.471,781.006c785.891-134.991,905.775,282.511,1781.431-36.7C2647.6,515.116,3813.236,446.6,4523.5,1105.61" fill="none" stroke="#5375bb" stroke-width="0.574"/><path d="M-2042.9,1035.494c460.64,24.572,775.656,105.392,1270.785,45.1,342.545-42.46,546.548-220.957,1013.192-301.017,786.122-135.2,906.367,283.256,1783.306-37.374,629.466-230.148,1797.406-298.057,2509.977,363.411" fill="none" stroke="#5375bb" stroke-width="0.574"/><path d="M-2034.559,1036.66c461.8,23.77,774.511,104.2,1268.44,43.911,341.873-42.472,544.726-222.319,1011.468-302.5,786.354-135.4,906.96,284,1785.181-38.046,630.233-231.109,1800.479-298.408,2515.358,365.515" fill="none" stroke="#5274bb" stroke-width="0.574"/><path d="M-2025.569,1037.761c462.955,22.968,773.368,103.018,1266.1,42.725C-418.272,1038-216.57,856.8,250.272,776.509c786.585-135.607,907.552,284.747,1787.056-38.717,631-232.069,1803.552-298.759,2520.739,367.619" fill="none" stroke="#5274bb" stroke-width="0.574"/><path d="M-2015.953,1038.8c464.113,22.166,772.224,101.832,1263.752,41.539,340.529-42.5,541.08-225.044,1008.02-305.457,786.818-135.813,908.146,285.494,1788.932-39.388,631.764-233.03,1806.624-299.11,2526.12,369.724" fill="none" stroke="#5273bb" stroke-width="0.574"/><path d="M-2005.734,1039.768c465.27,21.364,771.079,100.645,1261.408,40.354,339.856-42.513,539.256-226.407,1006.3-306.937,787.049-136.019,908.738,286.239,1790.806-40.061,632.531-233.989,1809.7-299.461,2531.5,371.828" fill="none" stroke="#5173ba" stroke-width="0.574"/><path d="M-1994.936,1040.678c466.428,20.562,769.935,99.458,1259.064,39.168C-396.688,1037.32-198.439,852.076,268.7,771.429,1055.981,635.2,1178.032,1058.414,2061.382,730.7c633.3-234.95,1812.769-299.812,2536.881,373.932" fill="none" stroke="#5173ba" stroke-width="0.574"/><path d="M-1983.581,1041.528c467.586,19.76,768.792,98.271,1256.72,37.982,338.513-42.539,535.61-229.133,1002.848-309.9,787.513-136.43,909.926,287.732,1794.557-41.4C2704.608,492.3,3886.386,428.046,4612.807,1104.246" fill="none" stroke="#5072ba" stroke-width="0.574"/><path d="M-1971.691,1042.318c468.744,18.959,767.648,97.085,1254.375,36.8,337.841-42.552,533.788-230.495,1001.125-311.377,787.744-136.636,910.519,288.478,1796.432-42.076C2715.072,488.792,3899.156,425.147,4627.885,1103.8" fill="none" stroke="#5072ba" stroke-width="0.574"/><path d="M-1959.289,1043.051c469.9,18.157,766.5,95.9,1252.031,35.61C-370.089,1036.1-175.294,846.8,292.143,765.8c787.976-136.842,911.112,289.225,1798.307-42.748,635.6-237.829,1821.987-300.864,2553.024,380.247" fill="none" stroke="#4f71ba" stroke-width="0.574"/><path d="M-1946.4,1043.728c471.059,17.354,765.36,94.71,1249.687,34.424,336.5-42.579,530.141-233.221,997.677-314.338,788.208-137.047,911.707,289.972,1800.183-43.419,636.363-238.788,1825.059-301.216,2558.4,382.351" fill="none" stroke="#4f71b9" stroke-width="0.574"/><path d="M-1933.042,1044.35c472.216,16.552,764.216,93.523,1247.343,33.238C-349.874,1035-157.381,843,310.254,761.77c788.439-137.253,912.3,290.719,1802.057-44.091C2749.442,477.931,3940.444,416.113,4676.1,1102.134" fill="none" stroke="#4e70b9" stroke-width="0.574"/><path d="M-1919.241,1044.918c473.373,15.75,763.071,92.337,1245,32.052,335.153-42.6,526.5-235.946,994.229-317.3,788.671-137.458,912.9,291.467,1803.933-44.762,637.9-240.707,1831.205-301.918,2569.167,386.56" fill="none" stroke="#4e70b9" stroke-width="0.574"/><path d="M-1905.02,1045.435c474.531,14.948,761.927,91.149,1242.653,30.866,334.482-42.618,524.673-237.309,992.506-318.778,788.9-137.664,913.49,292.214,1805.808-45.434C2774.612,470.422,3970.225,409.82,4710.5,1100.753" fill="none" stroke="#4e70b9" stroke-width="0.574"/><path d="M-1890.4,1045.9c475.689,14.147,760.783,89.963,1240.309,29.681,333.81-42.631,522.849-238.671,990.782-320.258,789.134-137.87,914.084,292.961,1807.683-46.106C2787.805,466.591,3985.723,406.6,4728.3,1099.985" fill="none" stroke="#4d6fb9" stroke-width="0.574"/><path d="M-1875.407,1046.317c476.847,13.345,759.64,88.776,1237.966,28.495,333.137-42.644,521.026-240.034,989.057-321.738C1140.983,615,1266.3,1046.783,2161.175,706.3c640.2-243.585,1840.423-302.971,2585.309,392.873" fill="none" stroke="#4d6fb9" stroke-width="0.574"/><path d="M-1860.06,1046.687c478,12.542,758.5,87.589,1235.621,27.308,332.466-42.657,519.2-241.4,987.334-323.218,789.6-138.281,915.274,294.457,1811.434-47.449,640.967-244.544,1843.5-303.322,2590.69,394.977" fill="none" stroke="#4c6eb8" stroke-width="0.574"/><path d="M-1844.383,1047.01c479.162,11.74,757.352,86.4,1233.277,26.122,331.794-42.67,517.38-242.759,985.61-324.7,789.83-138.487,915.869,295.2,1813.309-48.121C2829.548,454.81,4034.381,396.64,4783.884,1097.4" fill="none" stroke="#4c6eb8" stroke-width="0.574"/><path d="M-1828.4,1047.288c480.32,10.938,756.208,85.215,1230.933,24.936C-266.345,1029.541-81.909,828.1,386.42,746.046,1176.482,607.354,1302.885,1042,2201.6,697.254c642.5-246.462,1849.641-304.024,2601.452,399.186" fill="none" stroke="#4b6db8" stroke-width="0.574"/><path d="M-1812.13,1047.523c481.477,10.136,755.063,84.028,1228.588,23.75,330.45-42.7,513.734-245.484,982.163-327.658,790.293-138.9,917.06,296.7,1817.059-49.464,643.27-247.421,1852.713-304.375,2606.833,401.29" fill="none" stroke="#4b6db8" stroke-width="0.574"/><path d="M-1795.6,1047.716c482.635,9.334,753.919,82.841,1226.244,22.565,329.778-42.711,511.911-246.848,980.439-329.139,790.525-139.1,917.656,297.451,1818.934-50.136C2874.056,442.627,4085.8,386.28,4842.231,1094.4" fill="none" stroke="#4a6cb8" stroke-width="0.574"/><path d="M-1778.83,1047.868c483.792,8.533,752.775,81.655,1223.9,21.379,329.106-42.723,510.088-248.21,978.715-330.619,790.756-139.309,918.252,298.2,1820.809-50.807,644.807-249.338,1858.859-305.077,2617.6,405.5" fill="none" stroke="#4a6cb7" stroke-width="0.574"/><path d="M-1761.845,1047.982c484.95,7.73,751.631,80.468,1221.555,20.193C-211.856,1025.438-32.025,818.6,436.7,736.076c790.989-139.515,918.848,298.948,1822.685-51.479,645.575-250.3,1861.931-305.428,2622.976,407.6" fill="none" stroke="#4a6cb7" stroke-width="0.574"/><path d="M-1744.666,1048.057c486.108,6.929,750.487,79.282,1219.211,19.008,327.762-42.75,506.442-250.936,975.267-333.579,791.22-139.721,919.444,299.7,1824.56-52.151,646.344-251.255,1865-305.779,2628.357,409.708" fill="none" stroke="#496bb7" stroke-width="0.574"/><path d="M-1727.316,1048.1c487.265,6.127,749.343,78.094,1216.867,17.821,327.09-42.763,504.619-252.3,973.543-335.059,791.452-139.926,920.04,300.447,1826.435-52.822,647.112-252.213,1868.076-306.13,2633.738,411.812" fill="none" stroke="#496bb7" stroke-width="0.574"/><path d="M-1709.818,1048.042c488.423,5.325,748.2,76.907,1214.522,16.635,326.418-42.776,502.8-253.66,971.82-336.539,791.683-140.132,920.636,301.2,1828.31-53.494,647.881-253.171,1871.149-306.481,2639.118,413.917" fill="none" stroke="#486ab7" stroke-width="0.574"/><path d="M-1692.195,1047.94c489.581,4.523,747.055,75.721,1212.178,15.449,325.746-42.789,500.973-255.023,970.1-338.019,791.915-140.338,921.233,301.946,1830.185-54.165,648.65-254.129,1874.222-306.832,2644.5,416.021" fill="none" stroke="#486ab7" stroke-width="0.574"/><path d="M-1674.469,1047.805c490.738,3.721,745.911,74.534,1209.834,14.264,325.074-42.8,499.15-256.386,968.372-339.5,792.147-140.544,921.83,302.7,1832.06-54.838,649.418-255.087,1877.294-307.183,2649.88,418.126" fill="none" stroke="#4769b6" stroke-width="0.574"/><path d="M-1656.663,1047.64c491.9,2.919,744.767,73.347,1207.489,13.078,324.4-42.816,497.328-257.749,966.648-340.98,792.379-140.749,922.427,303.445,1833.936-55.509C3001.6,408.184,4231.777,356.7,5006.671,1084.459" fill="none" stroke="#4769b6" stroke-width="0.574"/><path d="M-1638.8,1047.445c493.053,2.117,743.623,72.16,1205.145,11.892,323.73-42.829,495.5-259.112,964.924-342.46,792.611-140.955,923.024,304.2,1835.811-56.18,650.956-257,1883.44-307.886,2660.642,422.334" fill="none" stroke="#4669b6" stroke-width="0.574"/><path d="M-1620.9,1047.222c494.211,1.315,742.479,70.973,1202.8,10.706,323.059-42.843,493.681-260.475,963.2-343.94,792.843-141.161,923.622,304.945,1837.687-56.852C3034.51,399.175,4269.3,348.9,5048.807,1081.575" fill="none" stroke="#4668b6" stroke-width="0.574"/><path d="M-1602.994,1046.972c495.369.513,741.335,69.786,1200.457,9.52,322.387-42.856,491.858-261.837,961.476-345.42,793.074-141.366,924.22,305.7,1839.562-57.524C3051,394.63,4288.085,344.961,5069.905,1080.091" fill="none" stroke="#4668b6" stroke-width="0.574"/><path d="M-1585.1,1046.7c496.527-.289,740.191,68.6,1198.113,8.334,321.715-42.868,490.035-263.2,959.752-346.9,793.306-141.572,924.817,306.445,1841.437-58.2C3067.47,390.059,4306.863,341,5090.991,1078.583" fill="none" stroke="#4567b5" stroke-width="0.574"/><path d="M-1567.231,1046.4c497.684-1.091,739.046,67.413,1195.768,7.148,321.043-42.881,488.212-264.562,958.029-348.38,793.537-141.777,925.414,307.2,1843.312-58.867,654.033-260.833,1895.729-309.289,2682.165,430.752" fill="none" stroke="#4567b5" stroke-width="0.574"/><path d="M-1549.423,1046.076c498.842-1.893,737.9,66.225,1193.424,5.962,320.37-42.895,486.389-265.925,956.305-349.86,793.769-141.984,926.012,307.947,1845.187-59.539C3100.3,380.848,4344.3,333,5133.039,1075.495" fill="none" stroke="#4466b5" stroke-width="0.574"/><path d="M-1531.695,1045.733c500-2.695,736.759,65.039,1191.08,4.776,319.7-42.908,484.566-267.287,954.581-351.34,794-142.189,926.611,308.7,1847.063-60.211C3116.6,376.211,4362.9,328.967,5153.956,1073.919" fill="none" stroke="#4466b5" stroke-width="0.574"/><path d="M-1514.068,1045.37c501.158-3.5,735.615,63.852,1188.736,3.591C-6.3,1006.04,157.411,780.311,627.525,696.141c794.232-142.395,927.209,309.449,1848.937-60.883,656.343-263.7,1904.948-310.342,2698.308,437.066" fill="none" stroke="#4366b5" stroke-width="0.574"/><path d="M-1496.565,1044.99c502.314-4.3,734.47,62.665,1186.391,2.4,318.355-42.934,480.92-270.013,951.133-354.3,794.464-142.6,927.808,310.2,1850.813-61.554,657.112-264.662,1908.02-310.693,2703.689,439.17" fill="none" stroke="#4365b4" stroke-width="0.574"/><path d="M-1479.211,1044.593c503.473-5.1,733.327,61.478,1184.047,1.218,317.683-42.947,479.1-271.376,949.41-355.78,794.7-142.806,928.406,310.951,1852.688-62.226C3164.817,362.186,4418.026,316.761,5216,1069.079" fill="none" stroke="#4265b4" stroke-width="0.574"/><path d="M-1462.026,1044.18c504.63-5.9,732.183,60.291,1181.7.032,317.011-42.96,477.274-272.738,947.686-357.26,794.927-143.012,929,311.7,1854.563-62.9,658.653-266.576,1914.165-311.4,2714.45,443.378" fill="none" stroke="#4264b4" stroke-width="0.574"/><path d="M-1445.034,1043.753c505.788-6.7,731.039,59.1,1179.359-1.153C50.664,999.626,209.776,768.5,680.286,683.859c795.16-143.217,929.6,312.455,1856.439-63.569,659.423-267.533,1917.237-311.746,2719.831,445.483" fill="none" stroke="#4264b4" stroke-width="0.574"/><path d="M-1428.257,1043.314c506.945-7.507,729.894,57.917,1177.014-2.339C64.424,997.987,222.385,765.511,693,680.754c795.391-143.423,930.2,313.206,1858.313-64.241C3211.5,348.024,4471.619,304.416,5276.52,1064.1" fill="none" stroke="#4163b4" stroke-width="0.574"/><path d="M-1411.719,1042.863c508.1-8.308,728.75,56.731,1174.67-3.525,315-43,471.805-276.826,942.514-361.7,795.623-143.628,930.8,313.958,1860.188-64.912,660.965-269.446,1923.383-312.448,2730.594,449.692" fill="none" stroke="#4163b4" stroke-width="0.574"/><path d="M-1395.442,1042.118c509.261-9.111,727.606,55.544,1172.326-4.711,314.323-43.013,469.982-278.189,940.79-363.181,795.854-143.834,932.158,316.557,1862.064-65.584,662.27-269.089,1926.455-312.8,2735.974,451.8" fill="none" stroke="#4063b3" stroke-width="0.574"/><path d="M-1379.449,1041.658c510.419-9.913,726.463,54.357,1169.982-5.9C104.184,992.734,258.692,756.209,729.6,671.1c796.086-144.04,932.738,317.256,1863.939-66.256,663.027-270.083,1929.528-313.15,2741.355,453.9" fill="none" stroke="#4062b3" stroke-width="0.574"/><path d="M-1363.762,1041.19c511.577-10.714,725.319,53.17,1167.638-7.082,312.979-43.04,466.336-280.915,937.342-366.142,796.318-144.245,933.318,317.956,1865.814-66.927,663.784-271.077,1932.6-313.5,2746.736,456.005" fill="none" stroke="#3f62b3" stroke-width="0.574"/><path d="M-1348.4,1040.717c512.734-11.516,724.175,51.984,1165.293-8.268C129.2,989.4,281.4,750.172,752.508,664.827c796.55-144.451,933.9,318.656,1867.689-67.6,664.541-272.071,1935.674-313.852,2752.117,458.11" fill="none" stroke="#3f61b3" stroke-width="0.574"/><path d="M-1333.4,1040.241c513.892-12.319,723.031,50.8,1162.949-9.455,311.635-43.066,462.69-283.64,933.9-369.1,796.781-144.656,934.477,319.356,1869.564-68.27,665.3-273.065,1938.746-314.2,2757.5,460.214" fill="none" stroke="#3e61b3" stroke-width="0.574"/><path d="M-1318.766,1039.761c515.049-13.12,721.886,49.61,1160.6-10.64,310.964-43.08,460.867-285,932.171-370.582C1571.022,513.676,1709.067,978.6,2645.449,589.6,3311.5,315.538,4587.267,275.042,5408.327,1051.915" fill="none" stroke="#3e60b2" stroke-width="0.574"/><path d="M-1304.532,1039.28c516.206-13.922,720.742,48.423,1158.26-11.826,310.291-43.093,459.044-286.365,930.447-372.062,797.245-145.068,935.637,320.756,1873.315-69.614C3324.3,310.725,4602.381,270.873,5425.749,1050.2" fill="none" stroke="#3d60b2" stroke-width="0.574"/><path d="M-1290.718,1038.8c517.364-14.725,719.6,47.235,1155.916-13.013,309.619-43.105,457.221-287.728,928.723-373.542C1591.4,506.971,1730.138,973.7,2669.111,581.96c667.568-276.047,1947.964-315.256,2773.64,466.527" fill="none" stroke="#3d60b2" stroke-width="0.574"/><path d="M-1277.347,1038.32c518.522-15.526,718.454,46.049,1153.571-14.2,308.948-43.119,455.4-289.09,927-375.022,797.708-145.479,936.8,322.156,1877.065-70.957C3348.614,301.1,4631.326,262.536,5459.31,1046.775" fill="none" stroke="#3d5fb2" stroke-width="0.574"/><path d="M-1264.441,1037.844c519.679-16.328,717.31,44.863,1151.227-15.384,308.276-43.132,453.575-290.453,925.276-376.5C1610,500.273,1749.438,968.813,2691,574.329c669.081-278.035,1954.109-315.958,2784.4,470.737" fill="none" stroke="#3c5fb2" stroke-width="0.574"/><path d="M-1252.024,1037.373c520.837-17.131,716.166,43.675,1148.883-16.57,307.6-43.146,451.752-291.816,923.552-377.982,798.172-145.892,937.956,323.555,1880.816-72.3,669.837-279.029,1957.181-316.309,2789.782,472.841" fill="none" stroke="#3c5eb1" stroke-width="0.574"/><path d="M-1240.118,1036.907c521.995-17.933,715.023,42.488,1146.539-17.756C213.353,975.992,356.35,725.972,828.249,639.689c798.4-146.1,938.537,324.254,1882.691-72.973,670.595-280.023,1960.254-316.66,2795.164,474.945" fill="none" stroke="#3b5eb1" stroke-width="0.574"/><path d="M-1228.745,1036.448c523.153-18.734,713.878,41.3,1144.2-18.942,306.26-43.172,448.106-294.541,920.1-380.942,798.635-146.3,939.116,324.954,1884.566-73.644C3391.471,281.9,4683.447,245.908,5520.664,1039.969" fill="none" stroke="#3b5db1" stroke-width="0.574"/><path d="M-1217.929,1036c524.311-19.536,712.735,40.115,1141.851-20.127,305.588-43.185,446.283-295.9,918.38-382.423C1641.169,486.939,1782,959.1,2728.743,559.132c672.108-282.011,1966.4-317.363,2805.926,479.154" fill="none" stroke="#3a5db1" stroke-width="0.574"/><path d="M-1207.691,1035.557c525.467-20.338,711.59,38.928,1139.506-21.313,304.916-43.2,444.46-297.267,916.656-383.9,799.1-146.714,940.276,326.354,1888.317-74.987C3409.652,272.348,4706.26,237.64,5548.094,1036.612" fill="none" stroke="#3a5db1" stroke-width="0.574"/><path d="M-1198.056,1035.128c526.625-21.14,710.446,37.741,1137.162-22.5C243.35,969.417,381.743,714,854.038,627.246,1653.369,480.327,1794.894,954.3,2744.23,551.587c673.622-284,1972.545-318.064,2816.687,483.363" fill="none" stroke="#395cb1" stroke-width="0.574"/><path d="M-1189.045,1034.712c527.783-21.942,709.3,36.554,1134.817-23.685C249.344,967.8,386.586,711.034,858.981,624.164c799.562-147.125,941.435,327.754,1892.067-76.331C3425.426,262.84,4726.665,229.418,5573.116,1033.3" fill="none" stroke="#395cb0" stroke-width="0.574"/><path d="M-1180.682,1034.31c528.941-22.744,708.158,35.367,1132.473-24.872C254.692,966.2,390.782,708.084,863.276,621.1c799.794-147.331,942.016,328.454,1893.942-77,675.135-285.987,1978.69-318.766,2827.449,487.572" fill="none" stroke="#395bb0" stroke-width="0.574"/><path d="M-1172.989,1033.923c530.1-23.546,707.014,34.18,1130.129-26.057C259.369,964.615,394.308,705.148,866.9,618.043c800.026-147.537,942.6,329.154,1895.818-77.674,675.892-286.982,1981.762-319.118,2832.83,489.676" fill="none" stroke="#385bb0" stroke-width="0.574"/><path d="M-1165.988,1033.553c531.256-24.348,705.87,32.994,1127.785-27.243,301.556-43.264,435.345-304.08,908.037-391.3,800.257-147.742,943.175,329.854,1897.692-78.346,676.649-287.975,1984.835-319.468,2838.211,491.781" fill="none" stroke="#385ab0" stroke-width="0.574"/><path d="M-1159.7,1033.2c532.414-25.149,704.726,31.807,1125.44-28.428C266.622,961.5,399.259,699.33,872.051,611.989c800.489-147.947,943.755,330.554,1899.567-79.017C3449.024,244,4759.526,213.153,5615.21,1026.857" fill="none" stroke="#375ab0" stroke-width="0.574"/><path d="M-1154.156,1032.565c533.571-25.952,703.582,30.62,1123.1-29.615,300.213-43.29,431.7-306.806,904.59-394.263C1674.25,460.533,1817.864,939.94,2774.972,529c678.163-289.964,1990.98-320.171,2848.973,495.989" fill="none" stroke="#375aaf" stroke-width="0.574"/><path d="M-1149.37,1031.747c534.729-26.754,702.438,29.433,1120.752-30.8,299.54-43.3,429.876-308.168,902.865-395.743,800.953-148.359,944.915,331.953,1903.318-80.361,678.919-290.957,1994.053-320.521,2854.354,498.094" fill="none" stroke="#3659af" stroke-width="0.574"/><path d="M-1145.368,1030.953C-609.481,1003.4-444.074,1059.2-26.96,998.966,271.908,955.65,401.093,689.435,874.181,601.743c801.184-148.565,945.495,332.653,1905.194-81.032,679.675-291.952,1997.125-320.873,2859.734,500.2" fill="none" stroke="#3659af" stroke-width="0.574"/><path d="M-1142.172,1030.185c537.044-28.358,700.15,27.059,1116.063-33.173,298.2-43.33,426.23-310.894,899.418-398.7,801.416-148.77,946.074,333.353,1907.069-81.7,680.432-292.945,2000.2-321.223,2865.115,502.3" fill="none" stroke="#3558af" stroke-width="0.574"/><path d="M-1139.806,1029.443c538.2-29.16,699.006,25.872,1113.719-34.358C271.438,951.741,398.32,682.828,871.608,594.9c801.647-148.976,946.654,334.053,1908.943-82.376,681.189-293.939,2003.271-321.574,2870.5,504.407" fill="none" stroke="#3558af" stroke-width="0.574"/><path d="M-1138.291,1028.73c539.36-29.962,697.862,24.685,1111.375-35.545,296.853-43.356,422.584-313.619,895.97-401.663,801.88-149.182,947.234,334.752,1910.819-83.048,681.946-294.933,2006.343-321.925,2875.877,506.512" fill="none" stroke="#3557ae" stroke-width="0.574"/><path d="M-1137.651,1028.046c540.518-30.763,696.718,23.5,1109.031-36.73,296.181-43.369,420.761-314.982,894.247-403.144,802.11-149.387,947.813,335.453,1912.694-83.719,682.7-295.927,2009.415-322.276,2881.257,508.616" fill="none" stroke="#3457ae" stroke-width="0.574"/><path d="M-1137.908,1027.394c541.675-31.565,695.574,22.312,1106.687-37.916C264.288,946.1,387.717,673.134,861.3,584.854c802.343-149.593,948.394,336.152,1914.57-84.391,683.459-296.921,2012.488-322.627,2886.638,510.721" fill="none" stroke="#3457ae" stroke-width="0.574"/><path d="M-1139.085,1026.775c542.833-32.368,694.43,21.125,1104.342-39.1,294.837-43.4,417.115-317.708,890.8-406.1C1658.63,431.77,1805.03,918.421,2772.5,496.506c684.216-297.916,2015.56-322.979,2892.019,512.825" fill="none" stroke="#3356ae" stroke-width="0.574"/><path d="M-1141.2,1026.189c543.99-33.169,693.286,19.938,1102-40.288,294.165-43.409,415.292-319.07,889.075-407.584,802.806-150,949.553,337.552,1918.32-85.734,684.973-298.91,2018.633-323.33,2897.4,514.929" fill="none" stroke="#3356ae" stroke-width="0.574"/><path d="M-1144.29,1025.639c545.148-33.971,692.142,18.751,1099.654-41.474C248.857,940.743,368.833,663.733,842.715,575.1c803.037-150.21,950.133,338.252,1920.194-86.406,685.73-299.9,2021.706-323.68,2902.782,517.034" fill="none" stroke="#3255ae" stroke-width="0.574"/><path d="M-1148.363,1025.126c546.305-34.773,691,17.564,1097.309-42.66,292.821-43.435,411.646-321.795,885.627-410.544,803.27-150.416,950.713,338.952,1922.07-87.078,686.486-300.9,2024.779-324.031,2908.162,519.138" fill="none" stroke="#3255ad" stroke-width="0.574"/><path d="M-1153.448,1024.651c547.463-35.575,689.854,16.378,1094.965-43.845,292.149-43.449,409.823-323.158,883.9-412.025,803.5-150.621,951.293,339.652,1923.946-87.749C3436.609,179.14,4777.217,156.65,5662.908,1002.275" fill="none" stroke="#3154ad" stroke-width="0.574"/><path d="M-1159.566,1024.217c548.621-36.377,688.71,15.191,1092.621-45.032,291.477-43.461,408-324.52,882.179-413.5,803.733-150.827,951.873,340.351,1925.821-88.421,688-302.886,2030.924-324.734,2918.924,523.347" fill="none" stroke="#3154ad" stroke-width="0.574"/></g></g></g></svg>