<svg xmlns="http://www.w3.org/2000/svg" viewBox="0 0 65.03 48.77"><rect x="32.51" y="32.51" width="16.26" height="16.26" fill="#bfd2e2"/><path d="M32.51,32.51A16.25,16.25,0,0,0,48.77,16.26V32.51Z" fill="#004a8d"/><path d="M48.77,16.26A16.25,16.25,0,0,1,32.51,32.51V16.26Z" fill="#caf1ef"/><path d="M65,32.51A16.26,16.26,0,0,1,48.77,48.77V32.51Z" fill="#80a4c6"/><path d="M48.77,16.26A16.26,16.26,0,0,1,65,32.51H48.77Z" fill="#4077a9"/><path d="M16.26,16.26A16.26,16.26,0,0,1,32.51,0V16.26Z" fill="#61d4d0"/><path d="M32.51,0A16.26,16.26,0,0,1,48.77,16.26H32.51Z" fill="#00c9d2"/><rect x="16.26" y="32.51" width="16.26" height="16.26" fill="#fbd8ef"/><path d="M32.51,32.51A16.25,16.25,0,0,0,16.26,16.26H32.51Z" fill="#96e2df"/><path d="M32.51,32.51H16.26V16.26A16.25,16.25,0,0,1,32.51,32.51Z" fill="#ee65be"/><path d="M16.26,48.77A16.26,16.26,0,0,1,0,32.51H16.26Z" fill="#f6b2de"/><path d="M16.26,16.26V32.51H0A16.26,16.26,0,0,1,16.26,16.26Z" fill="#f28bce"/></svg>